<?xml version="1.0" standalone="no"?>
<!DOCTYPE svg PUBLIC "-//W3C//DTD SVG 20010904//EN"
 "http://www.w3.org/TR/2001/REC-SVG-20010904/DTD/svg10.dtd">
<svg version="1.0" xmlns="http://www.w3.org/2000/svg" width="640.000000pt" height="640.000000pt" viewBox="0 0 640.000000 640.000000"
 preserveAspectRatio="xMidYMid meet">

<g transform="translate(0.000000,640.000000) scale(0.100000,-0.100000)" stroke="none">
<path d="M3247 5784 c-109 -17 -201 -41 -247 -65 -19 -10 -59 -28 -88 -39
-176 -67 -380 -222 -515 -390 -292 -365 -407 -915 -288 -1382 53 -208 154
-387 313 -554 50 -52 95 -94 100 -94 6 0 34 22 63 48 29 27 69 56 89 66 l35
17 -98 97 c-166 163 -256 325 -308 555 -23 103 -22 371 1 492 75 383 269 671
569 847 252 147 586 191 894 117 256 -61 505 -252 654 -500 112 -187 189 -473
189 -703 l0 -83 61 -7 c88 -9 127 -8 134 4 13 21 4 351 -11 433 -39 203 -147
455 -263 614 -63 86 -165 194 -244 259 -120 97 -320 196 -489 240 -170 44
-381 55 -551 28z"/>
<path d="M3646 4469 c-11 -52 -27 -249 -21 -259 6 -10 250 -14 267 -4 3 2 -8
21 -27 42 -44 50 -207 236 -211 241 -2 2 -5 -7 -8 -20z"/>
<path d="M4612 4122 c-16 -3 -30 -19 -49 -60 -14 -31 -80 -160 -146 -287 -211
-407 -360 -656 -445 -741 -48 -47 -58 -49 -322 -59 -277 -10 -287 -12 -329
-54 -71 -71 -187 -260 -609 -996 -63 -110 -186 -321 -272 -470 -87 -148 -167
-286 -178 -305 -30 -52 -108 -186 -210 -360 -50 -85 -90 -156 -88 -158 5 -4
236 -5 240 -1 5 7 119 205 291 509 409 722 588 991 698 1054 35 20 61 25 152
30 266 15 312 22 365 56 88 56 192 193 349 458 50 85 91 155 91 157 0 2 17 34
39 72 65 116 192 351 306 568 58 111 87 165 164 307 23 43 66 123 95 177 l53
100 -86 3 c-47 2 -96 2 -109 0z"/>
<path d="M3601 4088 c-8 -13 -65 -111 -126 -218 -62 -107 -144 -249 -182 -315
-38 -66 -132 -228 -208 -360 -76 -132 -187 -323 -245 -425 -59 -102 -151 -261
-205 -355 -54 -93 -123 -213 -153 -265 -30 -52 -69 -120 -87 -150 -17 -30 -76
-131 -130 -225 -54 -93 -155 -269 -225 -390 -69 -121 -195 -338 -278 -483 -84
-144 -152 -266 -152 -270 0 -4 55 -7 123 -6 l122 1 86 144 c82 137 418 713
484 829 17 30 110 190 207 355 97 165 198 338 225 385 258 444 1005 1723 1021
1748 l14 22 -138 0 c-133 0 -140 -1 -153 -22z"/>
<path d="M2925 3378 c-197 -26 -343 -129 -413 -290 l-12 -28 198 0 197 0 35
63 c19 34 60 106 92 160 32 54 58 101 58 103 0 6 -82 2 -155 -8z"/>
<path d="M3481 3216 c-45 -80 -81 -147 -81 -151 0 -3 69 -4 153 -3 l152 3 7
45 c9 62 -8 144 -39 181 -21 24 -89 69 -107 69 -2 0 -40 -65 -85 -144z"/>
<path d="M1640 2884 c-28 -52 -50 -100 -48 -106 3 -7 72 -12 198 -14 427 -7
619 -72 670 -229 15 -46 15 -142 0 -226 -6 -34 -9 -63 -7 -65 4 -4 30 42 232
416 70 129 138 254 152 278 l24 42 -585 0 -584 0 -52 -96z"/>
<path d="M3063 1938 c-6 -7 -79 -128 -163 -268 l-151 -254 28 -21 c107 -77
143 -134 143 -224 0 -99 -47 -205 -191 -433 -65 -103 -67 -108 -43 -108 13 -1
69 -1 124 -1 55 0 106 0 113 1 20 0 213 312 292 470 82 165 110 281 103 425
-5 85 -9 103 -46 180 -32 67 -59 104 -120 166 -61 63 -81 77 -89 67z"/>
</g>
</svg>
