<?xml version="1.0" encoding="utf-8"?>
<!-- Generator: Adobe Illustrator 25.3.1, SVG Export Plug-In . SVG Version: 6.00 Build 0)  -->
<svg version="1.1" id="svg" xmlns="http://www.w3.org/2000/svg" xmlns:xlink="http://www.w3.org/1999/xlink" x="0px" y="0px"
	 viewBox="0 0 400 112.1" xml:space="preserve">
<g id="svgg">
	<path id="path0" class="st0" d="M193,8.7c0,0.1-0.6,0.3-1.2,0.5c-3.3,0.8-6.3,2-7.8,2.9l-0.7,0.5l-85.1,0c-46.8,0-85.3,0-85.5,0.1
		l-0.5,0.1v1.9c0,1.8,0,2,0.3,2.2c0.2,0.1,0.3,0.3,0.3,0.4c0,1.9,4.1,7.1,7.1,8.9c0.3,0.2,0.9,0.6,1.4,0.9c1.4,0.9,2.4,1.4,4.4,2.3
		c2.9,1.2,3.4,1.4,6,1.9c0.5,0.1,0.9,0.3,1,0.3c0.2,0.2,0.8,0.3,2.7,0.7c0.6,0.1,1.2,0.3,1.2,0.3c0.1,0,0.7,0.1,1.4,0.2
		c0.7,0.1,1.4,0.1,1.5,0.2c0.2,0.1,1.2,0.3,3,0.5c0.3,0,1.2,0.1,2,0.2c0.8,0.1,1.6,0.2,1.8,0.2c0.3,0.1,1.6,0.3,5.3,0.5
		c2.7,0.1,24,0.1,26.3,0c1.1-0.1,3.3-0.2,4.9-0.3c4-0.2,4.7-0.3,5-0.6c0.2-0.2,0.2-1.6,0.2-5.8c0-3.1,0.1-5.6,0.1-5.7
		c0.2-0.2,84.5-0.2,84.8,0c0.1,0.1-0.1,0.5-0.5,1.1c-0.4,0.5-0.9,1.4-1.1,1.9l-0.4,1h-38.1c-37.9,0-38.1,0-38.4,0.3
		c-0.3,0.3-0.3,0.4-0.1,0.8c0.1,0.2,0.2,0.9,0.2,1.4c0,1.5,1.2,4.3,2.3,5.6c0.4,0.4,0.8,0.9,0.9,1.1c0.5,0.7,3.7,3.1,4.9,3.6
		c0.3,0.2,0.9,0.4,1.2,0.6c0.8,0.3,4.2,1.5,4.7,1.7c0.2,0,0.5,0.2,0.7,0.2c0.2,0.1,0.5,0.2,0.8,0.2s0.7,0.1,0.9,0.2
		c0.5,0.3,3,0.6,5.5,0.8c1.2,0.1,2.2,0.2,2.3,0.3c0.6,0.5,13.4,0.7,13.8,0.3c0.2-0.2,0.2-1.3,0.2-4.5c0-2.3,0-4.3,0.1-4.4
		c0.1-0.1,6.2-0.2,18.1-0.2h18l0,2c0,1.1,0.1,2.2,0.2,2.3c0.2,0.5,0.2,2.5,0,2.5c-3.6-0.2-26.9,0.2-27.1,0.4c-0.3,0.3,0,1,1.2,2.6
		c0.3,0.4,0.5,0.8,0.5,0.9c0,0.2,0.9,1.2,2.9,3.2c2.5,2.5,5,4.2,8.8,5.7c3.1,1.3,3.6,1.5,4.4,1.6c0.5,0.1,1,0.2,1.3,0.3
		c0.7,0.2,1.6,0.5,3.2,0.8c0.8,0.2,1.7,0.3,2.1,0.4c1.1,0.3,3.7,0.5,6.5,0.6c1.8,0.1,2.8,0.2,3.1,0.3c0.3,0.2,0.9,0.2,2.3,0.2
		c2,0,2.2,0,3.7,1c3.2,2.1,5.9,3.3,7.9,3.7c0.4,0.1,1,0.3,1.3,0.4c0.3,0.1,0.7,0.3,0.9,0.3s0.5,0.1,0.7,0.2c1.2,0.7,13.7,0.7,14.9,0
		c0.2-0.1,0.5-0.2,0.7-0.2s0.6-0.2,1-0.3c0.4-0.2,0.9-0.3,1.1-0.3c0.3,0,0.6-0.1,0.8-0.1c0.2-0.1,0.8-0.3,1.3-0.4
		c1.1-0.4,3.2-1.3,3.7-1.7c0.2-0.2,1.2-0.8,2.1-1.3l1.7-1h2c1.4,0,2-0.1,2.2-0.2c0.1-0.1,1.1-0.2,3-0.3c2.9-0.1,5.4-0.3,6.9-0.7
		c2.9-0.6,4.4-0.9,5.1-1.2c0.3-0.1,0.8-0.2,1.2-0.3c0.8-0.1,2.1-0.6,2.4-0.9c0.1-0.1,0.3-0.1,0.5-0.1c0.4,0,0.8-0.2,3.4-1.5
		c4.9-2.4,10.3-7.4,11.5-10.9c0.4-1.1,1.2-1-13.6-1.1c-7.4,0-13.4-0.1-13.5-0.2s0-0.3,0.1-0.6c0.2-0.4,0.3-0.8,0.2-3.1
		c0-1.6,0-2.7,0.1-2.8c0.1-0.1,6.5-0.1,18-0.1l17.9,0l0.1,4.4c0,2.4,0.1,4.5,0.2,4.5c0.4,0.4,13.3,0.1,14.3-0.3
		c0.3-0.1,1.2-0.2,2.3-0.2c1,0,1.9-0.1,1.9-0.1c0-0.1,0.7-0.2,1.4-0.3c0.7-0.1,1.5-0.2,1.7-0.3c0.2-0.1,0.7-0.2,1.1-0.3
		c1.8-0.4,4.2-1.2,5.8-1.9c0.5-0.2,1-0.4,1.2-0.5c0.4-0.1,2.8-1.7,3.9-2.6c2-1.7,4.4-5.2,4.4-6.6c0-0.3,0.1-0.8,0.2-1.2
		c0.3-0.8,0.3-1.7-0.1-2.1l-0.3-0.4l-37.9,0c-29.5,0-38-0.1-38.2-0.2c-0.1-0.1-0.4-0.6-0.6-1c-0.2-0.4-0.7-1.2-1-1.7
		c-0.7-1-0.8-1.3-0.4-1.3c0.1,0,19.2,0,42.3,0c23.2,0,42.2,0,42.3,0.1c0.1,0.1,0.2,2,0.2,5.9c0,6.5-0.1,6,1.3,6
		c0.4,0,0.9,0.1,0.9,0.2c0.1,0.1,1.2,0.2,2.5,0.2c1.3,0,3.9,0.2,5.8,0.3c6.2,0.4,30.3,0,31.2-0.5c0.2-0.1,0.8-0.2,1.3-0.2
		c1,0,2.1-0.1,4.2-0.5c0.5-0.1,1.6-0.3,2.5-0.4c1.5-0.2,2.3-0.4,4.7-0.9c0.4-0.1,0.8-0.2,1-0.3c0.2-0.1,0.7-0.3,1.2-0.4
		c2-0.4,3.5-0.9,4.5-1.3c0.5-0.2,1.2-0.5,1.8-0.7c2-0.8,3.7-1.8,6.8-4.1c2.3-1.7,3.9-3.7,5.2-6.5c0.3-0.7,0.7-1.3,0.8-1.3
		c0.1,0,0.2-0.8,0.2-2.3v-2.3l-85.3,0l-85.3,0l-1.7-0.8c-1.9-0.9-5.7-2.3-7.1-2.5c-0.5-0.1-1-0.2-1.2-0.4
		C207.2,8.4,193.1,8.3,193,8.7 M204.1,13.6c1,0.1,2.1,0.3,2.5,0.4c0.4,0.1,0.8,0.3,1,0.3c2.9,0.1,9.8,4.5,13.4,8.5
		c2.2,2.5,2.3,2.5,3.9,7c0.9,2.5,1,11.1,0.1,12.2c-0.1,0.1-0.3,0.7-0.5,1.3c-0.5,1.4-1.5,3.4-2.3,4.4c-0.3,0.4-0.9,1.1-1.1,1.5
		c-0.7,1-3.5,3.6-4.9,4.6c-2,1.4-6.3,3.4-7.1,3.4c-0.2,0-0.8,0.2-1.5,0.4c-0.7,0.2-1.6,0.4-2.1,0.4c-0.5,0-1.1,0.1-1.4,0.2
		c-0.5,0.3-7.5,0.3-7.6,0.1c-0.1-0.1-0.6-0.2-1.2-0.3c-0.6-0.1-1.7-0.3-2.5-0.5s-1.7-0.5-2.2-0.7c-4.3-1.2-9.5-5.1-12-8.9
		c-1.1-1.7-2.3-3.8-2.3-4.2c0-0.1-0.1-0.3-0.1-0.5c-0.3-0.6-0.6-1.5-0.7-2.3c-0.1-0.5-0.2-1.1-0.4-1.3c-0.3-0.7-0.2-6.9,0-7.1
		c0.1-0.1,0.2-0.4,0.2-0.7c0-0.3,0.2-1.2,0.5-2.1c0.5-1.5,0.6-1.8,1.4-3.4c0.9-2,4.9-6.4,7.4-8c2.6-1.8,4.4-2.7,6.4-3.4
		c1.5-0.5,2-0.7,4.2-1.1c0.4-0.1,1.3-0.2,1.9-0.2c0.6,0,1.3-0.1,1.4-0.2C198.6,13.3,201.2,13.4,204.1,13.6 M197.6,17.2
		c-0.2,0.1-0.6,0.2-1,0.2c-0.4,0-0.9,0.1-1.1,0.2c-0.2,0.1-0.5,0.2-0.7,0.2c-0.5,0-2.4,0.5-3.3,0.9c-0.5,0.2-1.1,0.5-1.3,0.6
		c-1.1,0.5-3.8,2.3-5.4,3.8c-2.7,2.4-5,6.8-5.5,10.2c-0.1,0.6-0.2,1.6-0.3,2.2c-0.1,0.8-0.1,1.3,0.1,1.8c0.1,0.4,0.2,1,0.2,1.5
		c0,0.8,0.1,1.3,0.7,2.9c1.7,4.6,6.2,9.5,10.3,11.2c0.4,0.2,1.1,0.5,1.6,0.7c0.5,0.2,1.1,0.4,1.3,0.4c0.2,0,0.4,0.1,0.5,0.1
		c1.3,1.3,12.3,1.3,13.6,0c0.1-0.1,0.3-0.1,0.5-0.1c0.2,0,0.6-0.1,0.8-0.2c0.2-0.1,1.2-0.6,2.1-1c3.1-1.5,4.6-2.7,7.4-5.8
		c0.9-1.1,2.4-3.5,2.8-4.6c0.1-0.4,0.3-1,0.5-1.3c0.1-0.3,0.2-1.2,0.3-2s0.2-1.7,0.3-2.1c0.2-0.7,0.2-1.9-0.1-2
		c-0.1,0-0.1-0.5-0.1-0.9c0-6.5-7.5-14.6-14.8-16c-0.6-0.1-1.2-0.3-1.3-0.4c-0.1-0.1-0.5-0.1-1-0.1c-0.5,0-0.9-0.1-1-0.2
		C203.3,17.1,198,16.9,197.6,17.2 M178.9,59.7c-0.1,0.1-0.4,0.3-0.7,0.5c-0.3,0.2-1.1,0.5-1.6,0.9c-0.5,0.3-1.5,0.8-2.1,1.2
		c-2.3,1.2-2.9,1.6-3.1,1.7c-0.1,0.1-1,0.6-2.1,1.1c-1.1,0.5-2.1,1.1-2.4,1.3c-0.3,0.2-0.6,0.4-0.6,0.4s-0.5,0.2-1,0.5
		c-0.5,0.3-1.6,0.9-2.5,1.4c-1.7,0.9-3.2,1.7-3.5,1.9c-0.1,0.1-0.7,0.4-1.3,0.8c-1.5,0.8-1.8,1-2.8,1.5c-0.4,0.2-1.4,0.8-2.2,1.2
		c-0.8,0.4-1.9,1-2.5,1.3c-1.6,0.8-3.2,1.7-3.8,2c-0.3,0.1-1,0.5-1.6,0.9c-0.6,0.3-1.8,1-2.6,1.4c-0.8,0.4-1.8,1-2.2,1.3
		c-0.4,0.3-0.8,0.5-0.8,0.5c-0.1,0-0.3,0.1-0.5,0.3c-0.2,0.2-1.6,0.9-2.9,1.6c-4.2,2.2-4.1,2.1-4.1,2.6c0,0.6,3.1,2.4,4.6,2.7
		c0.4,0.1,1.2,0.3,1.8,0.5c1.3,0.5,6,0.6,7,0.2c0.3-0.1,0.7-0.2,0.9-0.2c0.2,0,0.6-0.1,0.8-0.2c0.3-0.1,0.6-0.2,0.8-0.2
		c0.7,0,2.5-0.6,3-1l0.5-0.4l-0.9-1.5c-0.5-0.8-1.1-1.9-1.4-2.3c-0.7-1-0.7-1.3-0.1-1.6c0.3-0.1,0.6-0.3,0.7-0.4
		c0.1-0.1,0.7-0.5,1.3-0.8c0.6-0.3,1.5-0.8,2-1.1c0.5-0.3,1.2-0.7,1.6-0.9c0.4-0.2,1.1-0.6,1.5-0.9c0.5-0.3,2-1.1,3.4-1.8
		c2.7-1.4,3.4-1.8,7-3.8c1.2-0.7,2.8-1.6,3.5-1.9c1.6-0.9,2.9-1.6,3.1-1.8c0.1-0.1,0.2-0.1,0.4-0.1c0.1,0,1-0.5,2.1-1.1
		c1-0.6,2.9-1.6,4.2-2.3c2.6-1.3,2.6-1.3,1.8-2.6C179.9,59.7,179.3,59.1,178.9,59.7 M225.1,60.5c-1.7,2.4-1.9,2.9-1.2,3.3
		c0.2,0.1,0.5,0.3,0.6,0.4c0.1,0.1,0.8,0.5,1.6,0.9c0.7,0.4,2.3,1.3,3.5,1.9c1.2,0.7,3.2,1.7,4.5,2.4c1.3,0.7,2.5,1.3,2.8,1.5
		c0.8,0.5,4.2,2.5,4.4,2.5c0.1,0,0.4,0.1,0.6,0.3c0.2,0.2,1.3,0.8,2.4,1.3c1.1,0.5,3,1.6,4.2,2.3c1.3,0.7,2.3,1.3,2.4,1.3
		c0,0,0.6,0.3,1.3,0.7c0.7,0.4,1.7,1,2.3,1.2c1.5,0.7,2.4,1.3,2.5,1.5c0.1,0.2-1.8,3.7-2.5,4.5c-0.3,0.4-0.3,0.8,0.1,1.1
		c0.5,0.3,2.4,0.9,2.9,0.9c0.2,0,0.6,0.1,0.8,0.3c0.3,0.1,0.7,0.2,0.9,0.2c0.3,0,0.6,0.1,0.8,0.2c0.4,0.3,6,0.3,6.5,0
		c0.2-0.2,1.1-0.4,2.4-0.8c0.8-0.2,2.9-1.2,3.9-1.9c1.3-0.9,1.2-0.9-4-3.7c-0.8-0.4-1.9-1.1-2.4-1.4c-0.5-0.3-1.5-0.9-2.2-1.2
		c-0.7-0.4-1.5-0.8-1.8-1c-0.5-0.3-1.3-0.7-3.3-1.8c-0.8-0.4-1.2-0.7-2.2-1.2c-0.5-0.3-1.8-1-2.7-1.5c-1-0.5-2.2-1.2-2.8-1.5
		c-0.6-0.3-1.4-0.8-1.9-1c-0.5-0.3-1.7-0.9-2.6-1.5c-0.9-0.6-2.7-1.6-4-2.3c-1.3-0.7-2.7-1.4-3.1-1.7c-0.5-0.3-1.4-0.8-2.1-1.2
		c-0.7-0.4-2.2-1.2-3.4-1.8c-3.5-1.8-4.8-2.6-7-3.8C225.8,59.3,226,59.3,225.1,60.5 M183.8,63.4c-0.3,0.3-0.4,24.3-0.2,35.2l0.1,5
		h0.9c0.6,0,0.9-0.1,0.9-0.2c0-0.2,0.9-0.8,1.2-0.8c0.1,0,0.4-0.2,0.7-0.4c0.3-0.2,0.7-0.5,1-0.6c1.3-0.7,3.2-2.9,4.3-5l0.6-1.2
		l0.1-14.4c0-7.9,0-14.6,0-14.8c-0.1-0.5-1-0.9-2-1c-1.7-0.2-4.8-1-5.2-1.3c-0.1-0.1-0.2-0.1-0.4-0.1c-0.2,0-0.5-0.1-0.8-0.2
		C184.3,63.1,184.1,63.1,183.8,63.4 M216.8,63.3c-0.6,0.3-3.4,1.2-4.9,1.4c-0.8,0.1-1.8,0.3-2.2,0.4c-0.4,0.1-0.9,0.2-1.1,0.4
		l-0.4,0.3v14.8c0,16.1-0.1,14.8,1,16.8c1,1.9,3.6,4.3,5.8,5.3c0.5,0.2,1,0.5,1.1,0.7c0.1,0.2,0.3,0.3,1,0.3h0.9V83.6
		c0-15.4,0-20.1-0.2-20.2C217.4,63.1,217.2,63.1,216.8,63.3 M196,65.9c-0.4,0.1-0.3,28,0.1,28.2c0.4,0.1,0.8-0.1,2.4-1.4
		c2.2-1.8,2-1.8,4.8,0.6c2.1,1.8,1.9,3.2,2-13.1c0-11.9,0-14.1-0.2-14.2c-0.2-0.2-1.7,0-3.2,0.5c-0.7,0.2-2.5,0.2-3.1,0
		C196.5,65.8,196.4,65.8,196,65.9"/>
	<path id="path1" class="st0" d="M191.3,8.7c-0.1,0.1-0.5,0.2-0.8,0.2c-0.3,0-0.6,0.1-0.6,0.2c-0.1,0.1-0.3,0.2-0.6,0.2
		c-0.3,0-0.5,0.1-0.6,0.2c-0.1,0.1-0.3,0.2-0.5,0.2c-0.2,0-0.4,0.1-0.4,0.2c0,0.1-0.2,0.2-0.5,0.2c-0.5,0-0.8,0.2-0.5,0.4
		c0.1,0.1,0.6-0.1,1-0.3c1.4-0.5,2.7-1,3-1c0.4,0,1.1-0.4,1.1-0.5C192,8.5,191.6,8.5,191.3,8.7 M208.7,8.7c0,0.1,0.2,0.2,0.5,0.3
		c3.5,1,5,1.6,7,2.6l1.5,0.7l40.3,0c103.8,0,130.2,0,130.2-0.2c0-0.1-28.5-0.2-85.2-0.2c-85.5,0-85.8,0-86.3-0.5
		c-0.1-0.2-1.2-0.7-1.4-0.7c-0.1,0-0.3-0.1-0.3-0.2c-0.1-0.1-0.3-0.2-0.6-0.2c-0.3,0-0.5-0.1-0.5-0.2c0-0.1-0.2-0.2-0.4-0.2
		c-0.2,0-0.5-0.1-0.5-0.2c-0.1-0.1-0.3-0.2-0.6-0.2c-0.3,0-0.5-0.1-0.5-0.2c0-0.2-0.2-0.2-0.6-0.2c-0.3,0-0.6-0.1-0.7-0.2
		c-0.1-0.1-0.4-0.2-0.8-0.2c-0.4,0-0.7-0.1-0.7-0.2c0-0.1-0.1-0.2-0.3-0.2S208.7,8.6,208.7,8.7 M185.9,10.5c-0.1,0.1-0.1,0.2,0,0.3
		c0.1,0.1,0.6-0.1,0.6-0.3C186.5,10.3,186,10.3,185.9,10.5 M185,11.1c0,0.2,0,0.2,0.3,0c0.2-0.1,0.3-0.2,0.4-0.3c0,0-0.1,0-0.3,0
		C185.1,10.8,185,10.9,185,11.1 M184.1,11.4c-0.4,0.6,2.2,0.6-86.4,0.6c-68.3,0-85.5,0-85.5,0.2c0,0.2,17.2,0.2,85.5,0.2l85.5,0
		l0.9-0.5c0.5-0.3,0.9-0.5,0.9-0.6C184.8,11.1,184.2,11.2,184.1,11.4 M198.3,13.7c-0.2,0.1-0.9,0.2-1.5,0.2c-1.3,0-4.2,0.4-4.7,0.7
		c-0.2,0.1-0.7,0.3-1.2,0.4c-0.9,0.3-2.6,1-2.8,1.2c0,0.1-0.5,0.3-1,0.6c-3.7,2-8.3,6.3-9.8,9.3c-1.1,2.3-2,4.7-1.9,5.5
		c0,0.3-0.1,0.7-0.2,0.9c-0.3,0.5-0.4,6.5,0,7.1c0.1,0.2,0.2,0.6,0.2,0.8c-0.1,0.3,0.2,1.4,0.5,1.7c0.1,0.1,0.1,0.3,0.1,0.5
		c0,0.5,1.1,2.9,1.8,4c0.3,0.5,0.8,1.2,1,1.6c0.6,1,3.5,3.9,5.1,5c0.8,0.5,1.4,1,1.5,1.1c0.1,0.1,1.2,0.7,3.3,1.7
		c1.3,0.6,1.5,0.7,2.3,0.8c0.4,0.1,1.1,0.3,1.7,0.5c0.6,0.2,1.5,0.4,2.2,0.4c0.6,0.1,1.3,0.2,1.5,0.3c0.6,0.3,7,0.3,7.5,0
		c0.2-0.1,0.7-0.2,1.1-0.3c0.9,0,3.3-0.6,3.6-0.8c0.1-0.1,0.4-0.2,0.6-0.2c0.4,0,1.4-0.3,2-0.7c0.2-0.1,0.6-0.3,1.1-0.4
		c0.4-0.1,0.8-0.3,0.9-0.4c0-0.1,0.3-0.2,0.7-0.4c1.8-0.7,6.8-5,7.5-6.5c0.2-0.3,0.4-0.6,0.4-0.7c0.5-0.2,1.9-2.7,2.4-4.3
		c0.2-0.6,0.4-1.2,0.6-1.4c0.3-0.5,0.8-4.2,0.8-6c0-1.7-0.2-3.5-0.2-3.8c0-0.1-0.1-0.6-0.2-1c-0.1-0.8-1.2-4-1.7-5
		c-0.5-0.9-2.4-3.4-3.7-4.7c-1.5-1.5-4.1-3.5-5.6-4.3c-0.5-0.3-1.1-0.6-1.3-0.8c-0.2-0.1-0.3-0.2-0.3-0.1c0,0.1-0.1,0.1-0.1,0
		c-0.1-0.1-0.3-0.2-0.5-0.3c-0.6-0.2-0.3,0.2,0.4,0.5c0.3,0.2,0.8,0.5,1,0.7c0.2,0.2,0.5,0.4,0.6,0.4c0.2,0,0.9,0.3,1.1,0.6
		c0.1,0.1,0.5,0.4,0.8,0.7c0.4,0.3,0.8,0.6,1,0.8c0.2,0.2,0.4,0.3,0.5,0.3s0.2,0.1,0.2,0.2c0,0.1,0.1,0.2,0.2,0.2s0.4,0.2,0.6,0.4
		c0.2,0.2,0.4,0.4,0.5,0.4c0.1,0,0.4,0.3,1.1,1.1c0.2,0.3,0.6,0.8,0.9,1.1c0.8,0.8,1.3,1.4,1.3,1.6c0,0.1,0.2,0.3,0.4,0.5
		c0.2,0.2,0.4,0.5,0.4,0.6c0,0.1,0.1,0.4,0.1,0.5c0.1,0.2,0.2,0.6,0.4,1c0.1,0.4,0.3,0.8,0.4,0.8c0.1,0,0.2,0.3,0.2,0.6
		c0,0.3,0.2,0.9,0.4,1.4c0.8,1.7,0.9,9.2,0.2,10.3c-0.1,0.2-0.2,0.4-0.2,0.5c0.1,0,0,0.2-0.2,0.4c-0.1,0.2-0.2,0.6-0.2,0.9
		c0,0.3-0.1,0.6-0.2,0.6c-0.1,0.1-0.2,0.2-0.2,0.4s-0.1,0.4-0.2,0.4s-0.2,0.2-0.2,0.4c0,0.3-1.3,2.5-1.6,2.8c-0.1,0.1-0.5,0.6-0.8,1
		c-0.7,1.1-1.8,2.2-3.1,3.3c-0.6,0.5-1,0.9-1,0.9c0,0.1-0.1,0.1-0.3,0.1c-0.1,0-0.2,0.1-0.2,0.2s-0.1,0.2-0.2,0.2
		c-0.1,0-0.4,0.1-0.6,0.3c-0.6,0.6-1,0.9-1.3,0.9c-0.1,0-0.3,0.1-0.3,0.2c-0.1,0.1-0.2,0.2-0.4,0.2s-0.4,0.1-0.4,0.2
		c-0.1,0.1-0.2,0.2-0.4,0.2s-0.3,0.1-0.4,0.2c-0.1,0.1-0.2,0.2-0.4,0.2c-0.3,0-2.9,0.8-3.3,1c-0.2,0.1-0.4,0.2-0.6,0.2
		c-0.1,0-0.8,0.2-1.5,0.4c-0.7,0.2-1.6,0.4-2,0.4s-0.8,0.1-0.8,0.2c-0.1,0.2-7.1,0.2-7.1,0c0-0.1-0.6-0.2-1.2-0.2
		c-0.7-0.1-1.4-0.2-1.6-0.3c-0.8-0.4-1-0.5-1.4-0.5c-0.2,0-0.5-0.1-0.5-0.2c-0.1-0.1-0.5-0.2-0.9-0.3c-0.4-0.1-0.8-0.2-0.9-0.3
		c-0.1-0.1-0.3-0.2-0.5-0.2c-0.2,0-0.4-0.1-0.5-0.2c-0.1-0.1-0.3-0.2-0.5-0.2c-0.2,0-0.4-0.1-0.5-0.2c-0.1-0.1-0.2-0.2-0.4-0.2
		s-0.3-0.1-0.3-0.2s-0.2-0.2-0.4-0.2c-0.2,0-0.4-0.1-0.4-0.2c0-0.1-0.2-0.2-0.4-0.3c-0.4-0.1-0.6-0.3-1.6-1.1
		c-0.2-0.2-0.5-0.4-0.6-0.4c-0.1,0-0.3-0.1-0.4-0.3c-0.1-0.2-0.6-0.5-0.9-0.8c-1-0.8-3.1-2.8-3.1-3c0-0.1-0.4-0.8-1-1.6
		c-0.6-0.8-1-1.6-1-1.7c0-0.1-0.1-0.3-0.2-0.4c-0.1-0.1-0.2-0.3-0.2-0.5c0-0.2-0.1-0.3-0.2-0.3c-0.1,0-0.2-0.2-0.2-0.5
		c0-0.3-0.1-0.5-0.2-0.6c-0.1-0.1-0.2-0.3-0.2-0.5c0-0.2-0.1-0.6-0.2-0.7c-0.6-0.7-1-5.1-0.7-7.7c0.2-2,0.5-3.8,0.7-3.9
		c0.1-0.1,0.2-0.4,0.2-0.6c0-0.3,0.1-0.5,0.2-0.5s0.2-0.2,0.2-0.5c0-0.3,0.1-0.5,0.2-0.6c0.1-0.1,0.2-0.3,0.2-0.5
		c0-0.2,0.1-0.4,0.2-0.5c0.1-0.1,0.3-0.2,0.3-0.4c0-0.7,1.6-2.8,3.8-5c2.5-2.5,2.4-2.4,2.7-2.4c0.1,0,0.2-0.1,0.3-0.2
		c0.1-0.1,0.3-0.3,0.6-0.4c0.3-0.1,0.5-0.3,0.5-0.4c0-0.1,0.1-0.2,0.2-0.2c0.2,0,1.3-0.5,1.7-0.9c0.7-0.6,2.6-1.5,3.1-1.5
		c0.2,0,0.4-0.1,0.5-0.2c0.1-0.2,1.1-0.5,2.3-0.7c5-0.8,7.8-1,8.8-0.8c0.2,0.1,0.9,0.1,1.6,0.2c0.6,0,1.5,0.2,1.9,0.3
		c0.4,0.1,1.2,0.2,1.7,0.3c0.5,0.1,1.3,0.3,1.7,0.4c1.3,0.5,2.4,0.8,2.5,0.7c0,0-0.1-0.1-0.4-0.2c-0.3-0.1-0.5-0.2-0.6-0.2
		c-0.1-0.1-3-1.1-4.1-1.3C203.9,13.7,198.9,13.4,198.3,13.7 M196.8,16.7c-0.6,0.1-1.4,0.3-2,0.5c-0.5,0.2-1.1,0.4-1.3,0.4
		c-0.5,0-1.8,0.5-1.8,0.7c0,0.1-0.2,0.1-0.4,0.1s-0.4,0.1-0.4,0.2s-0.2,0.2-0.5,0.2c-0.3,0-0.5,0.1-0.5,0.2s-0.2,0.2-0.4,0.3
		c-0.2,0.1-0.4,0.2-0.4,0.2c0,0.1-0.3,0.3-0.6,0.4c-0.3,0.2-0.6,0.3-0.6,0.4c0,0.1-0.1,0.2-0.3,0.2c-0.1,0-0.4,0.2-0.7,0.4
		c-0.2,0.2-0.7,0.6-1.1,0.8c-0.4,0.2-0.7,0.5-0.7,0.6c0,0.1-0.1,0.2-0.2,0.2c-0.2,0-2.5,2.4-2.5,2.6c0,0.1-0.2,0.4-0.5,0.7
		c-0.5,0.5-1.5,2.3-1.5,2.6c0,0.4,0.3,0,0.6-0.7c1.1-2.5,5.4-6.6,8.6-8.2c2-1,2.2-1,4.9-1.8c2.4-0.7,7.8-1,8.9-0.5
		c0.3,0.1,0.9,0.3,1.3,0.3c0.4,0,0.8,0.1,0.9,0.1c0.1,0.1,0.5,0.2,0.8,0.2c1.3,0.2,3.4,0.9,5.1,1.9c0.3,0.1,0.6,0.3,0.8,0.5
		c1.3,0.7,2.2,1.4,4.2,3.4c2.9,2.9,4.8,6.4,5,9.7c0.1,0.8,0.2,1.6,0.3,1.7c0.3,0.4,0.3,1.6,0,2.1c-0.1,0.2-0.2,0.9-0.2,1.6
		c-0.1,2.4-1.5,5.8-3.2,7.8c-0.4,0.4-1,1.2-1.5,1.8c-1,1.2-2.2,2.3-2.7,2.5c-0.2,0.1-0.4,0.2-0.4,0.3c0,0.2-4.5,2.7-4.9,2.7
		c-0.1,0-0.3,0.1-0.4,0.2c-0.1,0.1-0.4,0.2-0.7,0.2c-0.3,0-0.6,0-0.6,0.1c-1.2,1.2-10.2,1.4-13.2,0.3c-0.6-0.2-1.3-0.4-1.5-0.4
		c-0.2,0-0.4-0.1-0.5-0.2c-0.1-0.1-0.5-0.3-0.9-0.4c-2-0.6-5-2.7-7-4.8c-1.6-1.8-3.3-4-3.3-4.4c0-0.2-0.1-0.3-0.2-0.4
		c-0.3-0.2-1.2-2.6-1.5-3.9c-0.1-0.5-0.3-0.9-0.3-0.9c-0.2,0-0.1,1,0.1,1.2c0.1,0.1,0.2,0.5,0.2,0.8c0,0.3,0.1,0.6,0.2,0.7
		s0.2,0.3,0.2,0.5c0,0.2,0.1,0.5,0.2,0.6s0.4,0.6,0.5,1.1c0.2,0.4,0.5,1.1,0.8,1.5c0.3,0.4,0.5,0.7,0.5,0.7c0,0.2,0.9,1.1,2.8,3.1
		c1.5,1.5,3.4,3.1,4.3,3.4c0.2,0.1,0.3,0.2,0.3,0.3c0,0.1,0.1,0.2,0.2,0.2c0.1,0,0.7,0.2,1.2,0.5c1.7,0.8,2.6,1.2,2.9,1.2
		c0.2,0,0.3,0.1,0.4,0.2c0.1,0.1,0.3,0.2,0.6,0.2c0.3,0,0.5,0.1,0.6,0.2c0.1,0.1,0.9,0.2,1.8,0.2c1.3,0,1.8,0.1,1.9,0.2
		c0.3,0.4,3.4,0.4,3.7,0c0.2-0.2,0.7-0.2,1.9-0.2c0.9,0,1.7-0.1,1.8-0.2c0.1-0.1,0.3-0.2,0.6-0.2c0.3,0,0.5-0.1,0.6-0.1
		c0.1-0.1,0.7-0.3,1.4-0.5c0.7-0.2,1.4-0.5,1.6-0.7c0.2-0.2,0.5-0.3,0.6-0.3s0.5-0.2,0.8-0.4c0.3-0.2,0.6-0.4,0.7-0.4
		c0.3,0,1.2-0.6,1.8-1.1c0.3-0.2,0.5-0.4,0.6-0.4c0.2,0,4-3.8,4-4.1c0-0.1,0.2-0.3,0.4-0.4c0.2-0.2,0.4-0.4,0.4-0.5s0.2-0.4,0.4-0.7
		c0.5-0.7,0.8-1.3,0.8-1.5c0-0.1,0.1-0.3,0.2-0.3c0.1-0.1,0.2-0.2,0.2-0.4s0.1-0.4,0.2-0.4c0.1-0.1,0.2-0.3,0.2-0.4
		c0-0.2,0.1-0.5,0.2-0.8c0.1-0.3,0.3-0.7,0.3-0.9c0-0.2,0.1-0.5,0.2-0.6c0.1-0.1,0.1-0.7,0.1-1.4c0-0.7,0.1-1.4,0.2-1.5
		c0.1-0.1,0.1-0.6,0.1-1.2c-0.3-3-0.4-3.9-0.7-4.6c-0.2-0.4-0.3-1-0.4-1.2c0-0.3-0.2-0.5-0.2-0.6c-0.1,0-0.1-0.2-0.1-0.4
		c0-0.2-0.1-0.3-0.2-0.4c-0.1-0.1-0.2-0.2-0.2-0.4c0-0.3-0.4-1-0.6-1.1c-0.1-0.1-0.2-0.3-0.2-0.4c0-0.2-0.2-0.6-0.5-0.9
		c-0.3-0.4-0.6-0.9-0.8-1.1c-0.1-0.3-0.3-0.5-0.5-0.5c-0.1,0-0.2-0.1-0.2-0.2c0-0.2-2.1-2.2-2.9-2.8c-0.3-0.2-0.6-0.5-0.6-0.5
		c0-0.1-0.3-0.2-0.6-0.3s-0.6-0.3-0.6-0.4c0-0.2-0.8-0.6-1.1-0.6c-0.1,0-0.2-0.1-0.2-0.2c0-0.2-1-0.7-1.4-0.7
		c-0.2,0-0.3-0.1-0.3-0.2s-0.2-0.2-0.4-0.2c-0.2,0-0.4-0.1-0.5-0.2c-0.1-0.2-1.1-0.6-2.4-0.7c-0.5-0.1-0.9-0.2-0.9-0.3
		C205.7,16.7,199.1,16.4,196.8,16.7 M12.2,17.1c0,0.2,0.9,1.9,1,1.9c0.1,0,0.1,0.1,0.1,0.3c0,0.2,0,0.4,0.2,0.5
		c0.1,0.1,0.3,0.3,0.3,0.5c0,0.2,1.6,2.4,1.9,2.5c0.1,0,0.1,0.1,0.1,0.2c0,0.2,1.2,1.5,1.4,1.5c0,0,0.3,0.2,0.6,0.5
		c0.6,0.5,1,0.9,1.5,1.2c0.9,0.5,1.1,0.6,1.5,1c0.2,0.2,0.6,0.5,0.7,0.6c0.2,0.2,0.4,0.3,0.6,0.3c0.1,0,0.2,0.1,0.2,0.1
		c0,0.1,0.2,0.2,0.5,0.3s0.8,0.4,1.2,0.6c0.4,0.2,0.9,0.4,1.1,0.4c0.2,0,0.5,0.1,0.6,0.2c0.1,0.1,0.4,0.2,0.6,0.2
		c0.2,0,0.4,0.1,0.4,0.2c0.1,0.1,0.3,0.2,0.5,0.2c0.2,0,0.5,0.1,0.6,0.2c0.1,0.1,0.5,0.2,0.8,0.2c0.3,0,0.6,0.1,0.6,0.2
		s0.3,0.2,0.7,0.2c0.4,0,1,0.2,1.4,0.4c0.4,0.2,1,0.4,1.3,0.4c0.3,0,0.6,0.1,0.6,0.2c0,0.1,0.3,0.2,0.6,0.2c0.3,0,0.7,0.1,0.8,0.2
		c0.1,0.2,0.5,0.2,1.2,0.2c0.5,0,1,0.1,1.1,0.2c0.1,0.1,0.5,0.2,0.9,0.2c0.4,0,0.9,0.1,0.9,0.1c0.1,0.2,0.5,0.2,2.9,0.5
		c0.9,0.1,1.9,0.3,2.3,0.3c0.4,0.1,1.2,0.2,1.8,0.2c0.6,0,1.2,0.1,1.3,0.2c0.7,0.7,37.8,0.7,39.1,0c0.2-0.1,0.7-0.2,1.2-0.2
		c1.9,0,1.9-0.2,1.9-7l-0.1-5.1l41.9,0c28.6,0,41.8,0.1,41.6,0.2c-0.2,0.1-0.3,0.3-0.3,0.4c0,0.1-0.2,0.4-0.4,0.6
		c-0.2,0.2-0.4,0.5-0.4,0.7c0,0.2-0.1,0.3-0.2,0.4c-0.2,0.1-0.3,1.1-0.2,1.1c0.1,0,0.1-0.1,0.1-0.3c0-0.2,0.1-0.3,0.2-0.3
		c0.1,0,0.2-0.3,0.3-0.6c0.1-0.3,0.3-0.7,0.4-0.8c0.2-0.2,0.9-1.3,0.9-1.6c0,0-19-0.1-42.2-0.1H88.3v5.8c0,7.1,0.4,6.5-4.8,6.6
		c-1.2,0-3.8,0.1-5.8,0.3c-7.9,0.5-29.5,0.2-31.5-0.4c-0.4-0.1-0.8-0.2-0.9-0.2c-0.2,0.1-5.1-0.5-9.9-1.4c-1.8-0.3-2.3-0.5-2.7-0.7
		c-0.2-0.2-0.6-0.3-0.8-0.3c-0.5,0-1.9-0.4-2.8-0.8c-0.3-0.1-0.7-0.2-0.9-0.2c-0.2,0-0.8-0.2-1.4-0.5c-0.6-0.3-1.3-0.6-1.7-0.7
		c-0.4-0.1-0.8-0.3-0.9-0.4c-0.1-0.1-0.6-0.3-1-0.5c-1.3-0.7-1.6-0.8-2.2-1.3c-0.3-0.2-0.8-0.6-1.1-0.8c-0.9-0.5-2.9-2.2-3.6-2.9
		c-1.1-1.2-2.6-3.3-2.8-4c-0.1-0.2-0.2-0.6-0.4-0.8s-0.4-0.7-0.4-1C12.6,17.2,12.2,16.7,12.2,17.1 M387.9,17.7
		c-0.1,0.1-0.4,0.6-0.6,1.1c-0.6,1.2-1.2,2.3-1.5,2.6c-0.1,0.1-0.4,0.5-0.5,0.7c-0.3,0.6-2.3,2.5-3.5,3.3c-0.5,0.3-1,0.7-1,0.8
		c0,0.2,0.3,0.2,0.6-0.2c0.2-0.2,0.4-0.3,0.5-0.3c0.4,0,3.6-3,3.6-3.4c0-0.1,0.2-0.4,0.4-0.6c0.2-0.2,0.4-0.5,0.4-0.6
		c0-0.1,0.1-0.2,0.2-0.2s0.2-0.2,0.3-0.4c0.1-0.2,0.2-0.4,0.3-0.4s0.1-0.1,0.1-0.3c0-0.2,0.1-0.3,0.2-0.3c0.1,0,0.2-0.1,0.2-0.3
		c0-0.2,0.1-0.4,0.2-0.5s0.3-0.3,0.4-0.6C388.2,17.5,388.1,17.4,387.9,17.7 M227.8,22.3c0.6,0.7,1.1,1.6,1.3,2.2
		c0.4,0.9,1.3,1.8,1.3,1.2c0-0.1-0.1-0.2-0.3-0.2c-0.2,0-0.3-0.1-0.3-0.2c0-0.1-0.1-0.3-0.2-0.4c-0.1-0.1-0.3-0.5-0.4-0.8
		c-0.1-0.3-0.2-0.7-0.3-0.8c-0.1-0.1-0.3-0.4-0.5-0.6l-0.3-0.5h41.9c27.8,0,41.9-0.1,42-0.2c0.1-0.1-14.1-0.2-42.3-0.2h-42.4
		L227.8,22.3 M311.9,27.9c0,2.9,0,4.1,0.1,2.6c0-1.5,0-3.9,0-5.3C311.9,23.8,311.9,25,311.9,27.9 M94.1,25.7
		c-0.7,0.5-0.1,4.6,0.8,5.7c0.1,0.1,0.1,0.3,0.1,0.5c0,0.2,0.1,0.3,0.2,0.4c0.1,0.1,0.2,0.2,0.2,0.4c0,0.2,0.2,0.5,0.5,0.9
		c0.3,0.3,0.8,0.9,1.1,1.3c0.6,0.8,2.7,2.6,3.1,2.6c0.1,0,0.2,0.1,0.2,0.1c0,0.1,0.2,0.2,0.5,0.4s0.5,0.3,0.5,0.4
		c0,0.1,0.3,0.3,0.7,0.5c0.4,0.2,0.8,0.4,0.8,0.5c0,0.1,0.3,0.2,0.5,0.3c0.2,0.1,0.7,0.2,1.1,0.4c1,0.4,1.8,0.7,2.2,0.7
		c0.4,0,1.2,0.4,1.2,0.5c0,0.1,0.4,0.2,0.8,0.2c0.5,0.1,0.9,0.2,0.9,0.3c0,0.1,0.3,0.1,0.6,0.1s0.6,0.1,0.8,0.2
		c0.2,0.2,0.5,0.2,1.4,0.2c0.7,0,1.3,0.1,1.3,0.2c0.1,0.1,1,0.2,2.3,0.2c1.8,0,2.2,0,2.3,0.2c0.1,0.3,1.5,0.4,8.9,0.6
		c6.7,0.2,6.1,0.7,6-5.1l0-4h17.4h17.4l-0.1,1.6c0,1.3,0,1.7,0.2,1.9c0.1,0.1,0.3,0.7,0.3,1.2l0.1,1l-13.2,0c-9.8,0-13.3,0-13.6,0.2
		c-0.4,0.2-0.6,1.7-0.2,1.9c0.1,0.1,0.3,0.4,0.4,0.7s0.3,0.7,0.4,0.7c0.1,0,0.4,0.5,0.7,1c0.3,0.5,0.9,1.2,1.3,1.6s0.7,0.8,0.7,0.8
		c0,0,0.4,0.4,0.9,0.9c0.5,0.4,1.3,1.2,1.8,1.6c0.5,0.5,1.1,1,1.4,1.1c0.3,0.1,0.5,0.3,0.5,0.3c0,0.1,0.1,0.1,0.2,0.1
		c0.4,0,0.3-0.3-0.3-0.5c-2.2-0.9-8.3-8.5-7.8-9.7l0.2-0.4l13.5-0.1l13.5-0.1l0-1c0-0.5-0.1-1.1-0.2-1.3c-0.1-0.2-0.1-1.1-0.1-2.1
		c0-1,0-1.8-0.1-1.8c-0.1,0-8.1,0-17.8,0h-17.7v4.3c0,4.2,0,4.4-0.3,4.6c-0.6,0.5-10.4,0.2-16.2-0.5c-3.6-0.4-4.9-0.6-5.3-0.8
		c-0.2-0.1-0.6-0.2-0.9-0.2c-0.3,0-0.7-0.1-1-0.2s-0.7-0.2-0.9-0.2c-0.2,0-0.5-0.1-0.5-0.1c0-0.1-0.7-0.3-1.6-0.6
		c-0.8-0.3-1.8-0.6-2.3-0.8c-0.5-0.2-1.2-0.5-1.6-0.7c-2.8-1.3-6.1-4.7-7.4-7.5c-0.9-2.1-1.2-4.7-0.6-5.2
		C95.1,25.5,94.7,25.3,94.1,25.7 M236.3,25.7c0.2,0.1,1.7,0.1,3.3,0.1c1.6,0,3.1-0.1,3.3-0.1c0.2-0.1-1.2-0.1-3.3-0.1
		C237.6,25.5,236.1,25.6,236.3,25.7 M248.9,25.7c0.1,0.1,1,0.2,2.2,0.2c1.2,0,2.1-0.1,2.2-0.2c0.1-0.1-0.7-0.2-2.2-0.2
		C249.6,25.5,248.9,25.6,248.9,25.7 M276.2,25.7c0.5,0.2,4.2,0.2,4.3,0c0.1-0.1-0.7-0.2-2.3-0.2C276.8,25.5,276,25.6,276.2,25.7
		 M283.4,25.6c0.1,0.1,1.5,0.2,2,0.1c0.3-0.1,0.1-0.1-0.8-0.1C283.9,25.5,283.3,25.5,283.4,25.6 M289.2,25.7
		c0.1,0.1,2.4,0.2,6.5,0.2s6.4-0.1,6.5-0.2c0.1-0.1-2.1-0.2-6.5-0.2S289.2,25.6,289.2,25.7 M305.8,25.8c0.8,0.5,0.8,0.6,0.7,1.6
		c-0.2,2.2-0.6,3.6-1.4,4.9c-0.1,0.1-0.3,0.5-0.4,0.8c-0.4,0.8-3.1,3.5-4.4,4.3c-0.6,0.4-1.2,0.8-1.2,0.8c-0.5,0.4-1.1,0.7-1.4,0.7
		c-0.2,0-0.6,0.2-1,0.4c-0.4,0.2-1.1,0.5-1.6,0.7c-1.2,0.4-1.5,0.6-0.9,0.6c0.3,0,0.6-0.1,0.6-0.2s0.2-0.2,0.4-0.2
		c0.2,0,0.6-0.2,1-0.4c0.4-0.2,1-0.5,1.3-0.5c0.3-0.1,0.5-0.2,0.5-0.3c0-0.1,0.1-0.2,0.3-0.2c0.2,0,0.6-0.3,1-0.6
		c0.4-0.3,0.7-0.6,0.8-0.6c0.1,0,0.4-0.2,0.6-0.4c0.2-0.2,0.7-0.6,1.1-0.9c1.1-0.9,1.9-1.8,1.9-2.1c0-0.1,0.1-0.2,0.2-0.2
		c0.2,0,0.7-0.4,0.7-0.6c0-0.1,0.2-0.4,0.4-0.7c0.2-0.3,0.4-0.7,0.4-0.8s0.1-0.3,0.1-0.3c0.1,0,0.3-0.3,0.4-0.6
		c0.2-0.3,0.4-0.8,0.5-0.9c0.1-0.2,0.1-0.7,0.1-1.1c0-0.5,0.1-0.9,0.2-1c0.7-0.6,0-2.8-0.9-2.8C305.4,25.5,305.4,25.5,305.8,25.8
		 M379.6,27c-1.1,0.8-1.8,1.2-2.6,1.5c-0.4,0.2-0.7,0.4-0.7,0.5s-0.2,0.2-0.5,0.2s-0.4,0.1-0.5,0.2c-0.1,0.1-0.2,0.2-0.4,0.2
		c-0.2,0-0.7,0.2-1.3,0.5c-0.6,0.3-1.2,0.5-1.4,0.5c-0.2,0-0.6,0.1-0.9,0.2c-0.3,0.1-0.7,0.3-0.9,0.3c-0.2,0,0,0.1,0.4,0
		c1.5-0.2,2-0.3,2.2-0.5c0.1-0.1,0.4-0.2,0.6-0.2c0.2,0,0.4-0.1,0.5-0.2c0.1-0.1,0.3-0.2,0.5-0.2c0.2,0,0.5-0.1,0.5-0.2
		c0.1-0.1,0.2-0.2,0.4-0.2c0.4,0,1.7-0.6,2-0.9c0.1-0.1,0.3-0.2,0.5-0.2c0.2,0,1.8-1.1,2.6-1.9C381,26.1,380.3,26.4,379.6,27
		 M180.2,28.8c-0.1,0.2-0.2,0.4-0.3,0.5c-0.1,0.1-0.2,0.4-0.2,0.5c0,0.2-0.1,0.4-0.2,0.4s-0.2,0.4-0.2,0.8c0,0.5-0.1,0.8-0.2,0.8
		c-0.3,0.1-0.4,1.1-0.1,1.1c0.1,0,0.2-0.1,0.2-0.3c0-0.4,0.5-1.8,1.1-3.4c0.1-0.3,0.2-0.7,0.2-0.7C180.4,28.5,180.3,28.6,180.2,28.8
		 M369.4,31.3c-0.2,0.1-0.6,0.1-0.8,0.2c-0.3,0-0.7,0.1-0.8,0.2c-0.4,0.3-2.3,0.8-3,0.8c-0.3,0-0.8,0.1-1.1,0.2
		c-0.3,0.1-1.1,0.3-1.7,0.3c-0.6,0-1.2,0.1-1.3,0.2c-0.1,0.1-0.5,0.1-1,0.2c-0.4,0-1.3,0.2-1.9,0.3c-1.7,0.3-4,0.5-5.3,0.6
		c-0.7,0-2.6,0.1-4.2,0.2c-10.1,0.6-35,0-36-0.9c-0.3-0.3-0.3-0.3-0.3,0c0,0.4,0.7,0.7,1.7,0.7c0.4,0,0.9,0.1,1.1,0.2
		c1.3,0.7,37.8,0.7,39.1,0c0.2-0.1,0.8-0.2,1.4-0.2c0.6,0,1.3-0.1,1.6-0.2c0.3-0.1,1.2-0.2,2.1-0.3c0.9-0.1,2-0.2,2.5-0.4
		s1.3-0.2,1.7-0.3c0.4,0,0.8-0.2,0.9-0.2c0.1-0.1,0.5-0.2,1-0.2c0.6,0,1-0.1,1.1-0.2c0.1-0.1,0.5-0.2,0.8-0.2s0.5-0.1,0.6-0.2
		c0.1-0.1,0.3-0.2,0.6-0.2s0.7-0.1,0.9-0.2c0.2-0.1,0.5-0.2,0.6-0.2c0.2,0,0.3-0.1,0.3-0.2C370,31.1,369.9,31.1,369.4,31.3
		 M178.7,34c-0.3,0.3-0.3,3.5,0.1,3.9c0.4,0.5,0.5,0.2,0.2-0.5c-0.3-0.8-0.3-1.8,0-2.8C179.1,33.8,179.1,33.7,178.7,34 M245.3,34
		l-13.5,0v2.8c0,2.3,0,2.8-0.3,3.2l-0.3,0.4h13.4c7.4,0,13.5,0,13.7,0.1c0.3,0.1,0.4,1.3,0,1.6c-0.1,0.1-0.2,0.3-0.2,0.4
		c0,1.2-4.5,6.1-7.7,8.3c-1.4,1-5.2,3-5.6,3c-0.1,0-0.4,0.1-0.5,0.2c-0.1,0.1-0.4,0.3-0.6,0.3c-0.2,0-0.8,0.2-1.3,0.4
		c-0.5,0.2-1.2,0.5-1.7,0.6c-1.2,0.2-2.1,0.4-2.8,0.7c-0.4,0.1-1.4,0.4-2.2,0.5c-0.8,0.1-1.7,0.3-1.9,0.4c-0.2,0.1-0.5,0.2-0.7,0.2
		c-0.2,0-1.1,0.1-1.9,0.2c-0.8,0.1-2.7,0.2-4.1,0.3c-1.9,0.1-2.7,0.2-2.8,0.3c-0.2,0.2-0.8,0.2-2.4,0.2c-2,0-2.1,0-2.7,0.4
		c-0.3,0.2-0.9,0.6-1.3,0.8s-1.1,0.6-1.5,0.9c-1.2,0.8-3.1,1.7-4.1,1.9c-0.5,0.1-1.1,0.3-1.3,0.4c-0.2,0.1-0.5,0.2-0.8,0.2
		c-0.3,0-0.7,0.1-0.9,0.2s-0.7,0.2-0.9,0.2c-0.3,0-0.6,0.1-0.7,0.2c-0.6,0.7-13.8,0.7-14.9,0c-0.2-0.1-0.6-0.2-0.9-0.3
		c-0.7-0.1-1.9-0.4-2.7-0.7c-0.3-0.1-1-0.3-1.6-0.5c-0.5-0.2-1.3-0.5-1.7-0.7c-0.4-0.2-0.8-0.4-1-0.4s-0.3-0.1-0.3-0.1
		c0-0.1-0.3-0.3-0.7-0.5c-0.4-0.2-1.3-0.8-2.1-1.3l-1.4-0.9h-2.1c-1.6,0-2.1-0.1-2.4-0.2c-0.2-0.2-0.8-0.2-1.9-0.3
		c-1.7,0-5.8-0.4-7-0.6c-0.4-0.1-1.4-0.3-2.2-0.4c-1.6-0.3-2.3-0.5-3.2-0.7c-1.2-0.4-1.7-0.5-2.1-0.5c-0.3,0-1-0.2-1.6-0.5
		s-1.3-0.5-1.4-0.5c-0.4,0-6.1-2.9-6.2-3.1c0-0.1-0.1-0.2-0.2-0.1c-0.2,0.1-0.2,0.4,0.1,0.4c0.1,0,0.3,0.1,0.4,0.2
		c0.1,0.1,0.6,0.4,1.1,0.7c0.5,0.2,1,0.5,1,0.6c0,0.1,0.2,0.2,0.4,0.2s0.4,0.1,0.4,0.2c0,0.1,0.1,0.2,0.3,0.2c0.2,0,0.4,0.1,0.6,0.2
		c0.1,0.1,0.3,0.2,0.4,0.2s0.4,0.1,0.8,0.3c0.4,0.2,0.9,0.4,1.1,0.4s0.5,0.2,0.5,0.3c0.1,0.1,0.3,0.1,0.5,0.1c0.2,0,0.4,0.1,0.5,0.2
		c0.1,0.1,0.5,0.2,1.1,0.2c0.8,0,1,0.1,1,0.2c0,0.2,0.2,0.2,0.7,0.2c0.4,0,0.8,0.1,0.8,0.2c0.1,0.1,0.3,0.2,0.6,0.2
		c0.3,0,0.6,0.1,0.8,0.2c0.1,0.1,0.5,0.2,0.8,0.2s0.6,0.1,0.7,0.2c0.1,0.1,0.5,0.2,1,0.2c0.5,0,0.9,0.1,0.9,0.2
		c0,0.1,0.7,0.2,1.6,0.2c1.3,0,1.7,0.1,1.7,0.2c0.1,0.2,0.6,0.2,2.8,0.2c1.8,0,2.8,0.1,2.9,0.2c0.1,0.1,0.9,0.2,2.3,0.2
		c2,0,2.1,0,2.7,0.4c0.3,0.2,0.7,0.4,0.8,0.4c0.1,0,0.4,0.2,0.6,0.3c0.3,0.3,1.2,0.8,1.5,0.8c0.1,0,0.2,0.1,0.3,0.2
		c0.3,0.4,2.8,1.6,3.2,1.6c0.2,0,0.4,0.1,0.5,0.2c0.1,0.1,0.3,0.2,0.6,0.2c0.3,0,0.5,0.1,0.6,0.2c0.1,0.1,0.4,0.2,0.7,0.2
		c0.3,0,0.8,0.1,1,0.2c1.2,0.6,1.7,0.7,4,0.9c0.9,0.1,1.8,0.2,2.1,0.3c0.7,0.3,7.3,0.2,7.6-0.1c0.1-0.1,0.7-0.2,1.5-0.2
		c1.4,0,2.9-0.3,3.6-0.8c0.2-0.2,0.8-0.3,1.3-0.4s1.1-0.2,1.4-0.2s0.7-0.2,0.8-0.3c0.1-0.1,0.3-0.2,0.5-0.2c0.2,0,0.5-0.1,1.3-0.5
		c0.3-0.1,0.8-0.4,1.2-0.6c0.4-0.2,1-0.5,1.3-0.8c0.4-0.2,0.8-0.5,0.9-0.5c0.1-0.1,0.5-0.3,0.8-0.5c0.3-0.2,0.6-0.4,0.7-0.4
		c0.1,0,0.2-0.1,0.3-0.2c0.1-0.2,0.5-0.2,2.4-0.2c1.4,0,2.3-0.1,2.3-0.2c0-0.1,1.1-0.2,2.8-0.2c2.4,0,2.9,0,2.9-0.2
		c0.1-0.2,0.4-0.2,1.7-0.2c0.9,0,1.7-0.1,1.8-0.2c0.1-0.1,0.5-0.2,1-0.2c1.3-0.1,2-0.3,2.3-0.5c0.2-0.1,0.6-0.2,0.9-0.2
		c0.3,0,0.5-0.1,0.5-0.2s0.3-0.2,0.6-0.2c0.4,0,0.7-0.1,0.7-0.2c0.1-0.2,0.4-0.2,1-0.2c0.5,0,1-0.1,1-0.2c0.1-0.1,0.2-0.2,0.4-0.2
		c0.2,0,0.5-0.1,0.8-0.2s0.6-0.2,0.8-0.2s0.3-0.1,0.4-0.2c0.1-0.1,0.2-0.2,0.3-0.2c0.1,0,0.9-0.3,1.7-0.7c2.1-1,2.1-1,2.1-1.2
		c0-0.1,0.2-0.1,0.3-0.1c0.2,0,0.4-0.1,0.5-0.2c0.9-0.8,1.3-1,1.4-1c0.1,0,0.2-0.1,0.3-0.2c0.1-0.1,0.2-0.2,0.4-0.2
		c0.1,0,0.9-0.6,1.7-1.4s1.5-1.4,1.6-1.4c0.1,0,1.4-1.3,1.9-2c0.2-0.2,0.4-0.6,0.6-0.7c0.3-0.3,0.6-0.8,1-1.5
		c0.1-0.3,0.3-0.5,0.4-0.5c0.1,0,0.2-0.1,0.2-0.3s0.1-0.4,0.2-0.5c0.2-0.2,0.2-1.7,0-2c-0.2-0.2-1.9-0.3-13.6-0.3
		c-7.3,0-13.3-0.1-13.1-0.1c0.2-0.1,0.2-0.8,0.2-2.8v-2.7l17.5,0l17.5,0l0,4.1c0,3.6,0.1,4.1,0.3,4.6l0.3,0.5h5.1
		c3.2,0,5.2-0.1,5.2-0.2c0.1-0.1,0.9-0.2,2-0.2c1.5,0,2-0.1,2.1-0.2c0.2-0.2,0.7-0.2,2.3-0.2c1.2,0,2-0.1,2.1-0.2
		c0.1-0.1,0.7-0.2,1.4-0.2c0.8,0,1.3-0.1,1.4-0.2c0-0.1,0.4-0.2,0.8-0.3c1.5-0.3,2.4-0.5,2.9-0.9c0.5-0.3,0.5-0.3,0.1-0.2
		c-0.2,0.1-0.8,0.2-1.2,0.3c-0.4,0.1-0.8,0.2-0.8,0.3c-0.1,0.1-0.3,0.2-2.8,0.5c-0.7,0.1-1.6,0.2-1.8,0.3c-0.3,0.1-1.4,0.2-2.4,0.3
		c-1.1,0.1-2,0.2-2.1,0.2c-0.4,0.3-13.7,0.6-14.1,0.3c-0.3-0.2-0.3-0.6-0.3-4.6l0-4.4h-4.4C260.7,33.9,252.7,33.9,245.3,34
		 M178.8,59c-0.2,0.1-0.3,0.3-0.3,0.4c0,0.3,0.3,0.3,0.4,0.1c0.3-0.5,0.9-0.2,1.5,0.8c0.3,0.5,0.7,0.9,0.7,0.9
		c0.1,0,0.2,0.2,0.3,0.5s0.4,0.8,0.6,1c0.5,0.7,0.2,1.1-1.8,2c-0.8,0.4-1,0.6-0.6,0.6c0.1,0,0.3-0.1,0.4-0.2
		c0.1-0.1,0.4-0.2,0.6-0.2s0.5-0.1,0.6-0.2c0.1-0.1,0.4-0.3,0.7-0.4c0.7-0.3,0.7-1.4,0.1-2c-0.2-0.2-0.5-0.7-0.7-1
		c-0.2-0.3-0.4-0.6-0.4-0.6c-0.1,0-0.2-0.1-0.2-0.3C180.5,59.3,179.4,58.7,178.8,59 M225.5,59.1c-0.8,0.9-1.4,1.7-2,2.8
		c-0.2,0.3-0.3,0.5-0.4,0.5c-0.1,0-0.1,0.3-0.1,0.6c0,0.7,0.2,0.9,1.4,1.5c0.4,0.2,0.8,0.4,0.9,0.5c0.1,0.2,0.6,0.2,0.6,0
		c0-0.1-0.2-0.2-0.5-0.3c-0.3-0.1-0.6-0.3-0.9-0.5c-0.2-0.2-0.5-0.4-0.6-0.4c-0.6,0-0.9-0.9-0.5-1.3c0.1-0.1,0.4-0.6,0.6-0.9
		c1.1-2,2.1-2.8,2.6-2.2c0.1,0.1,0.3,0.1,0.3,0.1c0.1-0.1-0.6-0.8-0.9-0.8C225.9,58.8,225.7,59,225.5,59.1 M177.8,59.8
		c-0.1,0.1,0,0.2,0.1,0.2c0.1,0,0.3-0.1,0.4-0.2c0.1-0.1,0-0.2-0.1-0.2C178,59.7,177.8,59.7,177.8,59.8 M227.3,59.9
		c0.1,0.1,0.3,0.2,0.4,0.2c0.1-0.1,0.1,0,0.1,0.1c0,0.1,0.2,0.2,0.4,0.3c0.2,0.1,0.6,0.3,0.9,0.5c0.3,0.2,0.6,0.4,0.7,0.4
		c0.1,0,0.4,0.2,0.8,0.4c0.3,0.2,0.6,0.4,0.7,0.4c0.1,0,1.6,0.7,1.7,0.8c0,0,0.4,0.3,0.8,0.5c0.4,0.2,0.9,0.4,1,0.5
		c0.1,0.1,0.6,0.3,0.9,0.5c1.2,0.6,1.8,0.9,2.8,1.5c1.5,0.9,2.7,1.6,4.8,2.6c1.1,0.5,2,1,2,1.1c0,0.1,0.4,0.3,0.8,0.5
		c0.8,0.5,1.7,1,2.4,1.5c0.3,0.2,0.7,0.4,0.8,0.4c0.1,0,0.5,0.2,0.8,0.4c0.3,0.2,0.7,0.5,1,0.6c0.2,0.1,0.9,0.4,1.4,0.8
		c0.5,0.3,1.1,0.6,1.2,0.6s0.3,0.1,0.3,0.2c0,0.1,0.4,0.3,0.8,0.4c0.4,0.1,0.9,0.4,1.2,0.6c0.8,0.5,1.1,0.7,2.2,1.3
		c1.5,0.8,2.4,1.3,3.5,1.9c0.5,0.3,1.4,0.8,1.8,1c0.8,0.4,1.6,0.9,3.2,1.8c0.4,0.2,1.5,0.9,2.5,1.4c1,0.5,1.9,1,2,1.1
		c0.1,0.1,0.6,0.3,1,0.6c2,1,1.8,1.7-0.8,2.9c-1.9,0.9-2.2,1-3.5,1.4c-0.6,0.2-1.3,0.4-1.5,0.5c-0.5,0.3-6.5,0.3-6.7,0
		c-0.1-0.1-0.4-0.3-0.7-0.3c-1.1-0.2-2.6-0.5-3-0.7c-0.3-0.1-0.7-0.3-0.9-0.3c-1.2-0.3-1.5-0.9-0.8-1.8c0.3-0.3,0.5-0.7,0.5-0.9
		s0.1-0.2,0.1-0.2c0.1,0,0.3-0.3,0.5-0.7c0.2-0.4,0.6-1.1,0.9-1.5l0.5-0.8l-0.4-0.3c-0.7-0.5-2.2-1.4-2.4-1.4
		c-0.1,0-0.9-0.4-1.7-0.9c-0.9-0.5-1.6-0.9-1.7-0.8c-0.1,0.1-0.1,0-0.1-0.1c0-0.1-0.3-0.3-0.7-0.5c-0.4-0.2-0.8-0.4-1-0.5
		c-0.1-0.1-0.8-0.5-1.6-0.9c-0.7-0.4-1.6-0.8-1.8-1c-0.6-0.4-0.8-0.4-0.6-0.1c0.1,0.1,0.2,0.2,0.4,0.2c0.2,0,0.3,0.1,0.3,0.2
		c0,0.1,0.1,0.2,0.2,0.2c0.1,0,0.3,0.1,0.3,0.2c0.1,0.1,0.2,0.2,0.4,0.2c0.2,0,0.3,0.1,0.3,0.2s0.1,0.2,0.3,0.2s0.4,0.1,0.5,0.2
		c0.4,0.3,1.5,0.9,1.8,0.9c0.1,0,0.3,0.1,0.3,0.2c0.1,0.1,0.2,0.2,0.4,0.2s0.5,0.2,0.8,0.4c0.3,0.2,0.7,0.4,0.8,0.4
		c0.1,0,0.3,0.1,0.3,0.2c0,0.1,0.1,0.2,0.3,0.2c0.2,0,0.4,0.1,0.4,0.2c0.1,0.1,0.4,0.3,0.7,0.4c1.3,0.6,1.5,0.7,1.6,0.9
		c0.1,0.1,0.2,0.2,0.4,0.2s0.2,0.1,0.2,0.2c0,0.1,0.1,0.2,0.3,0.2c0.2,0,0.3,0.1,0.3,0.3c0,0.2-0.1,0.3-0.1,0.3
		c-0.1,0-0.3,0.4-0.5,0.8c-0.2,0.4-0.5,0.9-0.7,1.1c-0.2,0.2-0.3,0.5-0.3,0.6c0,0.2-0.2,0.5-0.5,0.8c-0.5,0.5-0.8,1.9-0.3,1.9
		c0.1,0,0.4,0.2,0.8,0.4s0.9,0.4,1.1,0.4c0.3,0,0.6,0.1,0.7,0.2c0.2,0.2,1,0.4,2.4,0.6c0.3,0.1,0.7,0.2,0.7,0.2c0.1,0.2,7,0.2,7.2,0
		c0.1-0.1,0.4-0.2,0.7-0.2s0.6-0.1,0.7-0.2c0.1-0.1,0.3-0.2,0.6-0.2c0.3,0,0.5-0.1,0.6-0.2c0.1-0.1,0.5-0.3,1-0.4
		c0.5-0.1,0.9-0.4,1-0.5c0.1-0.1,0.2-0.3,0.4-0.3c0.2,0,0.5-0.2,0.8-0.3c0.3-0.2,0.6-0.4,0.8-0.4c1.3-0.6,1.2-1.7-0.1-2.3
		c-0.5-0.2-1-0.5-1.1-0.6c-0.1-0.1-0.5-0.3-0.9-0.5c-0.4-0.2-0.7-0.4-0.7-0.4c0-0.1-0.1-0.1-0.2-0.1c-0.1,0-0.2-0.1-0.2-0.2
		c0-0.1-0.2-0.2-0.4-0.2c-0.2,0-0.5-0.1-0.5-0.2c-0.1-0.1-0.5-0.4-1-0.6c-0.5-0.2-0.9-0.5-1-0.6c-0.1-0.1-0.2-0.2-0.3-0.2
		c-0.1,0-0.4-0.2-0.7-0.4c-0.3-0.2-0.7-0.4-0.9-0.4c-0.2,0-0.3-0.1-0.3-0.2s-0.1-0.2-0.3-0.2c-0.2,0-0.3-0.1-0.3-0.2
		c0-0.1-0.2-0.2-0.4-0.3c-0.2-0.1-0.4-0.2-0.5-0.2c0-0.1-0.4-0.2-0.7-0.4c-0.3-0.2-0.6-0.4-0.6-0.4c0-0.1-0.1-0.2-0.2-0.2
		c-0.2,0-1.3-0.5-1.4-0.7c0-0.1-0.5-0.3-1-0.6c-0.5-0.3-1.3-0.7-1.8-0.9c-1-0.6-2.5-1.3-2.8-1.3c-0.1,0-0.2-0.1-0.2-0.1
		c0-0.1-0.3-0.2-0.7-0.4c-0.4-0.1-0.7-0.3-0.8-0.4c-0.1-0.1-0.3-0.3-0.6-0.4c-0.3-0.1-0.6-0.3-0.8-0.4c-0.2-0.1-0.4-0.1-0.5-0.1
		c-0.1,0-0.3-0.1-0.3-0.1c0-0.2-1.4-1.2-1.6-1.2c-0.3,0-1.2-0.5-1.2-0.7c0-0.1-0.1-0.2-0.3-0.2c-0.2,0-0.3-0.1-0.3-0.2
		s-0.1-0.2-0.3-0.2c-0.2,0-0.5-0.2-0.7-0.4c-0.2-0.2-0.5-0.4-0.6-0.4c-0.3,0-1.2-0.5-1.2-0.6c0-0.1-0.8-0.5-1.1-0.5
		c-0.1,0-0.2-0.1-0.2-0.1c0-0.1-1.2-0.7-1.5-0.7c-0.1,0-0.2-0.1-0.2-0.2c0-0.1-0.1-0.2-0.2-0.2c-0.1,0-0.3-0.1-0.4-0.2
		c-0.2-0.3-0.8-0.6-1.1-0.6c-0.1,0-0.3-0.1-0.3-0.1c0-0.1-0.4-0.3-1.6-0.9c-0.3-0.1-0.6-0.3-0.6-0.4c-0.1-0.1-0.3-0.2-0.5-0.2
		s-0.3-0.1-0.3-0.2s-0.1-0.2-0.2-0.2c-0.1,0-0.8-0.3-1.5-0.8c-0.7-0.4-1.3-0.8-1.4-0.8c-0.2,0-1.2-0.5-1.3-0.7c0-0.1-0.5-0.3-1-0.6
		c-0.5-0.2-1-0.5-1.1-0.6c-0.1-0.1-0.5-0.3-0.9-0.5c-0.4-0.2-0.9-0.4-1.2-0.6C227.3,59.6,227.1,59.6,227.3,59.9 M176.9,60.2
		c-0.1,0.1-0.2,0.2-0.3,0.2c-0.1,0-0.5,0.2-0.9,0.4c-0.3,0.2-1,0.6-1.5,0.8c-0.5,0.3-1.3,0.7-1.8,1c-0.5,0.3-1.2,0.7-1.7,0.9
		c-0.5,0.2-0.9,0.5-0.9,0.6c0,0.1-0.2,0.2-0.4,0.2c-0.2,0-0.4,0.1-0.4,0.2s-0.1,0.2-0.3,0.2s-0.4,0.1-0.5,0.2
		c-0.1,0.1-0.3,0.2-0.5,0.2s-0.3,0.1-0.3,0.1c0,0.1-0.3,0.2-0.6,0.3c-0.3,0.1-0.6,0.3-0.7,0.4c-0.1,0.1-0.2,0.2-0.3,0.2
		c-0.3,0-1.1,0.4-1.6,0.8c-0.2,0.2-0.5,0.3-0.7,0.3s-0.3,0.1-0.3,0.2c0,0.1-0.2,0.2-0.3,0.2s-0.4,0.1-0.4,0.2
		c-0.1,0.1-0.2,0.2-0.3,0.2c-0.3,0-0.9,0.4-1.1,0.6c-0.1,0.1-0.2,0.2-0.4,0.2s-0.2,0.1-0.2,0.2c0,0.3,0.2,0.2,1.3-0.5
		c0.6-0.3,1.3-0.7,1.7-0.9c0.3-0.1,0.7-0.3,0.8-0.4c0.4-0.3,2.9-1.7,3.9-2.3c0.6-0.3,1.1-0.6,1.2-0.7c0.1-0.1,0.6-0.3,0.9-0.5
		c1.4-0.7,2-1.1,2.1-1.2c0.1-0.1,0.1-0.1,0.2-0.1c0.1,0.1,3.3-1.6,3.5-1.8c0-0.1,0.4-0.2,0.8-0.4c0.7-0.3,0.9-0.6,0.5-0.6
		C177.1,60,176.9,60.1,176.9,60.2 M183.2,63.2c-0.2,0.4-0.2,40.5,0,40.5c0.1,0,0.1-8.5,0.1-19.9l-0.1-19.9l0.4-0.4
		c0.5-0.5,0.5-0.6,0.1-0.6C183.5,62.8,183.3,63,183.2,63.2 M184.7,63c0,0.3,4,1.5,4.9,1.5c0.3,0,0.6,0.1,0.7,0.2
		c0.1,0.1,0.5,0.2,1,0.2c1,0,2,0.4,2.1,0.9c0.1,0.2,0.1,7,0,15l0,14.7l-0.4,0.8c-0.2,0.4-0.6,1.1-0.8,1.5c-0.8,1.6-3.5,4.1-5.6,5.1
		c-0.8,0.4-1,0.7-0.5,0.7c0.2,0,0.3-0.1,0.3-0.1c0-0.1,0.4-0.3,0.8-0.5c0.5-0.2,0.8-0.4,0.8-0.5c0-0.1,0.3-0.3,0.6-0.4
		s0.6-0.4,0.6-0.5c0-0.1,0.1-0.2,0.2-0.2c0.2,0,1.8-1.6,1.8-1.8c0-0.1,0.1-0.2,0.2-0.2c0.2,0,0.9-1.1,1.7-2.7l0.6-1.2V80.6
		c0-8.1,0-14.9-0.1-15c-0.1-0.4-1.4-0.9-2.3-1c-1.2-0.1-1.9-0.3-2.5-0.5c-0.3-0.1-0.7-0.2-0.8-0.2c-0.3,0-1.3-0.3-1.8-0.5
		c-0.2-0.1-0.4-0.1-0.6-0.1s-0.4-0.1-0.4-0.2C185.1,62.8,184.7,62.8,184.7,63 M216.2,63c-0.2,0.2-2.3,0.8-3.2,0.9
		c-0.4,0.1-0.8,0.2-0.8,0.3s-0.5,0.2-0.9,0.2c-0.5,0-0.8,0.1-0.8,0.2s-0.3,0.2-0.7,0.2c-0.9,0-1.9,0.5-2.1,1c-0.2,0.5-0.2,29.6,0,30
		c0.1,0.2,0.2,0.5,0.3,0.7s0.2,0.4,0.2,0.6c0,0.1,0.1,0.3,0.2,0.4c0.1,0.1,0.2,0.2,0.2,0.3c0,0.3,0.8,1.4,1.6,2.4
		c0.4,0.4,0.7,0.8,0.7,0.8c0,0,0.2,0.2,0.5,0.3s0.5,0.3,0.5,0.5s0.1,0.2,0.3,0.2c0.1,0,0.3,0.1,0.5,0.2c0.9,0.8,1.2,1,1.5,1
		c0.1,0,0.4,0.2,0.7,0.3c0.2,0.2,0.5,0.3,0.6,0.3c0.4,0,0.1-0.4-0.4-0.6c-1.3-0.5-3.6-2.2-4.7-3.5c-0.6-0.7-1.8-2.6-1.8-2.8
		c0-0.1-0.1-0.5-0.3-0.8c-0.5-1-0.5-29.9,0-30.3c0.5-0.4,1.1-0.7,1.7-0.7c0.3,0,0.7-0.1,0.8-0.2c0.1-0.1,0.5-0.2,0.8-0.2
		c0.8,0,3-0.4,3.2-0.7c0.1-0.1,0.6-0.3,1.1-0.4c0.5-0.2,1-0.3,1-0.4C216.8,62.8,216.5,62.8,216.2,63 M217.5,62.9
		c0,0.1,0.1,0.2,0.3,0.3c0.3,0.2,0.3,1.3,0.3,20.3c0,11.1,0,20.1,0.1,20.1c0.4,0,0.6-39.4,0.2-40.4
		C218.2,62.9,217.5,62.6,217.5,62.9 M178.9,65.3c-0.1,0.1-0.5,0.4-1,0.6s-1.6,0.9-2.5,1.4c-0.9,0.5-1.9,1.1-2.2,1.2
		c-0.3,0.1-0.9,0.5-1.4,0.8c-0.4,0.3-0.9,0.5-1,0.5c-0.1,0-0.3,0.1-0.3,0.2c-0.1,0.1-0.2,0.2-0.3,0.2c-0.3,0-0.8,0.3-1.5,0.8
		c-0.3,0.2-1.8,1.1-3.5,2c-4.4,2.4-4.8,2.6-6.7,3.6c-0.9,0.5-2.3,1.2-3,1.6c-0.7,0.4-1.6,0.9-1.9,1c-0.3,0.1-0.6,0.3-0.6,0.4
		c-0.1,0.1-0.5,0.3-1,0.6c-3.6,1.8-3.5,1.8-2.6,3c0.4,0.5,0.7,1,0.7,1c0,0.1,0.3,0.6,0.7,1.2c1,1.5,0.7,2.7-0.6,2.7
		c-0.2,0-0.5,0.1-0.6,0.2c-0.2,0.1-0.6,0.2-1,0.2c-0.4,0-1,0.1-1.3,0.3c-0.3,0.1-0.8,0.2-0.9,0.2c-0.2,0-0.5,0.1-0.6,0.3
		c-0.5,0.5-6.1,0.3-7.7-0.3c-0.7-0.2-1.4-0.4-1.7-0.4c-0.3,0-0.6-0.1-0.7-0.2c-0.1-0.1-0.3-0.2-0.5-0.2s-0.8-0.3-1.4-0.7
		c-2-1.2-2.3-1.7-1.4-2.3c0.5-0.3,0.4-0.7-0.1-0.4c-0.9,0.6-0.8,1.7,0.2,2.2c0.2,0.1,0.4,0.3,0.4,0.4c0,0.1,0.2,0.2,0.5,0.4
		c0.3,0.1,0.6,0.3,0.8,0.4c0.4,0.3,2.4,1.1,2.9,1.1c0.2,0,0.5,0.1,0.6,0.2c0.1,0.1,0.3,0.2,0.6,0.2s0.5,0.1,0.6,0.2
		c0.1,0.1,1.4,0.2,3.5,0.2c2.1,0,3.4-0.1,3.5-0.2c0.1-0.1,0.4-0.2,0.8-0.2c0.4,0,0.8-0.1,0.8-0.2c0.1-0.1,0.4-0.2,0.7-0.2
		c0.3,0,0.8-0.1,1.1-0.2c0.3-0.1,0.9-0.3,1.2-0.4c0.4-0.1,0.7-0.3,0.8-0.4c0-0.1,0.2-0.2,0.3-0.2c0.4,0,0.4-1.4,0-1.7
		c-0.1-0.1-0.2-0.3-0.2-0.4c0-0.1-0.1-0.2-0.2-0.2s-0.2-0.1-0.2-0.2c0-0.1-0.1-0.3-0.2-0.4c-0.1-0.1-0.3-0.4-0.4-0.7
		c-0.1-0.3-0.4-0.8-0.6-1.1c-0.6-0.9-0.6-0.9,0-1.2c0.3-0.2,0.6-0.4,0.7-0.5c0-0.1,0.3-0.2,0.5-0.2c0.2,0,0.4-0.1,0.4-0.2
		s0.1-0.2,0.3-0.2s0.3-0.1,0.3-0.2c0-0.1,0.1-0.2,0.2-0.2s0.3-0.1,0.5-0.2c0.1-0.1,0.5-0.3,0.8-0.5c0.3-0.2,0.6-0.4,0.6-0.5
		c0-0.1,0.1-0.2,0.3-0.2c0.2,0,0.4-0.1,0.4-0.2s0.3-0.2,0.4-0.2s0.4-0.1,0.4-0.2c0.1-0.1,0.4-0.3,0.7-0.4c0.3-0.1,0.7-0.3,0.7-0.4
		c0.1-0.1,0.2-0.2,0.3-0.1c0.1,0,0.2,0,0.3-0.2c0.1-0.1,0.3-0.2,0.4-0.2c0.3,0,1.3-0.5,1.7-0.9c0.2-0.2,0.4-0.3,0.5-0.3
		c0.1,0,0.3-0.1,0.4-0.2c0.1-0.1,0.3-0.2,0.5-0.2s0.3-0.1,0.3-0.2c0-0.1,0.1-0.2,0.3-0.2c0.1,0,0.5-0.2,0.7-0.3
		c0.3-0.2,0.8-0.5,1.2-0.7s1.2-0.6,1.7-0.9c0.5-0.3,1.3-0.7,1.7-0.9c0.4-0.2,0.9-0.5,1.1-0.7c0.2-0.2,0.4-0.3,0.6-0.3
		c0.1,0,0.2-0.1,0.2-0.2c0-0.1,0.1-0.2,0.2-0.2c0.1,0,0.3-0.1,0.4-0.2c0.1-0.1,0.4-0.2,0.6-0.2s0.4-0.1,0.4-0.2
		c0-0.1,0.1-0.2,0.3-0.2c0.2,0,0.3-0.1,0.3-0.2c0-0.1,0.1-0.2,0.3-0.2c0.2,0,0.4-0.1,0.4-0.2c0.1-0.1,0.2-0.2,0.4-0.2
		s0.3-0.1,0.4-0.2c0-0.1,0.4-0.3,0.7-0.4c0.4-0.1,0.9-0.4,1.1-0.6c0.7-0.5,1.2-0.8,1.5-0.8c0.1,0,0.2-0.1,0.2-0.2
		c0-0.1,0.5-0.4,1.1-0.7c0.6-0.3,1.1-0.6,1.1-0.7c0-0.1,0.1-0.2,0.2-0.2c0.3,0,0.5-0.3,0.3-0.4C179.1,65.2,179,65.2,178.9,65.3
		 M226,65.4c0,0.1,0.1,0.3,0.3,0.4c0.2,0.1,0.8,0.4,1.4,0.7c0.6,0.3,1.1,0.6,1.1,0.7c0,0.1,0.2,0.2,0.3,0.2c0.2,0,0.3,0.1,0.3,0.2
		s0.1,0.2,0.3,0.2c0.2,0,0.4,0.1,0.5,0.2c0.5,0.4,1.5,0.9,1.9,0.9c0.2,0,0.3,0.1,0.3,0.2c0,0.2,0.2,0.2,0.4,0.2
		c0.2,0,0.4,0.1,0.4,0.2s0.1,0.2,0.2,0.2c0.1,0,0.3,0.1,0.4,0.2c0.1,0.1,0.3,0.2,0.5,0.2c0.2,0,0.3,0.1,0.3,0.2
		c0,0.1,0.1,0.2,0.3,0.2s0.4,0.1,0.5,0.2c0.1,0.1,0.3,0.2,0.4,0.2s0.3,0.2,0.5,0.3c0.2,0.2,0.4,0.3,0.6,0.3c0.2,0,0.3,0.1,0.3,0.2
		c0,0.1,0.2,0.2,0.4,0.3c0.2,0.1,0.6,0.3,0.9,0.5c0.3,0.2,1.2,0.7,2,1.1c0.9,0.4,1.8,0.9,2,1.1c0.2,0.2,0.6,0.3,0.7,0.3
		c0.2,0,0.1-0.1-0.3-0.4c-0.3-0.2-0.7-0.4-0.7-0.4c-0.1,0-0.4-0.2-0.7-0.4c-0.3-0.2-0.7-0.4-0.9-0.4c-0.1,0-0.5-0.2-0.8-0.4
		c-0.3-0.2-0.6-0.4-0.7-0.4c-0.1,0-0.4-0.1-0.6-0.3c-0.2-0.2-0.7-0.5-1.1-0.7c-0.4-0.2-0.8-0.5-1-0.7c-0.2-0.2-0.6-0.4-0.9-0.5
		c-0.3-0.1-0.7-0.3-0.8-0.4c-0.1-0.1-0.5-0.3-0.9-0.5c-0.4-0.2-0.7-0.3-0.8-0.4c0-0.1-0.4-0.3-0.8-0.4c-0.4-0.2-0.9-0.4-1-0.5
		c-0.3-0.3-4.3-2.4-4.4-2.4c-0.1,0-0.3-0.2-0.6-0.3C226.1,65.2,226,65.2,226,65.4 M195.4,65.7c-0.2,0.4-0.2,28,0,28.5
		c0.2,0.4,1.6,0.7,1.6,0.3c0-0.1,0.1-0.2,0.2-0.2c0.2,0,0.6-0.3,1.7-1.3c0.2-0.2,0.4-0.3,0.5-0.3c0.1,0,0.2-0.1,0.2-0.1
		c0-0.3,0.9-0.5,1.4-0.3c0.2,0.1,0.4,0.3,0.4,0.3c0,0.1,0.1,0.1,0.2,0.1c0.1,0,0.3,0.2,0.6,0.4c0.2,0.2,0.4,0.4,0.5,0.4
		s0.3,0.2,0.5,0.4c1.5,1.4,1.8,1.5,2.5,0.7c0.4-0.4,0.5-28.1,0.1-28.8c-0.2-0.4-1.8-0.4-3.6-0.1c-1.5,0.3-2.6,0.3-3.8,0
		C197.4,65.4,195.6,65.4,195.4,65.7 M197.3,65.8c0.5,0.4,4,0.6,5.6,0.2c1.6-0.4,2.2-0.4,2.4-0.2c0.3,0.3,0.4,28.3,0,28.6
		c-0.4,0.4-0.8,0.3-2.2-1.1c-2.1-1.9-2.5-2-3.9-0.9c-2.6,2-3.2,2.3-3.6,1.4c-0.3-0.7-0.1-27.6,0.2-27.9
		C196.1,65.7,197,65.6,197.3,65.8 M159.5,69.8c0,0.1-0.1,0.3-0.3,0.3c-0.2,0-0.7,0.2-1.1,0.5c-0.5,0.3-1.2,0.7-1.7,0.9
		c-1.3,0.7-1.8,1-2.4,1.4c-0.3,0.2-0.6,0.4-0.7,0.4c-0.1,0-0.7,0.3-1.3,0.7c-0.6,0.4-1.4,0.8-1.8,1c-0.4,0.1-0.9,0.4-1.2,0.6
		c-0.3,0.2-0.8,0.5-1.1,0.6s-0.7,0.3-0.8,0.4c-0.1,0.1-0.7,0.4-1.2,0.7c-0.5,0.3-1,0.5-1,0.6c0,0.1-0.1,0.1-0.2,0.1
		c-0.3,0-1.3,0.5-1.3,0.7c0,0.1-0.1,0.2-0.3,0.2c-0.2,0-0.5,0.2-0.7,0.3s-0.5,0.3-0.6,0.3c-0.1,0-0.3,0.1-0.4,0.3
		c-0.1,0.1-0.3,0.2-0.5,0.2c-0.2,0-0.3,0.1-0.3,0.2s-0.1,0.2-0.3,0.2s-0.5,0.2-0.8,0.4c-0.3,0.2-0.6,0.4-0.7,0.4
		c-0.1,0-0.3,0.1-0.3,0.2c-0.1,0.1-0.2,0.2-0.4,0.2s-0.3,0.1-0.3,0.1c0,0.1-0.8,0.5-1.1,0.5c-0.1,0-0.2,0.1-0.3,0.2
		c-0.1,0.1-0.2,0.2-0.4,0.2c-0.2,0-0.3,0.1-0.3,0.2c0,0.1-0.2,0.2-0.4,0.2s-0.4,0.1-0.4,0.2c0,0.1-0.4,0.4-1.7,1.1
		c-0.3,0.2-0.4,0.4-0.2,0.4c0.1,0,0.4-0.2,0.6-0.3c0.3-0.2,1.3-0.7,2.3-1.3c1-0.5,2-1,2.2-1.1c0.2-0.1,0.8-0.5,1.4-0.8
		s1.1-0.6,1.2-0.6c0.1,0,0.3-0.1,0.4-0.3c0.1-0.1,0.6-0.4,1.1-0.7c0.5-0.2,1.2-0.6,1.6-0.9c0.4-0.3,1.5-0.8,2.4-1.3
		c0.9-0.5,2-1.1,2.4-1.3c0.5-0.2,0.9-0.5,1.1-0.7c0.1-0.1,0.4-0.2,0.5-0.2c0.1,0,0.3-0.1,0.4-0.2c0.1-0.1,0.2-0.2,0.4-0.2
		c0.2,0,0.4-0.1,0.4-0.2s0.5-0.4,1.1-0.7c0.5-0.2,1.3-0.7,1.8-0.9c0.5-0.3,1.3-0.7,1.8-1c0.6-0.3,1.4-0.7,1.8-1
		c0.5-0.3,1.2-0.6,1.5-0.8c0.8-0.4,0.9-0.6,0.4-0.6C159.6,69.5,159.5,69.6,159.5,69.8"/>
	<path id="path2" class="st0" d="M24.5,12.5c0.8,0,2.1,0,2.8,0c0.8,0,0.1-0.1-1.5-0.1C24.4,12.4,23.7,12.4,24.5,12.5 M43,12.5
		c0.3,0,0.9,0,1.2,0c0.3,0,0.1-0.1-0.6-0.1C43,12.4,42.7,12.4,43,12.5 M73.6,12.5c0.2,0,0.5,0,0.8,0s0-0.1-0.4-0.1
		C73.6,12.4,73.4,12.4,73.6,12.5 M94,12.5c0.3,0,0.8,0,1.1,0c0.3,0,0.1-0.1-0.5-0.1S93.7,12.4,94,12.5 M105.7,12.5c1,0,2.6,0,3.7,0
		c1,0,0.2-0.1-1.8-0.1C105.6,12.4,104.7,12.4,105.7,12.5 M115.3,12.5c0.4,0,1,0,1.4,0c0.4,0,0.1-0.1-0.7-0.1S114.9,12.4,115.3,12.5
		 M127.6,12.5c0.2,0,0.5,0,0.8,0s0-0.1-0.4-0.1C127.6,12.4,127.4,12.4,127.6,12.5 M132,12.5c0.2,0,0.5,0,0.8,0c0.2,0,0-0.1-0.4-0.1
		C131.9,12.4,131.8,12.4,132,12.5 M139.6,12.5c0.3,0,0.8,0,1.2,0c0.3,0,0.1-0.1-0.5-0.1C139.6,12.4,139.3,12.4,139.6,12.5
		 M158.1,12.5c0.6,0,1.5,0,2,0c0.5,0,0.1-0.1-1-0.1C158,12.4,157.6,12.4,158.1,12.5 M169.5,12.5c0.3,0,0.8,0,1.1,0
		c0.3,0,0.1-0.1-0.5-0.1S169.2,12.4,169.5,12.5 M173,12.5c0.3,0,0.8,0,1,0c0.3,0,0-0.1-0.5-0.1C172.9,12.4,172.7,12.4,173,12.5
		 M225.9,12.5c0.4,0,1.1,0,1.5,0c0.4,0,0-0.1-0.8-0.1C225.8,12.4,225.4,12.4,225.9,12.5 M229.5,12.5c0.3,0,0.9,0,1.2,0
		c0.3,0,0.1-0.1-0.6-0.1C229.5,12.4,229.2,12.4,229.5,12.5 M236.7,12.5c0.6,0,1.6,0,2.2,0c0.6,0,0.1-0.1-1.1-0.1
		C236.6,12.4,236.1,12.4,236.7,12.5 M255,12.5c0.3,0,0.8,0,1.1,0c0.3,0,0.1-0.1-0.5-0.1C254.9,12.4,254.7,12.4,255,12.5 M262,12.5
		c0.2,0,0.5,0,0.8,0c0.2,0,0-0.1-0.4-0.1C261.9,12.4,261.8,12.4,262,12.5 M274.3,12.5c0.2,0,0.5,0,0.7,0c0.2,0,0-0.1-0.4-0.1
		C274.2,12.4,274.1,12.4,274.3,12.5 M280.9,12.5c0.3,0,0.7,0,0.9,0c0.3,0,0-0.1-0.5-0.1S280.6,12.4,280.9,12.5 M291,12.5
		c0.2,0,0.5,0,0.8,0c0.2,0,0-0.1-0.4-0.1C290.9,12.4,290.8,12.4,291,12.5 M304.2,12.5c0.3,0,0.7,0,0.9,0s0-0.1-0.5-0.1
		C304.2,12.4,304,12.4,304.2,12.5 M327.8,12.5c0.2,0,0.5,0,0.8,0c0.2,0,0-0.1-0.4-0.1C327.8,12.4,327.6,12.4,327.8,12.5 M333.6,12.5
		c0.2,0,0.5,0,0.8,0s0-0.1-0.4-0.1C333.6,12.4,333.4,12.4,333.6,12.5 M352.5,12.5c0.4,0,1,0,1.4,0s0.1-0.1-0.7-0.1
		C352.4,12.4,352.1,12.4,352.5,12.5 M356.6,12.5c0.4,0,1,0,1.4,0c0.4,0,0.1-0.1-0.7-0.1C356.6,12.4,356.2,12.4,356.6,12.5
		 M382.6,12.5c0.6,0,1.5,0,2.1,0c0.6,0,0.1-0.1-1-0.1S382.1,12.4,382.6,12.5 M200.8,13.5c0.2,0,0.5,0,0.8,0c0.2,0,0-0.1-0.4-0.1
		C200.8,13.4,200.6,13.4,200.8,13.5 M203,13.8c0.3,0,0.8,0,1.2,0c0.3,0,0.1-0.1-0.5-0.1C202.9,13.7,202.7,13.8,203,13.8 M198.6,17
		c0.4,0,1,0,1.3,0c0.3,0,0-0.1-0.7-0.1C198.5,16.9,198.2,16.9,198.6,17 M121.5,21.8c0.9,0,2.4,0,3.2,0c0.9,0,0.2-0.1-1.6-0.1
		C121.4,21.7,120.6,21.8,121.5,21.8 M151.2,21.8c0.3,0,0.6,0,0.8,0c0.2,0,0-0.1-0.5-0.1C151.1,21.7,151,21.7,151.2,21.8 M237.3,21.8
		c0.3,0,0.8,0,1.2,0c0.3,0,0.1-0.1-0.5-0.1C237.3,21.7,237,21.8,237.3,21.8 M267.3,21.8c1.3,0,3.4,0,4.8,0c1.3,0,0.2-0.1-2.4-0.1
		C267.1,21.7,266,21.8,267.3,21.8 M290.5,21.8c0.3,0,0.8,0,1.1,0c0.3,0,0.1-0.1-0.5-0.1S290.2,21.8,290.5,21.8 M296.2,21.8
		c0.3,0,0.7,0,0.9,0s0-0.1-0.5-0.1C296.2,21.7,296,21.7,296.2,21.8 M312.1,22.1c-0.1,0.1-0.1,1-0.1,2l0,1.9l0.1-2
		C312.3,21.9,312.3,22,312.1,22.1 M384.1,23.4l-0.5,0.5L384.1,23.4c0.6-0.4,0.7-0.5,0.5-0.5C384.6,22.8,384.3,23.1,384.1,23.4
		 M88.2,25.1c0,1,0,1.4,0.1,0.9c0-0.5,0-1.4,0-1.8C88.3,23.6,88.2,24.1,88.2,25.1 M99.1,25.7c-0.5,0.1,0.7,0.1,2.7,0.1
		c1.9,0,3.3-0.1,3-0.1C104.1,25.5,100.2,25.5,99.1,25.7 M108.2,25.7c-0.2,0.1,2.6,0.1,6.3,0.1c4.4,0,6.7,0,6.6-0.1
		C121,25.5,108.8,25.5,108.2,25.7 M127.3,25.7c-0.1,0.1,7,0.1,16.6,0.1c10.8,0,16.8-0.1,16.7-0.2C160.5,25.5,127.6,25.5,127.3,25.7
		 M165.3,25.7c-0.4,0.1,0.6,0.1,2.5,0.2c1.7,0,3,0,3-0.1C170.8,25.5,166.1,25.5,165.3,25.7 M312.1,28c0,0.9,0,1.8,0.1,2
		c0.1,0.2,0.1-0.5,0.1-1.7C312.3,25.9,312.2,25.7,312.1,28 M306.4,27.3c0,0.5,0,0.7,0.1,0.5c0-0.3,0-0.7,0-0.9
		S306.4,26.8,306.4,27.3 M312,31.8c0,0.8,0,1.4,0.1,1.4c0.1,0,0.1-0.4,0.1-0.9C312.1,30.6,312.1,30.3,312,31.8 M38.5,32.9
		c0.2,0,0.4,0,0.6,0c0.2,0,0-0.1-0.3-0.1S38.4,32.9,38.5,32.9 M225.6,34c0,0.7,0,1,0.1,0.6s0-0.9,0-1.2S225.6,33.3,225.6,34
		 M174.9,34.8c0,1,0,1.4,0.1,0.9c0-0.5,0-1.3,0-1.8C174.9,33.5,174.9,33.9,174.9,34.8 M357.4,33.6c0.2,0,0.4,0,0.6,0
		c0.2,0,0-0.1-0.3-0.1C357.3,33.5,357.2,33.6,357.4,33.6 M44,33.8c0.2,0,0.4,0,0.6,0c0.2,0,0-0.1-0.3-0.1S43.9,33.7,44,33.8
		 M259,33.8c0.4,0,1.1,0,1.5,0c0.4,0,0-0.1-0.8-0.1C258.9,33.7,258.6,33.8,259,33.8 M77.5,34.5c0.3,0,0.8,0,1,0c0.3,0,0-0.1-0.5-0.1
		C77.4,34.4,77.2,34.4,77.5,34.5 M320.5,34.5c0.2,0,0.5,0,0.8,0c0.2,0,0-0.1-0.4-0.1C320.4,34.4,320.3,34.4,320.5,34.5 M54.5,34.6
		c0.3,0,0.8,0,1,0c0.3,0,0-0.1-0.5-0.1C54.4,34.6,54.2,34.6,54.5,34.6 M168.7,36c0,0.9,0,1.2,0.1,0.8c0-0.4,0-1.1,0-1.6
		C168.8,34.8,168.7,35.1,168.7,36 M334,34.6c1,0,2.6,0,3.7,0c1,0,0.2-0.1-1.8-0.1C333.9,34.6,333.1,34.6,334,34.6 M231.7,37
		c0,1.3,0,1.9,0.1,1.2c0-0.7,0-1.8,0-2.4C231.8,35.1,231.7,35.7,231.7,37 M267.6,36.7c0,1.1,0,1.5,0.1,1c0-0.5,0-1.4,0-1.9
		C267.6,35.2,267.6,35.6,267.6,36.7 M174.9,38.1c0,0.7,0,1,0.1,0.6c0-0.4,0-1,0-1.3C174.9,37,174.9,37.3,174.9,38.1 M143.5,40.5
		c0.3,0,0.6,0,0.8,0c0.2,0,0-0.1-0.5-0.1C143.5,40.4,143.3,40.4,143.5,40.5 M148.3,40.5c0.2,0,0.5,0,0.8,0c0.2,0,0-0.1-0.4-0.1
		C148.3,40.4,148.1,40.4,148.3,40.5 M257,40.5c0.3,0,0.6,0,0.8,0c0.2,0,0-0.1-0.5-0.1C257,40.4,256.8,40.4,257,40.5 M275.3,43.1
		c0.3,0,0.7,0,1,0c0.2,0,0-0.1-0.5-0.1C275.2,43.1,275,43.1,275.3,43.1 M146.3,47.6c0.5,0.5,0.9,0.9,1,0.9c0,0-0.3-0.4-0.8-0.9
		s-0.9-0.9-1-0.9C145.5,46.7,145.8,47.1,146.3,47.6 M167,56.8c0.2,0,0.4,0,0.6,0c0.2,0,0-0.1-0.3-0.1C167,56.7,166.9,56.7,167,56.8
		 M177,58c0.2,0,0.5,0,0.7,0c0.2,0,0-0.1-0.4-0.1C176.9,57.9,176.8,57.9,177,58 M178.4,57.9c0.2,0,0.4,0,0.6,0c0.2,0,0-0.1-0.3-0.1
		C178.3,57.9,178.2,57.9,178.4,57.9 M204.6,63.8c0.2,0,0.5,0,0.7,0c0.2,0,0-0.1-0.4-0.1C204.6,63.7,204.4,63.7,204.6,63.8
		 M188.8,64.6c0,0,0.3,0.1,0.7,0.1c0.4,0,0.6,0,0.6-0.1C190,64.5,188.8,64.4,188.8,64.6 M210.9,64.6c0,0.1,0.2,0.1,0.5,0.1
		c0.9-0.1,1-0.2,0.2-0.2C211.3,64.5,211,64.6,210.9,64.6 M193.4,77.4c0,6.3,0,8.9,0,5.7c0-3.2,0-8.4,0-11.5
		C193.4,68.5,193.4,71.1,193.4,77.4 M148.2,88.6c0.2,0,0.4,0,0.6,0c0.2,0,0-0.1-0.3-0.1S148,88.6,148.2,88.6 M139.7,89.6
		c0.3,0,0.6,0,0.8,0c0.2,0,0-0.1-0.5-0.1C139.6,89.5,139.5,89.6,139.7,89.6 M143.9,89.6c0.3,0,0.6,0,0.8,0c0.2,0,0-0.1-0.5-0.1
		C143.8,89.5,143.6,89.6,143.9,89.6 M260.7,89.6c0.3,0,0.6,0,0.8,0c0.2,0,0-0.1-0.5-0.1C260.6,89.5,260.5,89.6,260.7,89.6
		 M264.9,89.6c0.3,0,0.6,0,0.8,0c0.2,0,0-0.1-0.5-0.1C264.8,89.5,264.6,89.6,264.9,89.6 M183.4,96c0,1.1,0,1.5,0.1,1
		c0-0.5,0-1.4,0-1.9C183.4,94.5,183.4,94.9,183.4,96"/>
	<path id="path3" class="st0" d="M208.1,8.6c-0.1,0.1,0.1,0.2,0.3,0.2c0.3,0.1,0.4,0,0.3-0.1C208.6,8.5,208.2,8.4,208.1,8.6
		 M191.7,8.9c-0.5,0.3-0.4,0.3,0.4,0c0.3-0.1,0.4-0.2,0.3-0.2C192.2,8.7,191.9,8.8,191.7,8.9 M79.3,12.5c2.6,0,6.9,0,9.5,0
		s0.5,0-4.7,0S76.7,12.4,79.3,12.5 M118.5,12.5c0.7,0,1.8,0,2.5,0c0.7,0,0.1-0.1-1.3-0.1S117.8,12.4,118.5,12.5 M124.2,12.5
		c0.6,0,1.6,0,2.2,0c0.6,0,0.1-0.1-1.1-0.1S123.6,12.4,124.2,12.5 M134.6,12.5c0.9,0,2.3,0,3.2,0c0.8,0,0.1-0.1-1.6-0.1
		C134.3,12.4,133.7,12.4,134.6,12.5 M171.4,12.5c0.3,0,0.6,0,0.8,0c0.2,0,0-0.1-0.5-0.1C171.3,12.4,171.1,12.4,171.4,12.5
		 M228.2,12.4c0.2,0,0.4,0,0.6,0c0.2,0,0-0.1-0.3-0.1S228,12.4,228.2,12.4 M257.8,12.5c0.8,0,2,0,2.7,0s0.1-0.1-1.4-0.1
		C257.6,12.4,257,12.4,257.8,12.5 M292.9,12.5c0.5,0,1.4,0,1.8,0c0.5,0,0-0.1-1-0.1C292.7,12.4,292.4,12.4,292.9,12.5 M299.7,12.5
		c0.8,0,2.1,0,2.8,0c0.8,0,0.1-0.1-1.5-0.1C299.5,12.4,298.9,12.4,299.7,12.5 M329.9,12.5c0.6,0,1.7,0,2.3,0c0.7,0,0.2-0.1-1.1-0.1
		C329.8,12.4,329.3,12.4,329.9,12.5 M354.9,12.5c0.3,0,0.6,0,0.8,0c0.2,0,0-0.1-0.5-0.1C354.8,12.4,354.6,12.4,354.9,12.5 M196.2,14
		c0.3,0,0.9,0,1.2,0c0.3,0,0.1-0.1-0.6-0.1C196.1,13.9,195.9,13.9,196.2,14 M187.6,16.5l-0.4,0.3l0.5-0.2c0.3-0.1,0.5-0.3,0.5-0.3
		C188.2,16.1,188.1,16.1,187.6,16.5 M201.1,17c0.4,0,1,0,1.4,0c0.4,0,0.1-0.1-0.7-0.1C201.1,16.9,200.7,16.9,201.1,17 M194.9,17.5
		l-0.5,0.1l0.4,0c0.2,0,0.5-0.1,0.6-0.1c0.1-0.1,0.1-0.2,0.1-0.1C195.4,17.4,195.2,17.4,194.9,17.5 M180.4,22l-0.7,0.7L180.4,22
		c0.4-0.3,0.8-0.6,0.8-0.7C181.2,21.3,181,21.4,180.4,22 M293,21.8c0.6,0,1.5,0,2,0c0.5,0,0.1-0.1-1-0.1
		C292.8,21.7,292.4,21.8,293,21.8 M228.8,24c0.1,0.3,0.3,0.5,0.3,0.5c0.1,0-0.1-0.7-0.3-0.8C228.6,23.5,228.6,23.6,228.8,24
		 M16.7,23.7c0,0,0.2,0.3,0.5,0.5l0.5,0.5l-0.5-0.5C16.8,23.7,16.7,23.6,16.7,23.7 M94.8,25.7c0,0.2,2.8,0.2,4.2,0
		c0.7-0.1,0.3-0.1-1.6-0.2C95.8,25.5,94.8,25.6,94.8,25.7 M104.8,25.7c0.7,0.2,2.9,0.2,3.4,0c0.3-0.1-0.4-0.1-1.8-0.1
		C105.1,25.5,104.4,25.6,104.8,25.7 M121.1,25.7c0.1,0.2,5.9,0.2,6.2,0c0.2-0.1-0.9-0.2-3.1-0.2C122.1,25.5,121,25.6,121.1,25.7
		 M136.7,25.6c0.5,0,1.4,0,1.9,0c0.5,0,0.1-0.1-1-0.1C136.6,25.6,136.2,25.6,136.7,25.6 M151.5,25.6c0.2,0,0.4,0,0.6,0
		s0-0.1-0.3-0.1C151.5,25.5,151.4,25.6,151.5,25.6 M160.6,25.7c0.1,0.2,3.7,0.2,4.7,0c0.5-0.1-0.1-0.1-2.1-0.2
		C161.4,25.5,160.5,25.6,160.6,25.7 M230.5,25.7c0,0.1,1.1,0.2,3.1,0.1c1.8,0,3-0.1,2.7-0.1C235.7,25.5,230.5,25.5,230.5,25.7
		 M243,25.7c-0.2,0.1,0.9,0.1,2.8,0.1c2.1,0,3.2,0,3.1-0.1C248.8,25.5,243.6,25.5,243,25.7 M253.2,25.7c-0.1,0.1,4.2,0.2,11.6,0.1
		c6.7,0,11.6-0.1,11.4-0.2C275.8,25.5,253.4,25.5,253.2,25.7 M280.6,25.7c-0.1,0.1,0.5,0.2,1.6,0.2c1.1,0,1.6-0.1,1.4-0.2
		C283.1,25.5,280.7,25.5,280.6,25.7 M285.4,25.7c-0.3,0.1,0.3,0.1,1.7,0.1c1.4,0,2.2,0,2.1-0.1C289.1,25.5,286.2,25.5,285.4,25.7
		 M302.2,25.7c-0.1,0.1,0.5,0.2,1.7,0.2c1,0,1.7-0.1,1.7-0.1C305.5,25.5,302.4,25.5,302.2,25.7 M312.1,27.8c0,1,0,1.4,0.1,0.9
		c0-0.5,0-1.4,0-1.8C312.1,26.3,312.1,26.7,312.1,27.8 M94.4,28.3c0,0.5,0,0.7,0.1,0.5c0-0.3,0-0.7,0-0.9
		C94.4,27.6,94.4,27.8,94.4,28.3 M306,29.5c0,0.4,0,0.6,0.1,0.4c0-0.2,0-0.5,0-0.8C306.1,28.9,306,29.1,306,29.5 M29.9,31
		c0.3,0.1,0.6,0.2,0.8,0.2c0.1,0.1,0.1,0-0.1-0.1c-0.2-0.1-0.5-0.3-0.8-0.2C29.5,30.9,29.5,30.9,29.9,31 M370,31
		c-0.2,0.1-0.1,0.1,0.3,0.1c0.7-0.1,0.9-0.2,0.3-0.2C370.4,30.8,370.1,30.9,370,31 M175.2,32c0,0.3,0.1,0.5,0.2,0.4
		c0.1-0.1,0.2-0.3,0.2-0.5c0-0.2-0.1-0.4-0.2-0.4C175.2,31.5,175.2,31.7,175.2,32 M225.2,31.9c0,0.2,0.1,0.4,0.1,0.5
		c0.1,0,0.1-0.1,0.1-0.4C225.3,31.4,225.2,31.3,225.2,31.9 M225.3,33.9c0,0.7,0.1,1.4,0.1,1.5c0.1,0.1,0.1-0.4,0.1-1.2
		C225.5,32.5,225.4,32.3,225.3,33.9 M178.9,33.4c0,0.2,0.1,0.4,0.2,0.4c0.1,0,0.1-0.2,0.1-0.4S179.1,33,179,33
		S178.9,33.2,178.9,33.4 M86.5,34c0.3,0,0.6,0,0.8,0c0.2,0,0-0.1-0.5-0.1C86.5,33.9,86.3,33.9,86.5,34 M141.8,34
		c4.9,0,12.9,0,17.8,0c4.9,0,0.9,0-8.9,0S136.9,33.9,141.8,34 M231.7,34.1c-0.1,0.1-0.1,0.3,0,0.5c0,0.1,0.1,0,0.1-0.2l0-0.4l13.5,0
		l13.5,0l-13.5,0C233.6,33.8,231.8,33.9,231.7,34.1 M262.7,34c0.9,0,2.3,0,3.2,0c0.8,0,0.1-0.1-1.6-0.1S261.8,33.9,262.7,34
		 M313,33.9c0.6,0.1,1.6,0.2,1.6,0c0-0.1-0.5-0.1-0.9-0.1C313.1,33.9,312.9,33.9,313,33.9 M354.1,34c0,0.1,0.3,0.1,0.8,0.1
		c1.5-0.1,1.7-0.2,0.5-0.2C354.7,33.8,354.2,33.9,354.1,34 M47.5,34.3c0.4,0,1,0,1.3,0c0.3,0,0-0.1-0.7-0.1
		C47.3,34.2,47.1,34.3,47.5,34.3 M84,34.3c0.3,0,0.8,0,1.2,0c0.3,0,0.1-0.1-0.5-0.1C83.9,34.2,83.7,34.2,84,34.3 M316,34.3
		c0.6,0,1.6,0,2.2,0c0.6,0,0.1-0.1-1.1-0.1C315.9,34.2,315.4,34.3,316,34.3 M79.2,34.5c0.3,0,0.6,0,0.8,0c0.2,0,0-0.1-0.5-0.1
		C79.1,34.4,79,34.4,79.2,34.5 M348,34.5c0.5,0,1.3,0,1.8,0c0.5,0,0.1-0.1-0.9-0.1C347.9,34.4,347.5,34.4,348,34.5 M133.1,38.4
		c0,2.2,0,3.1,0.1,1.9c0-1.1,0-2.9,0-4C133.1,35.3,133.1,36.2,133.1,38.4 M341.2,34.6c1,0,2.6,0,3.6,0c1,0,0.2-0.1-1.8-0.1
		S340.2,34.6,341.2,34.6 M59.5,34.8c0.6,0,1.6,0,2.2,0c0.6,0,0.1-0.1-1.1-0.1C59.4,34.7,58.9,34.8,59.5,34.8 M66.1,34.8
		c1.1,0,2.9,0,4,0c1.1,0,0.1-0.1-2.1-0.1C65.9,34.7,65,34.8,66.1,34.8 M302.6,35.4l-0.7,0.7L302.6,35.4c0.4-0.3,0.8-0.6,0.8-0.7
		C303.3,34.6,303.2,34.7,302.6,35.4 M329.1,34.8c0.3,0,0.8,0,1.1,0c0.3,0,0.1-0.1-0.5-0.1C329.1,34.7,328.8,34.8,329.1,34.8
		 M178.7,36.1c0,0.5,0,0.8,0.1,0.5c0-0.3,0-0.8,0-1C178.7,35.3,178.7,35.5,178.7,36.1 M222.2,36c0,0.5,0,0.7,0.1,0.5
		c0-0.3,0-0.7,0-0.9C222.2,35.3,222.2,35.5,222.2,36 M225.4,36.8c-0.1,0.1-0.1,0.9-0.1,1.6l0,1.4l0.1-1.6
		C225.6,36.5,225.6,36.3,225.4,36.8 M100.5,37.4c0,0,0.2,0.2,0.5,0.4c0.3,0.2,0.5,0.3,0.5,0.3c0,0-0.2-0.2-0.5-0.4
		C100.7,37.5,100.5,37.3,100.5,37.4 M221.9,38.5c0,0.4,0,0.6,0.1,0.4c0-0.2,0-0.5,0-0.8C221.9,37.9,221.9,38.1,221.9,38.5
		 M168.9,38.1c0.1,0.1,0.1,0.6,0.1,1.2c0,0.6,0.1,1,0.1,0.9C169.3,40.1,169.1,38.3,168.9,38.1C168.8,38,168.8,38,168.9,38.1
		 M178.9,38.7c0,0.3,0,0.5,0.1,0.5c0.1,0,0.2-0.2,0.2-0.5s-0.1-0.5-0.1-0.5C179,38.2,178.9,38.4,178.9,38.7 M267.5,39.1
		c0,0.4,0,0.5,0.1,0.3c0-0.2,0-0.5,0-0.7C267.6,38.5,267.5,38.7,267.5,39.1 M175.2,40.2c0,0.2,0.1,0.4,0.2,0.4
		c0.2-0.1,0.1-0.5,0-0.7C175.2,39.8,175.2,40,175.2,40.2 M145.5,40.5c0.5,0,1.3,0,1.8,0c0.5,0,0.1-0.1-0.9-0.1
		C145.4,40.4,145,40.4,145.5,40.5 M109.6,41.4c0.1,0.1,0.4,0.1,0.8,0.2c0.4,0,0.6,0,0.6,0c-0.1-0.1-0.4-0.1-0.8-0.2
		C109.8,41.3,109.6,41.3,109.6,41.4 M290.5,41.3c-0.9,0.1-0.9,0.3-0.1,0.2c0.4,0,0.7-0.1,0.7-0.2c0-0.1,0-0.1,0-0.1
		C291.1,41.2,290.8,41.3,290.5,41.3 M116.6,42.4c0.8,0.1,2,0.1,2,0c0-0.1-0.6-0.1-1.2-0.1C116.8,42.4,116.4,42.4,116.6,42.4
		 M282.8,42.5c0.3,0,0.8,0,1.2,0c0.3,0,0.1-0.1-0.5-0.1C282.8,42.4,282.5,42.4,282.8,42.5 M269.8,43.1c0.9,0,2.5,0,3.4,0
		c0.9,0,0.2-0.1-1.7-0.1S268.9,43.1,269.8,43.1 M253.8,47.8l-0.6,0.6L253.8,47.8c0.4-0.3,0.7-0.5,0.7-0.6
		C254.5,47.1,254.4,47.2,253.8,47.8 M216,49.5l-1.1,1.1L216,49.5c0.7-0.5,1.2-1.1,1.2-1.1C217.2,48.3,217,48.4,216,49.5 M185.3,49.7
		c0.4,0.4,0.8,0.8,0.8,0.8C186.2,50.5,186.1,50.3,185.3,49.7l-0.7-0.8L185.3,49.7 M233.3,56.8c-0.3,0.1-0.4,0.1-0.1,0.1
		c0.2,0,0.4-0.1,0.6-0.1C234.1,56.6,233.9,56.6,233.3,56.8 M168.5,57.1c0.2,0,0.5,0,0.7,0c0.2,0,0-0.1-0.4-0.1
		S168.3,57.1,168.5,57.1 M173,57.5c0.5,0,1.4,0,1.9,0c0.5,0,0.1-0.1-1-0.1S172.5,57.4,173,57.5 M225.5,57.5c0.5,0,1.4,0,1.9,0
		c0.5,0,0.1-0.1-1-0.1S225,57.4,225.5,57.5 M195.3,58c0.2,0,0.5,0,0.7,0c0.2,0,0-0.1-0.4-0.1C195.2,57.9,195.1,57.9,195.3,58
		 M204.5,58c0.2,0,0.5,0,0.8,0c0.2,0,0-0.1-0.4-0.1C204.4,57.9,204.3,57.9,204.5,58 M222,58c0.4,0,1.1,0,1.5,0c0.4,0,0-0.1-0.8-0.1
		C221.9,57.9,221.6,57.9,222,58 M186.6,61.5c0.1,0.1,0.4,0.2,0.7,0.3c0.6,0.2,0.5,0-0.2-0.2C186.7,61.4,186.5,61.4,186.6,61.5
		 M210.2,62.6c0.2,0,0.4,0,0.6,0c0.2,0,0-0.1-0.3-0.1S210,62.6,210.2,62.6 M184,63c0,0.1,0.1,0.2,0.3,0.2c0.2,0,0.3-0.1,0.3-0.2
		s-0.2-0.2-0.3-0.2C184.1,62.8,184,62.9,184,63 M216.8,63c0,0.1,0.2,0.2,0.3,0.2c0.2,0,0.3-0.1,0.3-0.2s-0.1-0.2-0.3-0.2
		C217,62.8,216.8,62.9,216.8,63 M206.8,63.5l-0.9,0.1l0.9,0c0.5,0,0.9,0,1-0.1s0.1-0.2,0.1-0.1C207.8,63.4,207.3,63.4,206.8,63.5
		 M193.5,63.6c0.2,0,0.5,0,0.8,0c0.2,0,0-0.1-0.4-0.1C193.4,63.5,193.3,63.6,193.5,63.6 M215,63.7c-0.2,0.1-0.4,0.2-0.4,0.2
		c0,0.2,0.3,0.1,0.6-0.2C215.6,63.5,215.6,63.5,215,63.7 M183.2,79.2c0,8.5,0,11.9,0,7.7c0-4.2,0-11.2,0-15.4
		C183.3,67.2,183.2,70.7,183.2,79.2 M218.1,73.2c0,5.2,0,7.3,0,4.7s0-6.8,0-9.4C218.1,65.9,218.1,68,218.1,73.2 M196.3,65.8
		c0.2,0,0.5,0,0.7,0c0.2,0,0-0.1-0.4-0.1C196.2,65.7,196.1,65.7,196.3,65.8 M204.1,65.8c0.2,0,0.5,0,0.8,0c0.2,0,0-0.1-0.4-0.1
		S203.9,65.7,204.1,65.8 M207.9,80.6c0,8.2,0,11.5,0,7.4c0-4.1,0-10.8,0-14.8C207.9,69.1,207.9,72.4,207.9,80.6 M202.5,66.1
		c0.2,0,0.4,0,0.6,0s0-0.1-0.3-0.1C202.5,66,202.4,66.1,202.5,66.1 M195.6,80c0,7.7,0,10.8,0,7s0-10.1,0-13.9S195.6,72.3,195.6,80
		 M199.8,66.5c0.4,0,1,0,1.3,0c0.3,0,0-0.1-0.7-0.1C199.7,66.4,199.4,66.4,199.8,66.5 M244.6,69.3c0.1,0.2,0.7,0.5,0.7,0.4
		c0-0.1-0.2-0.2-0.4-0.3C244.7,69.3,244.5,69.3,244.6,69.3 M168.4,71.1l-0.5,0.4L168.4,71.1c0.3-0.1,0.6-0.3,0.6-0.4
		C169,70.6,168.9,70.7,168.4,71.1 M218.1,89.2c0,2.2,0,3.2,0.1,2c0-1.1,0-3,0-4.1C218.1,86,218.1,86.9,218.1,89.2 M253.8,87
		c0,0.1,0.2,0.4,0.4,0.6c0.4,0.3,0.4,0.3,0.1,0c-0.1-0.2-0.3-0.4-0.4-0.6C253.9,86.8,253.9,86.8,253.8,87 M193.4,92
		c0,1.8,0,2.5,0.1,1.6c0-0.9,0-2.4,0-3.2C193.4,89.5,193.4,90.2,193.4,92 M183.4,100.8c0,1.7,0,2.3,0.1,1.4c0-0.9,0-2.2,0-3
		C183.4,98.4,183.4,99.1,183.4,100.8"/>
	<path id="path4" class="st0" d="M192.7,8.6c0,0.1-0.3,0.2-0.7,0.3c-0.4,0.1-0.7,0.2-0.6,0.3c0.1,0.1,1.5-0.4,1.6-0.6
		c0-0.1,0-0.2-0.1-0.2C192.7,8.5,192.7,8.6,192.7,8.6 M207.5,8.7c0,0.2,0.6,0.5,1,0.5c0.3,0,0.3,0-0.2-0.2c-0.3-0.1-0.5-0.2-0.5-0.3
		c0-0.1-0.1-0.2-0.2-0.2C207.6,8.5,207.5,8.6,207.5,8.7 M211.5,9.9c0.3,0.1,0.6,0.2,0.7,0.2c0.2,0-0.7-0.5-1-0.5
		C211,9.7,211.2,9.8,211.5,9.9 M214.3,10.9c0.2,0.1,0.5,0.2,0.6,0.2c0.1,0,0-0.1-0.2-0.2c-0.2-0.1-0.5-0.2-0.6-0.2
		C214,10.7,214.1,10.8,214.3,10.9 M15.4,12.5c1.4,0,3.8,0,5.2,0s0.3-0.1-2.6-0.1C15.1,12.4,13.9,12.4,15.4,12.5 M32.1,12.5
		c2,0,5.1,0,7,0c1.9,0,0.3,0-3.6,0S30.2,12.4,32.1,12.5 M52,12.5c4,0,10.4,0,14.3,0c3.9,0,0.7,0-7.2,0C51.2,12.4,48,12.4,52,12.5
		 M97.5,12.5c1.2,0,3.1,0,4.3,0c1.2,0,0.3-0.1-2.1-0.1S96.4,12.4,97.5,12.5 M112,12.5c0.5,0,1.4,0,1.8,0c0.5,0,0-0.1-1-0.1
		C111.9,12.4,111.5,12.4,112,12.5 M129.4,12.5c0.4,0,1.1,0,1.6,0c0.4,0,0.1-0.1-0.8-0.1C129.3,12.4,128.9,12.4,129.4,12.5
		 M145.3,12.5c2.2,0,5.8,0,8,0c2.2,0,0.3,0-4.1,0S143.1,12.4,145.3,12.5 M163,12.5c1.1,0,3,0,4.1,0c1.1,0,0.2-0.1-2-0.1
		S161.8,12.4,163,12.5 M176.2,12.5c1.1,0,2.8,0,3.8,0c1,0,0.1-0.1-2-0.1C176,12.4,175.1,12.4,176.2,12.5 M219.9,12.5
		c1,0,2.6,0,3.6,0c1,0,0.2-0.1-1.8-0.1C219.7,12.4,218.9,12.4,219.9,12.5 M232.4,12.5c0.6,0,1.6,0,2.2,0c0.6,0,0.1-0.1-1.1-0.1
		C232.3,12.4,231.8,12.4,232.4,12.5 M243.6,12.5c2,0,5.3,0,7.3,0c2,0,0.3,0-3.7,0S241.6,12.4,243.6,12.5 M265.7,12.5
		c1.5,0,4,0,5.6,0c1.5,0,0.3-0.1-2.8-0.1S264.2,12.4,265.7,12.5 M276.7,12.5c0.7,0,1.9,0,2.6,0c0.7,0,0.1-0.1-1.3-0.1
		S276,12.4,276.7,12.5 M284.2,12.5c1.2,0,3.1,0,4.3,0c1.2,0,0.3-0.1-2.1-0.1C284,12.4,283,12.4,284.2,12.5 M311,12.5c3,0,8,0,11.1,0
		c3,0,0.6,0-5.5,0S307.9,12.4,311,12.5 M339,12.5c2.4,0,6.3,0,8.7,0s0.4,0-4.4,0S336.6,12.4,339,12.5 M364.4,12.5
		c3.2,0,8.4,0,11.6,0c3.2,0,0.6,0-5.8,0C363.8,12.4,361.2,12.4,364.4,12.5 M386.2,12.5c0.3,0,0.9,0,1.2,0c0.3,0,0.1-0.1-0.6-0.1
		C386.1,12.4,385.9,12.4,386.2,12.5 M24.8,12.6c0.5,0,1.3,0,1.8,0c0.5,0,0.1-0.1-0.9-0.1C24.7,12.6,24.3,12.6,24.8,12.6 M79,12.6
		c2.9,0,7.6,0,10.4,0c2.9,0,0.5,0-5.2,0C78.4,12.6,76.1,12.6,79,12.6 M106.7,12.6c0.6,0,1.7,0,2.3,0c0.7,0,0.2-0.1-1.1-0.1
		C106.6,12.6,106.1,12.6,106.7,12.6 M119,12.6c1.8,0,4.7,0,6.4,0s0.3,0-3.2,0S117.2,12.6,119,12.6 M134.1,12.6c1.2,0,3,0,4.2,0
		c1.1,0,0.2-0.1-2.1-0.1C133.8,12.6,132.9,12.6,134.1,12.6 M158.4,12.6c0.3,0,0.6,0,0.8,0c0.2,0,0-0.1-0.5-0.1
		C158.3,12.5,158.1,12.6,158.4,12.6 M170.5,12.6c0.7,0,1.8,0,2.4,0c0.7,0,0.1-0.1-1.2-0.1C170.3,12.6,169.8,12.6,170.5,12.6
		 M227.2,12.6c0.7,0,1.9,0,2.6,0c0.7,0,0.1-0.1-1.3-0.1S226.5,12.6,227.2,12.6 M257.1,12.6c1,0,2.7,0,3.8,0c1,0,0.2-0.1-1.9-0.1
		C256.9,12.6,256.1,12.6,257.1,12.6 M294.5,12.6c2,0,5.1,0,7,0c1.9,0,0.3,0-3.6,0S292.5,12.6,294.5,12.6 M329.4,12.6
		c0.9,0,2.4,0,3.2,0c0.9,0,0.2-0.1-1.6-0.1C329.2,12.6,328.5,12.6,329.4,12.6 M353.7,12.6c0.8,0,2.1,0,2.8,0c0.8,0,0.1-0.1-1.5-0.1
		C353.5,12.6,352.9,12.6,353.7,12.6 M199,13.5c0.3,0,0.8,0,1.1,0c0.3,0,0.1-0.1-0.5-0.1S198.7,13.4,199,13.5 M196.1,13.8
		c0.4,0,1,0,1.3,0c0.3,0,0-0.1-0.7-0.1C196,13.7,195.7,13.8,196.1,13.8 M194.3,13.9c-0.1,0.1-0.4,0.2-0.7,0.2
		c-0.6,0.1-0.6,0.1,0,0.1c1.1-0.1,2-0.4,1.4-0.4C194.6,13.8,194.3,13.9,194.3,13.9 M188.6,15.8c-0.6,0.3-0.6,0.5,0,0.2
		c0.3-0.1,0.5-0.3,0.5-0.3C189.2,15.5,189.1,15.5,188.6,15.8 M211.7,15.9c0.2,0.1,0.5,0.2,0.6,0.2s0-0.1-0.2-0.2
		c-0.2-0.1-0.5-0.2-0.6-0.2C211.3,15.7,211.4,15.8,211.7,15.9 M186.6,16.9c-0.9,0.5-1,0.7-0.2,0.3c0.4-0.2,0.7-0.4,0.8-0.5
		C187.4,16.5,187.4,16.5,186.6,16.9 M202.2,17.1c0.3,0,0.6,0,0.8,0c0.2,0,0-0.1-0.5-0.1C202.1,17,202,17.1,202.2,17.1 M203.7,17.4
		c0.1,0.1,0.5,0.1,1,0.1l0.8-0.1l-1-0.1C203.9,17.3,203.6,17.3,203.7,17.4 M195.4,17.5c-0.1,0.1-0.3,0.2-0.6,0.2
		c-0.5,0-0.5,0-0.1,0.1c0.3,0,0.6,0,0.8-0.2c0.2-0.1,0.3-0.3,0.2-0.3C195.6,17.3,195.5,17.4,195.4,17.5 M387.4,18.1
		c-0.3,0.6-0.2,0.7,0.1,0.2c0.1-0.3,0.2-0.5,0.2-0.5C387.6,17.7,387.5,17.9,387.4,18.1 M183.8,18.8c-0.4,0.3-0.8,0.6-0.8,0.7
		c0,0.1,1.1-0.7,1.6-1.1C185,17.9,184.4,18.2,183.8,18.8 M208.3,18.3c0.1,0.1,0.5,0.2,0.7,0.3c0.3,0.1,0.5,0.2,0.5,0.1
		c0-0.1-1-0.6-1.2-0.6C208.2,18.2,208.2,18.2,208.3,18.3 M191.7,18.6c-0.2,0.1-0.3,0.2-0.2,0.2c0.1,0,0.4-0.1,0.6-0.2
		s0.3-0.2,0.2-0.2S191.9,18.5,191.7,18.6 M216,18.4c0,0,0.3,0.3,0.6,0.5c0.3,0.3,0.6,0.4,0.5,0.3C217,19,216,18.3,216,18.4
		 M210.7,19.2c0,0,0.2,0.2,0.5,0.3c0.3,0.1,0.5,0.2,0.5,0.2c0,0-0.2-0.2-0.5-0.3C210.9,19.3,210.7,19.2,210.7,19.2 M181,21.3
		l-1.7,1.8L181,21.3c1-0.9,1.8-1.7,1.8-1.7C182.8,19.4,182.6,19.6,181,21.3 M188.6,20.1c-0.9,0.6-1.2,0.9-0.5,0.5
		c0.6-0.3,1.4-0.9,1.2-0.9C189.3,19.7,188.9,19.9,188.6,20.1 M386.4,20c-0.6,1-0.6,1.1-0.3,0.7c0.3-0.4,0.6-0.9,0.5-0.9
		C386.6,19.8,386.5,19.9,386.4,20 M218.8,20.8c0.3,0.3,0.6,0.6,0.6,0.6c0,0-0.2-0.3-0.5-0.6s-0.6-0.6-0.6-0.6S218.5,20.4,218.8,20.8
		 M14.5,20.9c0.2,0.3,0.5,0.7,0.6,0.8c0.1,0.1,0-0.1-0.3-0.6C14.2,20.2,14,20.1,14.5,20.9 M186.5,21.5c-0.5,0.4-1.4,1.2-1.9,1.7
		c-0.9,0.9-0.9,0.9-0.1,0.2c0.5-0.5,1.2-1,1.5-1.3c0.8-0.6,1.6-1.3,1.5-1.3C187.5,20.8,187,21.2,186.5,21.5 M213.8,21
		c0,0,0.3,0.3,0.7,0.6c0.4,0.3,0.6,0.4,0.5,0.3C214.8,21.6,213.8,20.9,213.8,21 M121.9,21.6c0.6,0,1.7,0,2.3,0
		c0.7,0,0.2-0.1-1.1-0.1C121.8,21.6,121.3,21.6,121.9,21.6 M292.5,21.6c0.9,0,2.4,0,3.3,0c0.9,0,0.1-0.1-1.7-0.1
		C292.2,21.6,291.5,21.6,292.5,21.6 M88.2,21.9c-0.1,0.2-0.2,0.2,0,0.2c0.1,0,0.2-0.1,0.2-0.2c0-0.1,5.5-0.2,15.9-0.2l15.9,0
		l-15.9,0C90.3,21.7,88.3,21.7,88.2,21.9 M128.4,21.8c1.2,0,3.1,0,4.2,0c1.2,0,0.2-0.1-2.1-0.1C128.2,21.7,127.2,21.8,128.4,21.8
		 M139.2,21.8c2.2,0,5.7,0,7.8,0c2.1,0,0.3,0-4,0C138.8,21.7,137,21.8,139.2,21.8 M162.9,21.8c5.6,0,10.1,0.1,10.1,0.1
		c0,0-0.1,0.3-0.3,0.5l-0.3,0.5l0.3-0.4C173.4,21.7,173.5,21.8,162.9,21.8l-10.1,0L162.9,21.8 M220.7,22.6c0.4,0.5,1.1,1.2,1.5,1.7
		c0.4,0.5,0.6,0.6,0.4,0.3c-0.2-0.3-0.9-1-1.5-1.7C220.4,22.2,220.3,22.1,220.7,22.6 M227.3,21.8c0,0.1,0.3,0.6,0.7,1.2
		s0.7,1.1,0.7,1.2c0,0.1,0.1,0.2,0.2,0.3c0.3,0.2,0-0.4-0.7-1.4c-0.3-0.5-0.6-1-0.7-1.2C227.4,21.7,227.4,21.7,227.3,21.8
		 M230.2,21.8c1.3,0,3.3,0,4.5,0c1.2,0,0.2-0.1-2.3-0.1C229.9,21.7,229,21.8,230.2,21.8 M245.5,21.8c3.6,0,9.5,0,13.1,0
		c3.6,0,0.7,0-6.5,0C244.8,21.7,241.9,21.8,245.5,21.8 M278.2,21.8c2.2,0,5.7,0,7.9,0c2.2,0,0.4,0-4,0S276,21.8,278.2,21.8
		 M300,21.8c6.6,0.1,12.3,0.1,12.2,0c0-0.1-3.4-0.1-7.4-0.1C300.7,21.7,298.6,21.8,300,21.8 M15.5,22.2c0.4,0.6,1.9,2.1,2.4,2.5
		c0.3,0.2,0.1,0-0.4-0.4c-0.5-0.4-1.2-1.1-1.6-1.6C15.6,22.3,15.4,22.1,15.5,22.2 M216.4,23.3c1.7,1.8,2.1,2.2,1.1,1.1
		c-0.5-0.5-1.2-1.3-1.6-1.7C215.6,22.4,215.8,22.6,216.4,23.3 M88.2,22.8c0,0.3,0,0.5,0.1,0.3c0-0.2,0-0.4,0-0.6
		C88.2,22.4,88.2,22.5,88.2,22.8 M312.2,24.3c0,1.1,0,1.6,0.1,1c0-0.6,0-1.5,0-2.1C312.3,22.7,312.2,23.2,312.2,24.3 M384.2,23
		l-0.5,0.5L384.2,23c0.6-0.4,0.7-0.5,0.5-0.5C384.8,22.5,384.5,22.7,384.2,23 M382.8,24.4c-0.4,0.4-0.5,0.5-0.2,0.3
		c0.5-0.3,1.2-1,1.1-1C383.6,23.7,383.2,24,382.8,24.4 M94.4,26.2c-0.2,0.2-0.3,0.4-0.2,0.6c0.1,0.2,0.2,0.8,0.2,1.5l0.1,1.2l0-1
		c0-0.6-0.1-1.2-0.2-1.5c-0.2-0.4-0.1-0.5,0.1-0.8c0.2-0.2,0.3-0.3,0.2-0.3C94.8,25.8,94.6,26,94.4,26.2 M238,26c1,0,2.7,0,3.8,0
		c1,0,0.2-0.1-1.9-0.1C237.8,25.9,236.9,25.9,238,26 M249.9,26c0.6,0,1.7,0,2.3,0c0.7,0,0.2-0.1-1.1-0.1
		C249.8,25.9,249.3,25.9,249.9,26 M277,26c0.7,0,1.9,0,2.6,0s0.1-0.1-1.3-0.1C276.9,25.9,276.3,25.9,277,26 M284,26c0.4,0,1,0,1.3,0
		c0.3,0,0-0.1-0.7-0.1C283.9,25.9,283.6,25.9,284,26 M292.5,26c1.9,0,4.9,0,6.8,0c1.9,0,0.3,0-3.4,0C292.1,25.9,290.6,25.9,292.5,26
		 M306,26.2c0.3,0.4,0.4,0.5,0.3,0.1c-0.1-0.1-0.2-0.3-0.3-0.4C305.7,25.9,305.7,25.9,306,26.2 M219.5,27.3c0.2,0.4,0.4,0.7,0.4,0.7
		c0,0-0.1-0.3-0.3-0.7c-0.2-0.4-0.4-0.7-0.4-0.7C219.2,26.7,219.3,27,219.5,27.3 M88.2,29.9c0,1.8-0.1,3.2-0.2,3.5
		c-0.2,0.4-0.2,0.4,0.1,0c0.2-0.3,0.4-6.6,0.2-6.6C88.2,26.8,88.2,28.2,88.2,29.9 M181.1,27.8c-0.1,0.3-0.2,0.5-0.2,0.5
		c0,0,0.2-0.2,0.3-0.5s0.2-0.5,0.2-0.5C181.4,27.3,181.2,27.6,181.1,27.8 M22.3,27.7c0,0,0.3,0.2,0.7,0.4s0.7,0.3,0.7,0.3
		c0,0-0.3-0.2-0.7-0.4S22.3,27.7,22.3,27.7 M376.6,28.4c-0.6,0.3-0.6,0.5,0,0.2c0.3-0.1,0.5-0.3,0.5-0.3
		C377.2,28.1,377.1,28.1,376.6,28.4 M305.9,29.5c0,0.4,0,0.6,0.1,0.4c0-0.2,0-0.5,0-0.8C305.9,28.9,305.9,29.1,305.9,29.5
		 M25.4,29.2c0.2,0.1,0.4,0.3,0.6,0.2c0.2,0,0.2,0,0-0.1c-0.1-0.1-0.4-0.2-0.6-0.2C25.1,29,25.1,29,25.4,29.2 M374.8,29.2
		c-0.6,0.2-1.2,0.6-1,0.6c0.1,0,0.3-0.1,0.4-0.1c0.2-0.1,0.6-0.3,0.9-0.4C375.7,29,375.5,28.9,374.8,29.2 M180.2,29.8
		c-0.1,0.2-0.1,0.5-0.1,0.6c0,0.1,0.1-0.1,0.2-0.4C180.5,29.2,180.4,29.1,180.2,29.8 M27.7,30.2c0.2,0.1,0.5,0.3,0.7,0.2
		c0.3,0,0.3,0-0.1-0.1c-0.2-0.1-0.5-0.2-0.7-0.2C27.5,30,27.6,30.1,27.7,30.2 M372.8,30.1c-0.1,0.1-0.4,0.2-0.7,0.2
		c-0.5,0.1-0.5,0.1-0.1,0.1c0.2,0,0.6-0.1,0.8-0.2c0.2-0.1,0.3-0.2,0.2-0.2C372.9,30,372.8,30,372.8,30.1 M312.2,31.8
		c0,0.8,0,1.2,0.1,0.8c0-0.4,0-1.1,0-1.5C312.3,30.6,312.2,30.9,312.2,31.8 M95,30.5c0,0.2,0.7,1.6,0.8,1.6c0,0,0-0.3-0.2-0.6
		C95.3,30.9,95,30.4,95,30.5 M30.7,31.1c0.2,0.1,0.6,0.3,0.8,0.2c0.5,0,0.5,0-0.1-0.1c-0.3-0.1-0.7-0.2-0.8-0.2
		C30.5,30.9,30.6,30.9,30.7,31.1 M369.1,31.2l-0.5,0.1l0.4,0c0.2,0,0.5-0.1,0.6-0.1c0.1-0.1,0.1-0.2,0.1-0.1
		C369.6,31,369.4,31.1,369.1,31.2 M33.8,32c0.3,0.1,0.8,0.2,1.1,0.2c0.4,0.1,0.4,0-0.1-0.1c-0.3-0.1-0.8-0.2-1.1-0.2
		C33.3,31.9,33.3,31.9,33.8,32 M179.4,32.1c-0.2,0.4-0.3,2.6-0.2,2.3c0.1-0.1,0.1-0.6,0.1-1.1c0-0.5,0.1-1,0.2-1.2
		c0.1-0.2,0.1-0.3,0.1-0.3S179.4,32,179.4,32.1 M366.2,32c-0.1,0.1-0.5,0.2-0.8,0.2c-0.4,0-0.4,0-0.1,0.1c0.2,0,0.7,0,1.1-0.2
		c0.4-0.1,0.6-0.3,0.4-0.3S366.3,31.9,366.2,32 M221.6,33.4c0.1,0.7,0.1,1.4,0.2,1.4c0.1,0.1,0.1-0.5,0-1.2
		c-0.1-0.7-0.2-1.4-0.2-1.4C221.6,32.2,221.6,32.7,221.6,33.4 M39.7,33.1c0.2,0.1,0.8,0.2,1.2,0.2l0.8,0l-0.9-0.1
		c-0.5-0.1-1.1-0.2-1.2-0.2C39.4,32.9,39.4,32.9,39.7,33.1 M303.8,33.8c-0.6,0.7-0.6,0.7-0.1,0.3c0.5-0.4,1-1.1,0.8-1.1
		C304.4,33,304.1,33.4,303.8,33.8 M359.6,33.2l-0.8,0.1l0.8,0c0.4,0,0.9,0,1-0.1s0.2-0.2,0.1-0.1C360.5,33,360,33.1,359.6,33.2
		 M86.5,33.8c0.3,0,0.6,0,0.8,0s0-0.1-0.5-0.1C86.5,33.7,86.3,33.7,86.5,33.8 M97.3,34.4c0.4,0.4,0.7,0.8,0.7,0.8
		c0.1,0-0.6-0.9-1-1.2C96.8,33.7,96.9,33.9,97.3,34.4 M132.8,34C132.6,34.2,132.6,34.2,132.8,34c0.2-0.1,4.2-0.1,18-0.2l17.7,0
		l-17.8,0C134.1,33.7,133,33.7,132.8,34 M168.8,34.2c0,0.3,0.1,0.5,0.1,0.5c0,0,0.1-0.2,0.1-0.5s-0.1-0.5-0.1-0.5
		S168.8,33.9,168.8,34.2 M231.7,33.9c-0.1,0.1-0.2,0.3-0.2,0.5c0,0.2,0.1,0.2,0.1-0.1c0.1-0.3,0.3-0.3,13.4-0.4l13.3-0.1l-13.3,0
		C235,33.7,231.9,33.7,231.7,33.9 M262.7,33.8c0.9,0,2.3,0,3.2,0c0.8,0,0.1-0.1-1.6-0.1S261.8,33.8,262.7,33.8 M313,33.8
		c0.6,0.1,1.6,0.2,1.6,0c0-0.1-0.5-0.1-0.9-0.1C313.1,33.7,312.9,33.7,313,33.8 M354.1,33.8c0,0.1,0.3,0.1,0.8,0.1
		c1.5-0.1,1.7-0.2,0.5-0.2C354.7,33.7,354.2,33.7,354.1,33.8 M83.4,34l-2.5,0.1l2.4,0c1.5,0,2.5,0,2.6-0.1c0.1-0.1,0.1-0.2,0.1-0.1
		S84.8,33.9,83.4,34 M46.8,34.1c0.6,0.1,3.2,0.2,2.9,0.1c-0.2-0.1-1-0.1-1.7-0.1C47.2,34,46.7,34.1,46.8,34.1 M315.1,34.1
		c0.7,0.1,5,0.2,4.6,0c-0.2-0.1-1.4-0.1-2.7-0.1C315.8,34,314.9,34.1,315.1,34.1 M349,34.2l-1.9,0.1l1.7,0c0.9,0,2.5,0,3.4-0.1
		l1.8-0.1l-1.5,0C351.6,34.1,350.1,34.1,349,34.2 M79.1,34.3c0.3,0,0.8,0,1.2,0c0.3,0,0.1-0.1-0.5-0.1
		C79.1,34.2,78.8,34.2,79.1,34.3 M132.9,38.3c0,3-0.1,4.2-0.2,4.4c-0.2,0.2-0.7,0.3-4.7,0.3l-4.5,0l4.5,0l4.5,0l0.3-0.4
		C133,42.4,133,41.8,132.9,38.3l0-4.1L132.9,38.3 M322,34.5c0.3,0,0.8,0,1.2,0c0.3,0,0.1-0.1-0.5-0.1
		C321.9,34.4,321.7,34.4,322,34.5 M342.2,34.5c0.9,0,2.4,0,3.2,0c0.9,0,0.2-0.1-1.6-0.1C342,34.4,341.3,34.4,342.2,34.5 M60.7,34.6
		c2.7,0,7.2,0,9.9,0s0.5,0-5,0C60.2,34.6,58,34.6,60.7,34.6 M174.7,36.8c0,1.3,0,1.9,0.1,1.2c0-0.7,0-1.8,0-2.4
		C174.8,35,174.7,35.5,174.7,36.8 M326.7,34.6c1.1,0,2.8,0,3.8,0c1,0,0.1-0.1-2-0.1C326.5,34.6,325.6,34.6,326.7,34.6 M178.9,35.6
		c0,0.5,0,0.6,0.1,0.4c0-0.3,0-0.6,0-0.8C178.9,34.9,178.9,35.1,178.9,35.6 M302.2,35.5l-0.7,0.7L302.2,35.5
		c0.4-0.3,0.8-0.6,0.8-0.7C303,34.8,302.9,34.9,302.2,35.5 M168.9,36.4c0,0.8,0.1,2,0.2,2.5l0.2,1l-0.1-1
		C169.2,38.4,169.1,37.2,168.9,36.4l-0.1-1.5L168.9,36.4 M99,36.2c0.4,0.4,0.9,0.8,1.1,0.9c0.4,0.2,0.1-0.1-1.1-1l-0.7-0.6L99,36.2
		 M225.7,36.1c0,0.4,0,0.5,0.1,0.3c0-0.2,0-0.5,0-0.7C225.7,35.5,225.7,35.7,225.7,36.1 M300.8,36.8c-0.5,0.4-0.5,0.5-0.2,0.3
		c0.5-0.3,1-0.9,0.9-0.9C301.4,36.2,301.1,36.4,300.8,36.8 M221.7,38.4c0,0.6,0,0.9,0.1,0.5c0-0.3,0-0.9,0-1.2
		C221.8,37.5,221.7,37.8,221.7,38.4 M225.6,38.2c0,0.5,0,0.7,0.1,0.5c0-0.3,0-0.7,0-0.9C225.6,37.5,225.6,37.7,225.6,38.2
		 M299.3,37.8c-0.3,0.2-0.6,0.5-0.6,0.5c0,0,0.3-0.1,0.7-0.4c0.6-0.4,0.8-0.6,0.6-0.6C299.9,37.3,299.6,37.5,299.3,37.8 M179.2,38.7
		c0,0.6,0,1.2,0.1,1.2c0.1,0,0.1-0.3,0.1-0.8C179.3,37.7,179.2,37.5,179.2,38.7 M267.7,40.4c0,1.1,0,1.5,0.1,1c0-0.6,0-1.5,0-2
		C267.8,38.8,267.7,39.3,267.7,40.4 M297.5,38.7c-0.7,0.3-0.9,0.5-0.2,0.3c0.3-0.1,0.6-0.2,0.7-0.3
		C298.3,38.5,298.3,38.5,297.5,38.7 M103.6,39.1c0.3,0.1,0.6,0.2,0.7,0.2c0.1,0,0-0.1-0.3-0.2c-0.3-0.1-0.6-0.2-0.7-0.2
		C103.2,38.8,103.3,38.9,103.6,39.1 M106,40c0.5,0.2,0.9,0.3,1,0.3c0.1-0.1-1.4-0.6-1.7-0.6C105.2,39.7,105.5,39.8,106,40
		 M221.5,40.2c-0.1,0.3-0.2,0.8-0.2,1c-0.1,0.2,0,0.2,0.2-0.2c0.1-0.3,0.2-0.8,0.2-1C221.6,39.6,221.6,39.7,221.5,40.2 M142.2,40.7
		c-0.1,0.1-0.2,0.2-0.1,0.1c0.1-0.1,6.1-0.2,13.3-0.2c7.2,0,13.2-0.1,13.2-0.2C168.9,40.1,142.4,40.4,142.2,40.7 M238.1,40.5
		c3.5,0,9.1,0,12.5,0s0.6,0-6.3,0C237.4,40.4,234.6,40.4,238.1,40.5 M257.6,40.6c0.9,0.1,1.1,0.3,0.8,1c-0.2,0.4-0.2,0.4,0.1,0.1
		C259,41,258.6,40.5,257.6,40.6l-0.8-0.1L257.6,40.6 M110,41.3c0.2,0,0.4,0,0.6,0c0.2,0,0-0.1-0.3-0.1C110,41.2,109.9,41.2,110,41.3
		 M287.3,41.8c-0.4,0-0.8,0.1-0.9,0.2c-0.1,0.1,0.3,0.1,0.9,0c0.6-0.1,1.1-0.2,1.1-0.2c0.1-0.1,0-0.1-0.1-0.1
		C288.2,41.7,287.7,41.8,287.3,41.8 M112.8,41.9c0,0,0.4,0.1,0.9,0.1c0.5,0.1,0.7,0,0.6-0.1C114.1,41.8,112.7,41.8,112.8,41.9
		 M180.1,42.2c0.1,0.5,0.6,1.3,0.7,1.3c0.1,0-0.6-1.5-0.7-1.7C180,41.8,180,41.9,180.1,42.2 M175.6,42.3c0.1,0.2,0.2,0.5,0.2,0.7
		c0,0.2,0.1,0.4,0.1,0.4c0.2,0.1-0.1-1.1-0.3-1.3C175.5,42,175.5,42,175.6,42.3 M115.5,42.3c0.5,0,1.4,0,1.9,0s0.1-0.1-1-0.1
		S115,42.3,115.5,42.3 M283.4,42.3c0.5,0,1.4,0,1.8,0c0.5,0,0-0.1-1-0.1S282.9,42.3,283.4,42.3 M120,42.8c0.4,0,1,0,1.4,0
		s0.1-0.1-0.7-0.1S119.6,42.8,120,42.8 M268,42.9c0.1,0.1,1.8,0.1,3.8,0.1l3.7,0l-3.8-0.1C269.6,42.8,267.9,42.8,268,42.9 M279,42.8
		c0.3,0,0.8,0,1.1,0c0.3,0,0.1-0.1-0.5-0.1S278.7,42.8,279,42.8 M143.2,43.7c0.3,0.5,0.6,0.8,0.6,0.8c0.1-0.1-1-1.6-1.1-1.6
		C142.7,42.8,142.9,43.2,143.2,43.7 M224,44.2c-0.2,0.5-0.3,0.9-0.3,0.9c0,0,0.2-0.3,0.4-0.8c0.2-0.5,0.3-0.9,0.3-0.9
		C224.4,43.4,224.2,43.7,224,44.2 M256.6,44.5c-0.2,0.4-0.3,0.6-0.2,0.5c0.3-0.2,0.8-1.2,0.7-1.2C257.1,43.8,256.9,44.1,256.6,44.5
		 M145.6,46.7c0.5,0.5,1,1,1.1,1c0,0-0.4-0.5-0.9-1s-1-1-1.1-1S145,46.1,145.6,46.7 M223.1,46.2c-0.1,0.3-0.2,0.5-0.2,0.5
		c0,0,0.2-0.2,0.3-0.5s0.2-0.5,0.2-0.5C223.4,45.7,223.2,45.9,223.1,46.2 M182.5,46.4c0.2,0.3,0.6,0.7,0.8,0.9
		c0.3,0.3,0.3,0.2-0.2-0.3C182.2,46,182,45.8,182.5,46.4 M218.3,46.6c-0.8,0.8-1.2,1.4-1.1,1.4c0,0,0.5-0.5,1-1
		C219.1,45.9,219.2,45.6,218.3,46.6 M222.2,47.5c-0.3,0.4-0.4,0.6-0.3,0.5c0.3-0.2,1-1.2,0.9-1.2C222.8,46.8,222.5,47.2,222.2,47.5
		 M253.9,47.5l-0.5,0.5L253.9,47.5c0.6-0.4,0.7-0.5,0.5-0.5C254.4,47,254.2,47.2,253.9,47.5 M146.8,47.9c0,0,0.2,0.3,0.5,0.5
		l0.5,0.5l-0.5-0.5C147,47.9,146.8,47.8,146.8,47.9 M184.8,49.1c0.6,0.6,1.3,1.3,1.6,1.5c0.3,0.2,0.4,0.3,0.3,0.2
		c-0.1-0.1-0.8-0.8-1.6-1.5l-1.4-1.3L184.8,49.1 M252,49.3l-0.9,1L252,49.3c0.9-0.8,1.1-1,1-1C252.9,48.3,252.5,48.8,252,49.3
		 M215.2,49.9c-0.5,0.4-0.6,0.6-0.3,0.4c0.5-0.3,1.4-1.2,1.2-1.2C216.1,49.2,215.7,49.5,215.2,49.9 M180.3,50.4
		c0.6,0.6,1.1,1.1,1.1,1.1c0.2,0-0.3-0.6-1.2-1.3l-1-0.9L180.3,50.4 M220.2,50l-0.5,0.5L220.2,50c0.3-0.2,0.6-0.5,0.6-0.5
		C220.8,49.4,220.7,49.5,220.2,50 M150.3,50.7c0,0,0.2,0.2,0.5,0.4c0.3,0.2,0.5,0.3,0.5,0.3c0,0-0.2-0.2-0.5-0.4
		C150.6,50.8,150.3,50.7,150.3,50.7 M213.5,51.2c-1,0.7-1.2,0.9-0.5,0.5c0.6-0.3,1.5-1.1,1.4-1.1C214.3,50.7,213.9,50.9,213.5,51.2
		 M218.7,51.5l-0.7,0.7L218.7,51.5c0.4-0.3,0.8-0.6,0.8-0.7C219.5,50.8,219.4,50.9,218.7,51.5 M152.6,52.2c0.2,0.2,0.5,0.3,0.6,0.3
		c0.2,0,0.2,0-0.5-0.4l-0.5-0.3L152.6,52.2 M245.6,53.2c-0.4,0.2-0.6,0.3-0.6,0.3c0.2,0,1.3-0.5,1.3-0.6
		C246.3,52.8,246.3,52.8,245.6,53.2 M183.7,53.2c0,0,0.3,0.3,0.8,0.6c0.4,0.3,0.8,0.5,0.8,0.4c0,0-0.3-0.3-0.8-0.6
		C184,53.4,183.7,53.2,183.7,53.2 M157.3,54.2c0.2,0.1,0.5,0.2,0.7,0.2c0.1,0,0-0.1-0.3-0.2C157,53.9,156.8,53.9,157.3,54.2
		 M207.2,54.2c-0.1,0.1-0.3,0.2-0.5,0.2c-0.3,0-0.3,0-0.1,0.1c0.2,0,0.5,0,0.7-0.2c0.2-0.1,0.3-0.3,0.2-0.3
		C207.4,54,207.3,54.1,207.2,54.2 M185.4,54.5c0.1,0.2,1.1,0.7,1.1,0.6c0,0-0.3-0.2-0.6-0.4C185.6,54.5,185.4,54.4,185.4,54.5
		 M160.2,55.2c0.3,0.1,0.6,0.2,0.8,0.2c0.2,0.1,0.2,0-0.1-0.1c-0.2-0.1-0.6-0.2-0.8-0.2C159.8,55,159.8,55,160.2,55.2 M197.3,55.1
		c0.3,0,0.8,0,1.1,0c0.3,0,0.1-0.1-0.5-0.1C197.2,55.1,197,55.1,197.3,55.1 M200.6,55.2l-1.7,0.1l1.5,0c0.8,0,2.1,0,2.8-0.1l1.2-0.1
		l-1.1,0C202.7,55.1,201.5,55.1,200.6,55.2 M163.4,56c0.7,0.2,1.3,0.2,0.8,0c-0.2-0.1-0.6-0.1-0.8-0.1C163,55.9,163,55.9,163.4,56
		 M236.1,56.1c-0.9,0.3-0.4,0.3,0.7,0c0.5-0.1,0.6-0.2,0.4-0.2C236.9,55.9,236.4,56,236.1,56.1 M234.5,56.4c0.2,0,0.4,0,0.6,0
		c0.2,0,0-0.1-0.3-0.1C234.5,56.4,234.4,56.4,234.5,56.4 M167.9,56.8c0.2,0.2,2.5,0.4,5.2,0.4l2.7,0l-2.7-0.1
		c-1.5-0.1-2.9-0.2-3.2-0.2C169.1,56.8,167.8,56.7,167.9,56.8 M231,57c0.3,0,0.8,0,1,0c0.3,0,0-0.1-0.5-0.1
		C230.9,56.9,230.7,56.9,231,57 M227.3,57.2l-2.8,0.1l2.7,0c1.5,0,2.8,0,2.9-0.1c0.1-0.1,0.2-0.1,0.1-0.1
		C230.2,57.1,228.8,57.1,227.3,57.2 M224.2,57.5c-0.1,0.1-1.1,0.2-2.2,0.2l-2.1,0.1l2.1,0C223.7,57.8,224.2,57.8,224.2,57.5
		C224.6,57.3,224.5,57.2,224.2,57.5 M193.3,57.8c0.3,0.1,0.6,0.2,0.8,0.2c0.1,0-0.1-0.1-0.4-0.2c-0.3-0.1-0.6-0.2-0.8-0.2
		C192.8,57.5,193,57.6,193.3,57.8 M178.1,57.8c0.5,0,1.2,0,1.7,0c0.4,0,0-0.1-0.9-0.1C178,57.7,177.6,57.8,178.1,57.8 M195.4,58.1
		c0.2,0,0.4,0,0.6,0c0.2,0,0-0.1-0.3-0.1C195.3,58,195.2,58.1,195.4,58.1 M196.4,58.4c0,0.1,1.7,0.1,3.7,0.1c2,0,3.7-0.1,3.7-0.1
		c0-0.1-1.6-0.1-3.7-0.1C198.1,58.2,196.4,58.3,196.4,58.4 M218.1,58.9c-0.8,0.5-1,0.7-0.4,0.4c0.5-0.3,1.2-0.8,1.1-0.8
		C218.8,58.5,218.5,58.7,218.1,58.9 M180.4,60.6c0.3,0.3,0.5,0.6,0.5,0.6c0.1,0-0.6-1-0.8-1.1C180,60,180.1,60.2,180.4,60.6
		 M227.8,60.4c0,0,0.2,0.2,0.5,0.3c0.3,0.1,0.5,0.2,0.5,0.2c0,0-0.2-0.2-0.5-0.3C228.1,60.4,227.8,60.4,227.8,60.4 M185.5,60.7
		c0,0,0.2,0.2,0.5,0.3c0.3,0.1,0.5,0.2,0.5,0.2c0,0-0.2-0.2-0.5-0.3C185.7,60.8,185.5,60.7,185.5,60.7 M224,61.9
		c-0.2,0.3-0.3,0.5-0.2,0.5c0.2-0.1,0.7-1.1,0.6-1.1C224.4,61.3,224.2,61.6,224,61.9 M212.2,61.9c-1,0.3-1.2,0.4-0.6,0.3
		c0.3-0.1,0.8-0.2,1-0.3C213.2,61.6,213,61.6,212.2,61.9 M174,62.3c-0.6,0.3-0.6,0.5,0,0.2c0.3-0.1,0.5-0.3,0.5-0.3
		C174.5,62,174.5,62,174,62.3 M231.4,62.4c0.3,0.1,0.6,0.3,0.7,0.3c0.1,0.1,0,0-0.2-0.2c-0.2-0.2-0.5-0.3-0.7-0.3
		C231,62.2,231.1,62.3,231.4,62.4 M210.2,62.4c0.2,0,0.4,0,0.6,0c0.2,0,0-0.1-0.3-0.1S210,62.4,210.2,62.4 M223.3,63.2
		c0,0.3,0.4,0.7,0.9,0.9c0.5,0.2,0.3,0-0.1-0.2c-0.2-0.1-0.5-0.3-0.6-0.5C223.4,63,223.4,63,223.3,63.2 M216.1,63.4
		c-0.4,0.1-0.7,0.3-0.8,0.4c-0.1,0.1,0.2,0,0.7-0.2c0.8-0.3,1.3-0.5,0.9-0.5C216.8,63.2,216.4,63.3,216.1,63.4 M217.6,63.3
		c0.2,0.2,0.2,4.6,0.3,20.1l0,19.8l0-19.9C218,64.7,218,63.5,217.6,63.3C217.4,63.1,217.4,63.1,217.6,63.3 M233,63.2
		c0.2,0.2,1.2,0.6,1.2,0.5C234.2,63.7,233.2,63.2,233,63.2C233,63.2,233,63.2,233,63.2 M195.7,63.7c0.5,0.1,2.6,0.2,4.6,0.2l3.7,0
		l-3.7-0.1C198.2,63.7,196.2,63.7,195.7,63.7l-0.9-0.2L195.7,63.7 M204.2,63.7c-0.1,0.1,0.1,0.1,0.6,0.1c1.1-0.1,1.3-0.2,0.4-0.2
		C204.8,63.5,204.3,63.6,204.2,63.7 M183.4,79c0,8.4,0,11.8,0,7.6c0-4.2,0-11.1,0-15.2C183.4,67.2,183.4,70.6,183.4,79 M187.8,64.4
		c0.3,0.1,0.6,0.2,0.8,0.2c0.2,0,0-0.1-0.4-0.2C187.2,64.1,187.1,64.1,187.8,64.4 M224.8,64.4c0,0,0.2,0.2,0.5,0.3
		c0.3,0.1,0.5,0.2,0.5,0.2c0,0-0.2-0.2-0.5-0.3C225.1,64.4,224.8,64.4,224.8,64.4 M211.2,64.8c0.2,0,0.4,0,0.6,0
		c0.2,0,0-0.1-0.3-0.1S211,64.7,211.2,64.8 M190.9,65.1c0.3,0,0.7,0,0.9,0c0.3,0,0-0.1-0.5-0.1C190.8,65.1,190.6,65.1,190.9,65.1
		 M209.1,65.1c0,0.1,0.2,0.1,0.6,0.1s0.7-0.1,0.7-0.1C210.3,64.9,209.2,65,209.1,65.1 M192.6,65.4c0.2,0.1,0.4,0.3,0.5,0.4
		c0.1,0.1,0.2,0.1,0.2,0c0-0.1-0.2-0.3-0.5-0.4C192.3,65.2,192.3,65.2,192.6,65.4 M236.8,65.2c0,0,0.2,0.2,0.5,0.3
		c0.3,0.1,0.5,0.2,0.5,0.2c0,0-0.2-0.2-0.5-0.3C237.1,65.3,236.8,65.2,236.8,65.2 M177.8,65.7c-0.3,0.2-0.6,0.4-0.6,0.4
		c0,0.1,1.2-0.4,1.4-0.6C178.8,65.2,178.5,65.3,177.8,65.7 M208.3,65.6c-0.3,0.3-0.3,1.5-0.2,15l0,14.7l0-14.8l0-14.8l0.4-0.3
		c0.2-0.1,0.3-0.3,0.2-0.3C208.6,65.3,208.4,65.5,208.3,65.6 M226.7,65.4c0,0,0.4,0.3,0.8,0.5c0.5,0.2,0.8,0.4,0.8,0.3
		c0,0-0.4-0.3-0.8-0.5S226.7,65.4,226.7,65.4 M166.7,66.3c-0.3,0.2-0.5,0.4-0.4,0.4c0.1,0,0.4-0.2,0.7-0.4
		C167.6,65.7,167.4,65.7,166.7,66.3 M205.1,66c0.2,0.2,0.2,3.4,0.3,14.2l0,13.9l0-13.9C205.5,67,205.5,66.2,205.1,66
		C204.9,65.8,204.9,65.8,205.1,66 M176.5,66.4c-0.6,0.3-0.6,0.5,0,0.2c0.3-0.1,0.5-0.3,0.5-0.3C177,66.1,177,66.1,176.5,66.4
		 M195.7,80c0,7.7,0,10.8,0,7c0-3.8,0-10.1,0-13.9C195.8,69.2,195.7,72.3,195.7,80 M198.2,66.4c0.4,0.1,1.3,0.2,2.1,0.2l1.4,0
		l-1.4-0.1C199.6,66.4,198.6,66.3,198.2,66.4l-0.7-0.2L198.2,66.4 M202.4,66.3c0.2,0,0.4,0,0.6,0c0.2,0,0-0.1-0.3-0.1
		C202.3,66.2,202.2,66.2,202.4,66.3 M164.8,67.3c-0.6,0.4-1.2,0.7-1.3,0.7s-0.2,0.1-0.3,0.2c-0.2,0.3,0.4,0,1.6-0.7
		c1-0.6,1.3-0.8,1.1-0.8C165.9,66.7,165.4,67,164.8,67.3 M231,67.8c0.2,0.2,0.5,0.3,0.6,0.3c0.2,0-0.1-0.2-0.7-0.5
		C230.7,67.5,230.7,67.6,231,67.8 M172.8,68.5c-0.7,0.4-0.8,0.6-0.2,0.3c0.7-0.4,1-0.6,0.8-0.6C173.3,68.2,173,68.3,172.8,68.5
		 M232.2,68.4c0,0.1,1,0.6,1.1,0.5c0,0-0.2-0.2-0.5-0.3C232.4,68.5,232.2,68.4,232.2,68.4 M161.5,69.1c-0.6,0.3-0.6,0.5,0,0.2
		c0.3-0.1,0.5-0.3,0.5-0.3C162,68.8,162,68.8,161.5,69.1 M244,69.2c0.6,0.4,0.9,0.5,0.5,0.2c-0.2-0.2-0.5-0.3-0.6-0.3
		C243.8,69,243.9,69.1,244,69.2 M245.3,69.9c0,0,0.3,0.2,0.7,0.4l0.6,0.4l-0.5-0.4C245.8,70,245.5,69.8,245.3,69.9
		C245.3,69.8,245.3,69.9,245.3,69.9 M169,70.5c-0.3,0.2-0.5,0.4-0.5,0.4c0,0,0.3-0.1,0.6-0.3c0.3-0.2,0.6-0.4,0.6-0.4
		C169.7,70.1,169.6,70.1,169,70.5 M235.7,70.2c0,0,0.2,0.2,0.5,0.3c0.3,0.1,0.5,0.2,0.5,0.2c0,0-0.2-0.2-0.5-0.3
		C235.9,70.3,235.7,70.2,235.7,70.2 M167.8,71.3c-0.3,0.2-0.4,0.3-0.3,0.3c0.2,0,1.1-0.7,0.9-0.7C168.3,71,168,71.2,167.8,71.3
		 M156.3,72c-0.4,0.1-1.1,0.7-0.9,0.7c0.1,0,0.3-0.1,0.4-0.2c0.1-0.1,0.3-0.2,0.4-0.2c0.1,0,0.3-0.1,0.3-0.2
		C156.7,71.8,156.7,71.8,156.3,72 M248.8,72c0.3,0.2,1.1,0.6,1,0.4c-0.1-0.1-0.3-0.2-0.6-0.3C248.8,71.9,248.7,71.9,248.8,72
		 M166,72.3c-0.7,0.4-0.8,0.6-0.2,0.3c0.3-0.1,0.6-0.3,0.6-0.4C166.6,72,166.5,72,166,72.3 M239,72.2c0,0,0.2,0.2,0.5,0.3
		c0.3,0.1,0.5,0.2,0.5,0.2c0,0-0.2-0.2-0.5-0.3C239.2,72.3,239,72.2,239,72.2 M250.4,72.8c0.1,0.2,1.1,0.7,1.1,0.6
		c0,0-0.3-0.2-0.6-0.4C250.6,72.8,250.4,72.7,250.4,72.8 M240.6,73.2c0.2,0.3,1.1,0.5,0.9,0.3c0-0.1-0.2-0.1-0.4-0.1
		C241,73.3,240.8,73.2,240.6,73.2C240.5,72.9,240.5,73,240.6,73.2 M252,73.7c0.6,0.4,0.9,0.5,0.5,0.2c-0.2-0.2-0.5-0.3-0.6-0.3
		C251.8,73.5,251.9,73.6,252,73.7 M151.4,74.7c-0.3,0.2-0.4,0.3-0.3,0.3c0.2,0,1.1-0.7,0.9-0.7C152,74.3,151.7,74.5,151.4,74.7
		 M254,74.8c0,0,0.3,0.2,0.6,0.4c0.9,0.4,1,0.4,0.6,0.2C254.8,75,254,74.6,254,74.8 M160.8,75.2c-0.3,0.2-0.5,0.3-0.4,0.3
		c0.2,0,1.1-0.5,1.1-0.6C161.5,74.8,161.5,74.8,160.8,75.2 M244,74.9c0,0,0.3,0.2,0.7,0.4c0.4,0.2,0.7,0.3,0.7,0.3
		c0,0-0.3-0.2-0.7-0.4C244.3,75,244,74.9,244,74.9 M255.9,75.7c0.4,0.3,1.4,0.9,1.2,0.6c-0.1-0.1-0.5-0.3-0.8-0.5
		S255.7,75.6,255.9,75.7 M158.8,76.2c-0.5,0.3-0.9,0.5-0.8,0.5c0.2,0,1.8-0.8,1.8-0.9C159.8,75.6,159.9,75.6,158.8,76.2 M246.1,76.1
		c0.3,0.2,0.6,0.4,0.7,0.4C246.9,76.5,246.9,76.5,246.1,76.1l-0.5-0.4L246.1,76.1 M147.1,77c-0.3,0.2-0.4,0.3-0.3,0.3
		c0.2,0,1.1-0.7,0.9-0.7C147.6,76.7,147.4,76.8,147.1,77 M157,77c-0.8,0.5-0.7,0.6,0.1,0.1c0.8-0.5,0.8-0.5,0.6-0.5
		C157.7,76.7,157.3,76.8,157,77 M258,77c0.2,0.2,0.5,0.3,0.6,0.3c0.2,0-0.1-0.2-0.7-0.5C257.7,76.7,257.7,76.8,258,77 M248.3,77.3
		c0.2,0.2,0.5,0.3,0.6,0.3c0.2,0-0.1-0.2-0.7-0.5C248,77,248.1,77.1,248.3,77.3 M155.2,78.1c-0.8,0.5-0.5,0.5,0.3,0
		c0.3-0.2,0.5-0.4,0.4-0.4C155.8,77.7,155.5,77.9,155.2,78.1 M259.5,77.7c0,0.1,1,0.6,1.1,0.5c0,0-0.2-0.2-0.5-0.3
		C259.8,77.8,259.5,77.7,259.5,77.7 M249.5,77.9c0,0,0.2,0.2,0.5,0.3s0.5,0.2,0.5,0.2c0,0-0.2-0.2-0.5-0.3
		C249.7,77.9,249.5,77.9,249.5,77.9 M144.1,78.6c-0.6,0.3-0.6,0.5,0,0.2c0.3-0.1,0.5-0.3,0.5-0.3C144.7,78.3,144.6,78.3,144.1,78.6
		 M153.8,78.8c-0.3,0.2-0.3,0.3-0.1,0.2c0.5-0.3,0.8-0.5,0.7-0.5C154.3,78.5,154.1,78.7,153.8,78.8 M250.8,78.7
		c0.4,0.3,1.2,0.7,1.2,0.6c0-0.1-1.1-0.8-1.3-0.8C250.6,78.5,250.7,78.6,250.8,78.7 M262.8,79.5c0,0.1,0.3,0.3,0.6,0.4
		c0.3,0.1,0.5,0.2,0.4,0.1c0-0.1-0.3-0.3-0.6-0.4C262.9,79.5,262.7,79.4,262.8,79.5 M151.8,80c-0.3,0.2-0.6,0.4-0.6,0.4
		c0.1,0.1,1.1-0.4,1.2-0.6C152.5,79.6,152.5,79.6,151.8,80 M253,79.9c0.2,0.2,0.8,0.5,0.8,0.3c0,0-0.2-0.2-0.5-0.3
		C252.9,79.7,252.8,79.7,253,79.9 M140.4,80.7c-0.3,0.2-0.6,0.4-0.6,0.5c-0.1,0.2,1-0.5,1.2-0.7C141.1,80.2,140.9,80.4,140.4,80.7
		 M137.5,82.3c-0.3,0.2-0.6,0.3-0.7,0.4c-0.2,0.2,0.8-0.2,1.2-0.5C138.5,81.9,138.2,82,137.5,82.3 M134.8,83.7c-1,0.6-1,0.7,0,0.2
		c1-0.5,1-0.6,0.8-0.6C135.5,83.3,135.1,83.5,134.8,83.7 M255.3,84.8c-0.2,0.3-0.3,0.6-0.3,0.7c0,0,0.2-0.2,0.4-0.6
		C255.9,84,255.8,83.9,255.3,84.8 M132.1,85.3c-0.5,0.6-0.1,1.1,1.4,2c0.7,0.4,0.2,0-0.6-0.6c-1-0.6-1.1-0.9-0.6-1.5
		c0.2-0.2,0.2-0.3,0.2-0.3S132.3,85.1,132.1,85.3 M272.9,86.6c-0.8,0.5-0.9,0.7-0.2,0.3c0.3-0.2,0.6-0.4,0.7-0.5
		C273.6,86.1,273.5,86.1,272.9,86.6 M150.8,87.6c-0.3,0.3-0.4,0.4-0.2,0.3c0.3-0.2,0.9-0.7,0.7-0.7C151.3,87.2,151,87.4,150.8,87.6
		 M254.9,87.9c0.2,0.1,0.5,0.3,0.7,0.2c0.3,0,0.3,0-0.1-0.1c-0.2-0.1-0.5-0.2-0.7-0.2C254.7,87.7,254.7,87.8,254.9,87.9 M148.8,88.3
		c-0.3,0.1-0.4,0.1-0.1,0.1c0.2,0,0.4-0.1,0.6-0.1C149.6,88.1,149.4,88.1,148.8,88.3 M136.8,88.7c1.2,0.3,1.3,0.3,0.8,0.1
		c-0.3-0.1-0.7-0.3-0.9-0.2C136.3,88.5,136.4,88.6,136.8,88.7 M257.2,88.6c0,0,0.2,0.1,0.5,0.1c0.3,0,0.5,0,0.4-0.1
		C258,88.5,257.2,88.4,257.2,88.6 M139.5,89.5c0.2,0,0.5,0,0.8,0c0.2,0,0-0.1-0.4-0.1C139.4,89.4,139.3,89.4,139.5,89.5 M143.9,89.4
		c0.2,0,0.4,0,0.6,0c0.2,0,0-0.1-0.3-0.1C143.8,89.4,143.7,89.4,143.9,89.4 M141.5,89.6c0.4,0,1,0,1.4,0c0.4,0,0.1-0.1-0.7-0.1
		C141.4,89.6,141.1,89.6,141.5,89.6 M262.5,89.6c0.4,0,1,0,1.4,0c0.4,0,0.1-0.1-0.7-0.1C262.4,89.6,262.1,89.6,262.5,89.6
		 M193.2,92.2c0,1.3,0,1.9,0.1,1.2c0-0.7,0-1.8,0-2.4C193.3,90.3,193.2,90.8,193.2,92.2 M199.8,91.8c-0.3,0.2-0.6,0.5-0.6,0.5
		c0,0,0.3-0.1,0.7-0.4c0.7-0.4,0.7-0.4,1.2-0.2l0.5,0.3l-0.4-0.3C200.7,91.2,200.5,91.2,199.8,91.8 M201.7,92c0,0,0.3,0.3,0.7,0.6
		c0.4,0.3,0.6,0.4,0.5,0.3C202.6,92.6,201.7,91.9,201.7,92 M203.2,93.3c0,0.5,1.8,1.5,2.1,1.1c0-0.1-0.1-0.1-0.3-0.1
		c-0.3,0-0.6-0.1-1.1-0.5C203.5,93.4,203.2,93.2,203.2,93.3 M193.2,95.1c0,0.3-0.1,0.7-0.3,1c-0.1,0.3-0.2,0.5-0.2,0.6
		C192.9,96.8,193.4,95.4,193.2,95.1C193.2,94.6,193.2,94.6,193.2,95.1 M183.6,100.3c0,1.9,0,2.6,0.1,1.7c0-0.9,0-2.5,0-3.4
		C183.6,97.7,183.6,98.5,183.6,100.3 M191.9,98c-0.2,0.4-0.3,0.7-0.3,0.7c0.1,0,0.8-1.2,0.7-1.2C192.3,97.4,192.1,97.7,191.9,98
		 M209.8,98.8c0.2,0.3,0.6,0.8,1,1.2c0.4,0.4,0.5,0.5,0.3,0.2c-0.2-0.3-0.6-0.8-1-1.2C209.7,98.5,209.6,98.4,209.8,98.8 M190.9,99.4
		l-0.5,0.5L190.9,99.4c0.6-0.4,0.7-0.5,0.5-0.5C191.4,98.8,191.2,99.1,190.9,99.4 M189.5,100.8c-0.4,0.4-0.7,0.8-0.7,0.8
		s0.4-0.3,0.8-0.8c0.4-0.4,0.7-0.8,0.7-0.8C190.3,100,189.9,100.3,189.5,100.8 M211.7,100.7c0,0,0.2,0.2,0.5,0.4
		c0.3,0.2,0.5,0.3,0.5,0.3c0,0-0.2-0.2-0.5-0.4C211.9,100.8,211.7,100.7,211.7,100.7 M187.8,102c-0.4,0.3-0.8,0.6-0.8,0.6
		c0,0,0.1,0,0.2-0.1c0.1-0.1,0.5-0.3,0.8-0.5c0.5-0.3,0.7-0.5,0.6-0.5C188.6,101.5,188.2,101.7,187.8,102 M186,103
		c-0.3,0.2-0.5,0.4-0.5,0.5c0,0.2,0,0.2,0.2,0c0.1-0.1,0.4-0.4,0.6-0.5C186.9,102.6,186.6,102.6,186,103 M215.5,103.2
		c0.4,0.4,0.6,0.5,0.4,0.2c-0.1-0.1-0.3-0.3-0.5-0.4C215.1,102.8,215.1,102.8,215.5,103.2"/>
</g>
</svg>
