<?xml version="1.0" standalone="no"?>
<!DOCTYPE svg PUBLIC "-//W3C//DTD SVG 20010904//EN"
 "http://www.w3.org/TR/2001/REC-SVG-20010904/DTD/svg10.dtd">
<svg version="1.0" xmlns="http://www.w3.org/2000/svg"
 width="843.000000pt" height="845.000000pt" viewBox="0 0 843.000000 845.000000"
 preserveAspectRatio="xMidYMid meet">

<g transform="translate(0.000000,845.000000) scale(0.100000,-0.100000)" stroke="none">
<path d="M4160 8078 c-490 -37 -1007 -175 -1435 -383 -375 -182 -832 -544
-1149 -910 -94 -107 -252 -319 -323 -430 -28 -44 -68 -107 -89 -140 -48 -77
-161 -305 -226 -459 -245 -582 -351 -1290 -304 -2046 30 -487 60 -777 87 -849
6 -13 18 -69 29 -124 43 -220 105 -218 155 6 12 56 28 116 34 132 18 45 106
394 145 579 39 179 79 411 96 556 33 274 138 594 310 945 554 1127 1604 1935
2839 2185 127 26 362 60 414 60 34 0 37 -2 37 -28 0 -44 -49 -111 -146 -197
-143 -127 -364 -352 -446 -455 -392 -490 -501 -945 -319 -1327 55 -114 111
-193 211 -297 95 -99 202 -186 332 -269 154 -99 154 -113 10 -261 -322 -333
-514 -601 -691 -966 -363 -750 -293 -1461 207 -2090 169 -213 501 -509 637
-568 404 -175 794 -274 1280 -324 151 -15 675 -15 813 0 95 11 106 15 156 51
78 58 153 147 177 211 12 30 24 89 27 131 11 179 -88 343 -255 422 -68 31 -69
32 -283 38 -241 8 -353 26 -524 86 -239 83 -425 201 -612 387 -144 145 -241
279 -320 442 -280 583 -184 1278 243 1769 120 139 306 286 458 363 80 40 144
98 180 163 26 48 30 64 30 139 0 127 -26 177 -143 269 -299 235 -462 565 -462
931 0 441 251 848 647 1046 l83 42 -52 7 c-241 30 -396 81 -457 151 -30 35
-18 51 94 124 33 22 66 44 73 50 37 32 -11 81 -105 109 -78 23 -123 58 -123
94 0 31 36 84 95 138 113 104 113 208 0 307 -64 56 -111 76 -250 107 -362 80
-809 112 -1185 83z m-3250 -4138 c34 -61 66 -108 70 -105 5 3 27 39 49 80 47
84 67 93 94 42 17 -32 17 -37 -13 -212 -26 -153 -66 -340 -121 -574 l-13 -54
-130 7 c-72 4 -133 12 -137 17 -7 11 -23 212 -40 506 l-12 193 63 96 c65 97
93 126 115 118 7 -3 40 -54 75 -114z"/>
<path d="M5590 7955 c0 -2 14 -12 31 -20 78 -41 149 -133 149 -195 0 -41 -35
-104 -83 -151 -126 -122 -114 -184 43 -229 79 -23 120 -52 120 -86 0 -7 -36
-38 -80 -68 -44 -31 -87 -68 -96 -81 -16 -24 -15 -27 2 -46 60 -66 190 -107
408 -128 93 -9 102 -9 165 15 99 37 207 109 294 196 97 96 117 138 116 238 -1
97 -28 145 -124 216 -133 100 -530 246 -917 338 -16 3 -28 4 -28 1z"/>
<path d="M2915 5881 c-155 -34 -289 -131 -364 -265 -51 -90 -66 -151 -66 -266
0 -76 5 -120 19 -160 56 -166 172 -287 336 -349 55 -21 82 -25 180 -25 98 0
125 4 180 25 164 62 280 183 336 349 14 40 19 84 19 160 0 76 -5 120 -19 160
-75 224 -261 366 -491 375 -49 2 -108 0 -130 -4z"/>
<path d="M6500 3219 c-57 -8 -119 -27 -192 -57 l-41 -18 39 -24 c45 -28 114
-89 114 -100 0 -4 14 -23 31 -41 42 -45 77 -117 98 -202 15 -63 16 -82 5 -171
-12 -94 -20 -128 -43 -166 -5 -8 -15 -28 -22 -44 -8 -17 -39 -56 -68 -89 l-55
-59 60 7 c92 10 276 62 376 105 96 41 269 141 327 189 l34 28 -76 -5 c-58 -3
-88 0 -122 12 -25 10 -47 21 -50 26 -2 4 26 18 63 30 147 49 287 135 386 234
61 61 123 143 115 151 -3 2 -26 -3 -52 -12 -65 -21 -115 -10 -334 76 -348 136
-431 154 -593 130z"/>
<path d="M5930 3139 c-25 -6 -49 -14 -53 -18 -4 -5 8 -44 27 -87 l35 -79 109
-3 110 -3 22 58 c38 102 38 110 -6 123 -55 16 -191 21 -244 9z"/>
<path d="M5765 3066 c-85 -57 -85 -56 -5 -120 84 -68 85 -76 37 -221 l-34
-100 -98 -10 c-64 -6 -100 -15 -103 -23 -5 -16 17 -110 28 -117 5 -3 24 3 42
14 18 10 53 30 78 45 25 14 54 26 65 26 11 0 59 -34 108 -76 101 -86 104 -96
65 -216 -12 -37 -19 -70 -15 -74 20 -20 247 -9 247 12 0 3 -11 27 -25 54 -41
80 -37 94 60 190 l85 84 37 -10 c21 -6 62 -21 91 -32 l53 -22 9 24 c5 13 12
40 15 60 l7 35 -98 3 -99 3 -37 100 c-53 140 -52 145 35 233 l72 73 -37 32
c-20 18 -49 40 -66 49 l-30 18 -27 -78 c-15 -42 -32 -83 -37 -89 -7 -9 -48
-13 -139 -13 -147 0 -135 -8 -186 112 -15 37 -33 68 -38 68 -6 0 -33 -15 -60
-34z m412 -248 c15 -21 53 -163 53 -201 0 -32 -6 -38 -85 -90 -47 -32 -93 -57
-102 -57 -27 0 -183 128 -183 150 0 23 57 179 72 197 15 18 232 18 245 1z"/>
<path d="M5923 2711 l-32 -91 74 -60 75 -61 77 52 c43 29 79 53 81 54 4 3 -46
176 -52 182 -2 3 -46 7 -98 10 l-93 5 -32 -91z"/>
<path d="M5623 2918 c-41 -68 -63 -136 -70 -216 l-6 -64 79 7 c43 4 86 9 95
11 19 5 85 202 72 214 -19 19 -127 100 -133 100 -3 0 -20 -24 -37 -52z"/>
<path d="M6333 2897 l-67 -64 38 -101 c21 -56 42 -102 47 -103 5 -1 18 -1 29
-1 11 0 48 0 81 1 l62 1 -6 69 c-3 39 -17 97 -30 131 -26 63 -66 130 -79 130
-4 0 -38 -29 -75 -63z"/>
<path d="M2535 2901 c-155 -34 -289 -131 -364 -265 -51 -90 -66 -151 -66 -266
0 -76 5 -120 19 -160 56 -166 172 -287 336 -349 55 -21 82 -25 180 -25 98 0
125 4 180 25 164 62 280 183 336 349 14 40 19 84 19 160 0 76 -5 120 -19 160
-75 224 -261 366 -491 375 -49 2 -108 0 -130 -4z"/>
<path d="M5695 2479 c-33 -21 -64 -40 -70 -42 -17 -6 16 -57 76 -116 56 -57
158 -117 181 -108 16 6 62 167 51 178 -45 42 -157 129 -166 128 -7 0 -39 -18
-72 -40z"/>
<path d="M6235 2420 l-79 -79 29 -61 c16 -33 34 -60 40 -60 17 0 106 58 143
93 33 31 92 109 92 122 0 3 -10 9 -22 14 -13 5 -46 18 -74 29 l-51 21 -78 -79z"/>
</g>
</svg>
