<?xml version="1.0" standalone="no"?>
<!DOCTYPE svg PUBLIC "-//W3C//DTD SVG 20010904//EN"
 "http://www.w3.org/TR/2001/REC-SVG-20010904/DTD/svg10.dtd">
<svg version="1.0" xmlns="http://www.w3.org/2000/svg"
 viewBox="0 0 1280.000000 1280.000000"
 preserveAspectRatio="xMidYMid meet">

<g transform="translate(0.000000,1280.000000) scale(0.100000,-0.100000)"
stroke="none">
<path d="M10143 11349 c-10 -12 -42 -48 -72 -80 -29 -32 -60 -68 -68 -79 -9
-12 -36 -41 -61 -63 -25 -23 -66 -64 -91 -91 -25 -27 -54 -57 -64 -65 -10 -9
-48 -44 -83 -78 -35 -35 -68 -63 -73 -63 -5 0 -22 -13 -39 -28 -17 -16 -39
-35 -50 -43 -11 -8 -46 -36 -79 -64 -32 -27 -76 -63 -98 -80 -21 -16 -58 -47
-81 -67 -23 -21 -46 -38 -53 -38 -6 0 -11 -4 -11 -8 0 -5 -23 -26 -51 -48 -28
-21 -74 -59 -103 -84 -29 -25 -72 -61 -95 -80 -24 -19 -60 -49 -80 -65 -56
-48 -130 -107 -180 -145 -71 -55 -115 -92 -251 -210 -25 -21 -62 -52 -83 -68
-20 -17 -59 -52 -85 -79 -26 -26 -90 -89 -142 -139 -177 -171 -276 -289 -381
-454 -70 -110 -65 -150 8 -68 89 99 369 368 420 403 12 8 39 32 60 53 21 20
53 48 72 62 18 13 43 33 55 45 30 27 82 70 120 97 17 13 45 37 61 53 17 17 46
41 65 55 19 13 37 27 40 31 3 4 27 24 54 44 28 21 55 42 60 47 6 4 40 31 76
58 71 55 122 96 148 121 25 23 162 132 181 144 9 6 18 12 21 15 16 16 127 107
146 120 33 22 216 178 289 245 22 21 58 50 81 65 22 16 52 44 66 62 14 18 48
58 77 88 28 30 68 79 88 108 20 28 40 52 45 52 4 0 8 7 8 15 0 8 13 29 29 47
31 35 104 169 126 230 16 44 4 59 -22 27z"/>
<path d="M6555 10347 c-27 -33 -62 -84 -67 -98 -4 -9 -27 -48 -52 -88 -25 -39
-46 -73 -46 -76 0 -2 -11 -21 -25 -41 -29 -42 -20 -74 20 -74 28 0 75 -20 75
-31 0 -17 87 -21 117 -6 30 16 113 120 153 192 12 22 26 44 31 50 18 18 9 64
-18 93 -27 29 -143 92 -167 92 -6 -1 -15 -6 -21 -13z"/>
<path d="M3873 10143 c-7 -2 -13 -11 -13 -19 0 -8 -4 -14 -8 -14 -5 0 -16 -17
-26 -37 -10 -21 -30 -53 -46 -73 -15 -19 -36 -51 -47 -70 -10 -19 -33 -57 -51
-84 -36 -55 -31 -81 16 -92 15 -3 32 -7 37 -9 6 -1 12 -2 15 -1 3 0 19 -9 37
-22 17 -12 40 -22 51 -22 29 0 93 51 127 101 17 24 37 52 45 61 8 9 29 43 47
76 31 59 31 60 13 88 -9 16 -26 36 -36 45 -17 14 -36 25 -126 70 -10 5 -19 9
-20 8 -2 0 -9 -3 -15 -6z"/>
<path d="M9262 9725 c-12 -14 -22 -28 -22 -31 0 -3 -11 -20 -24 -37 -14 -18
-42 -67 -64 -109 -21 -42 -51 -91 -65 -108 -39 -46 -36 -67 13 -75 22 -4 43
-11 46 -17 10 -16 95 -49 113 -43 35 11 113 95 175 189 36 54 66 104 66 112 0
29 -166 144 -208 144 -4 0 -18 -11 -30 -25z"/>
<path d="M6697 9348 c-14 -29 -35 -78 -47 -108 -11 -30 -24 -64 -29 -75 -5
-11 -23 -63 -40 -116 -24 -75 -31 -114 -31 -177 0 -125 -23 -209 -73 -266 -18
-19 -48 -56 -67 -81 -37 -47 -71 -59 -88 -29 -5 9 -4 38 2 70 8 46 6 65 -9
111 -35 101 -104 173 -169 173 -22 0 -40 -12 -75 -49 -57 -61 -91 -106 -91
-119 0 -6 -20 -44 -44 -84 -24 -41 -47 -85 -51 -99 -4 -13 -16 -33 -26 -44
-22 -24 -39 -98 -31 -128 18 -61 92 -107 171 -107 57 0 120 -22 122 -42 4 -43
-24 -93 -81 -146 -48 -44 -165 -130 -205 -149 -22 -11 -63 -33 -90 -49 -28
-16 -85 -47 -127 -69 -119 -62 -151 -132 -76 -168 44 -21 96 -13 183 28 114
52 180 109 322 278 12 14 27 35 33 47 6 12 28 44 49 71 20 27 43 65 50 86 24
64 68 130 122 180 56 51 78 74 94 95 6 7 34 42 63 78 28 36 52 70 52 77 0 6 4
13 8 15 12 5 92 154 92 171 0 8 6 20 14 26 8 7 17 26 20 44 3 18 15 50 25 70
10 20 22 63 26 94 4 32 12 67 19 78 6 11 14 76 18 145 4 69 10 146 13 173 10
66 -15 63 -48 -5z"/>
<path d="M8653 9327 c-11 -13 -28 -39 -39 -58 -10 -18 -23 -39 -29 -46 -5 -7
-15 -18 -20 -25 -6 -7 -20 -29 -32 -48 -12 -20 -31 -47 -43 -59 -30 -36 -26
-58 13 -66 17 -4 47 -16 64 -27 57 -34 94 -14 186 100 9 12 17 26 17 31 0 5 6
16 13 23 51 54 45 94 -25 150 -59 49 -80 53 -105 25z"/>
<path d="M5767 9290 c-33 -17 -64 -30 -70 -30 -13 0 -163 -63 -264 -111 -35
-16 -67 -29 -72 -29 -5 0 -50 -20 -99 -45 -49 -25 -93 -45 -97 -45 -9 0 -213
-96 -235 -110 -8 -6 -31 -17 -50 -26 -55 -24 -330 -163 -380 -191 -25 -14 -63
-36 -85 -48 -34 -20 -135 -74 -233 -124 -15 -7 -54 -30 -87 -50 -33 -21 -68
-40 -77 -44 -10 -3 -48 -27 -86 -52 -38 -25 -73 -45 -77 -45 -5 0 -23 -11 -41
-25 -18 -14 -38 -25 -44 -25 -7 0 -25 -11 -42 -25 -16 -14 -35 -25 -43 -25 -7
0 -18 -6 -24 -14 -7 -8 -26 -21 -44 -30 -18 -9 -106 -68 -197 -131 -91 -63
-194 -135 -230 -160 -36 -25 -94 -67 -130 -95 -36 -27 -81 -60 -100 -73 -83
-57 -242 -199 -395 -353 -115 -116 -135 -138 -136 -151 0 -4 -18 -22 -39 -39
-21 -17 -64 -67 -94 -110 -30 -44 -72 -103 -93 -132 -47 -66 -77 -115 -102
-167 -11 -22 -38 -72 -59 -111 -22 -39 -54 -107 -72 -150 -18 -43 -48 -115
-66 -159 -19 -44 -34 -88 -34 -98 0 -9 -4 -26 -10 -37 -5 -11 -15 -29 -21 -41
-5 -11 -13 -44 -15 -72 -3 -29 -12 -68 -19 -87 -7 -19 -16 -59 -20 -88 -4 -31
-13 -56 -21 -59 -18 -7 -21 -282 -3 -300 10 -10 34 -69 59 -147 23 -72 109
-112 171 -81 40 21 99 79 99 99 0 8 4 16 8 18 4 2 19 35 34 74 33 92 23 111
-107 198 -113 77 -164 167 -151 270 11 96 34 201 50 231 9 17 16 37 16 46 0
56 201 392 295 494 25 28 53 62 62 76 26 44 309 317 433 420 36 29 67 57 68
61 2 4 9 8 15 8 7 0 31 17 54 38 81 71 96 83 122 98 14 8 46 30 71 49 25 19
86 62 135 96 50 34 110 76 135 93 25 17 52 36 61 41 9 6 29 19 45 29 57 38
130 83 164 102 19 10 37 22 38 27 2 4 8 7 13 7 6 0 34 16 64 35 30 19 78 46
106 61 29 14 59 32 67 40 7 8 19 14 26 14 7 0 25 9 40 21 31 25 86 56 176 101
36 18 67 35 70 38 10 12 597 306 735 370 39 17 93 42 120 55 28 13 61 28 75
34 14 6 32 15 40 20 8 5 47 22 85 37 39 15 77 34 86 41 8 7 19 13 24 13 4 0
35 12 69 26 33 14 72 31 86 36 134 53 198 89 221 123 13 19 27 35 32 35 4 0 7
6 7 13 0 7 9 32 20 55 11 22 20 47 20 55 0 8 8 22 19 31 18 16 20 24 24 96 3
47 -20 49 -96 10z"/>
<path d="M10083 9259 c-7 -7 -13 -18 -13 -23 0 -6 -14 -45 -31 -86 -17 -41
-37 -104 -45 -140 -8 -36 -24 -88 -34 -116 -15 -43 -20 -92 -25 -270 -4 -119
-11 -228 -16 -241 -5 -14 -9 -48 -9 -77 0 -103 -41 -279 -88 -376 -41 -83
-121 -200 -138 -200 -5 -1 -22 -18 -39 -39 -16 -21 -53 -56 -82 -77 -29 -21
-54 -43 -57 -50 -3 -7 -32 -31 -65 -54 -57 -38 -77 -68 -48 -71 36 -4 105 5
127 16 14 8 47 21 73 31 50 18 60 29 150 164 43 65 59 94 110 200 69 145 150
449 162 605 3 44 10 107 15 140 6 33 12 89 14 125 3 36 9 135 15 220 6 85 18
183 27 216 18 71 17 123 -3 103z"/>
<path d="M7410 9179 c0 -8 -11 -36 -25 -64 -13 -27 -25 -59 -25 -70 0 -11 -10
-40 -21 -65 -11 -25 -25 -67 -30 -95 -6 -27 -12 -61 -15 -74 -3 -13 -9 -32
-14 -41 -5 -9 -16 -50 -25 -91 -89 -404 -127 -810 -91 -962 18 -75 59 -134
112 -159 47 -22 151 -29 162 -11 4 6 25 18 47 27 43 18 110 83 169 166 42 59
196 369 196 395 0 9 5 25 10 35 15 28 50 200 62 306 10 88 10 93 -17 160 -31
78 -54 108 -105 134 -37 19 -107 36 -125 31 -5 -1 -36 -7 -68 -12 -117 -19
-178 -89 -237 -272 -22 -67 -40 -87 -79 -87 -30 0 -36 38 -17 103 9 30 16 65
16 77 0 12 9 54 20 93 10 40 26 108 36 152 9 44 24 112 34 150 32 123 42 176
36 182 -3 4 -6 0 -6 -8z m157 -770 c35 -6 63 -14 63 -19 0 -4 18 -15 40 -25
24 -11 49 -32 62 -54 12 -20 31 -47 44 -61 27 -30 44 -88 33 -115 -13 -34
-101 -120 -154 -151 -45 -26 -58 -29 -141 -29 -83 0 -95 2 -140 30 -39 24 -56
43 -82 95 -32 63 -33 68 -28 154 4 50 11 93 17 97 6 3 10 10 8 15 -1 5 11 16
27 24 16 8 31 18 32 23 2 4 17 7 32 7 16 0 32 5 35 10 8 13 73 13 152 -1z"/>
<path d="M9703 9013 c-14 -32 -34 -78 -43 -103 -10 -25 -27 -70 -40 -100 -33
-82 -38 -115 -39 -233 0 -112 -8 -177 -21 -177 -4 0 -17 -20 -30 -45 -29 -56
-78 -87 -132 -83 -36 2 -43 -2 -98 -60 -52 -55 -62 -62 -97 -62 -22 0 -44 5
-49 10 -7 7 -17 4 -30 -7 -117 -106 -181 -116 -274 -42 -28 22 -64 45 -81 51
-37 13 -159 -7 -206 -33 -19 -11 -41 -19 -51 -19 -17 0 -37 -10 -152 -72 -141
-77 -247 -149 -330 -227 -22 -20 -56 -49 -76 -65 -20 -16 -43 -45 -51 -65 -8
-20 -30 -52 -49 -71 -33 -35 -74 -131 -74 -175 0 -27 -13 -38 -62 -56 -64 -22
-107 -78 -205 -264 -101 -193 -109 -234 -60 -299 26 -33 120 -72 150 -60 8 3
34 0 56 -6 52 -14 71 -47 51 -86 -26 -47 -176 -180 -245 -217 -16 -9 -49 -26
-72 -37 -24 -12 -43 -26 -43 -30 0 -5 -17 -14 -37 -21 -21 -6 -50 -20 -65 -30
-14 -11 -31 -19 -36 -19 -5 0 -35 -21 -66 -47 -50 -40 -57 -50 -54 -77 5 -48
49 -66 130 -53 70 10 95 21 183 80 82 55 143 112 184 172 19 28 51 70 71 95
48 60 138 205 146 236 3 13 43 61 88 107 44 45 94 100 110 121 16 22 47 55 68
74 21 19 38 40 38 47 0 8 10 22 23 32 12 10 42 45 67 78 56 74 72 94 135 166
169 193 195 227 195 257 0 46 -55 51 -235 22 -111 -18 -333 -24 -351 -10 -7 7
-14 17 -14 22 0 23 155 146 209 166 9 3 27 12 40 21 77 49 334 135 398 133 32
-1 91 -33 139 -75 37 -32 161 -40 219 -13 50 22 148 60 237 90 37 13 84 36
105 52 40 30 62 44 128 77 22 11 48 29 58 41 10 12 29 33 42 47 47 53 129 181
145 227 10 26 23 63 30 82 7 19 19 47 26 62 8 14 14 40 14 56 0 17 4 42 9 56
15 38 26 416 12 416 -6 0 -23 -26 -38 -57z m-1503 -1598 c18 -21 1 -60 -67
-155 -32 -44 -75 -109 -95 -143 -42 -68 -77 -92 -115 -74 -26 12 -32 37 -20
92 11 52 -14 135 -55 181 -39 44 -36 87 5 92 16 2 41 -1 57 -6 21 -8 35 -6 56
5 21 10 45 13 84 8 31 -3 62 -1 70 5 22 15 66 12 80 -5z"/>
<path d="M8866 8908 c-19 -18 -55 -61 -80 -95 -41 -57 -50 -63 -81 -63 -19 0
-35 3 -35 8 0 12 -97 72 -118 72 -19 0 -89 -81 -127 -147 -11 -18 -23 -33 -27
-33 -4 0 -8 -6 -8 -13 0 -8 -16 -28 -35 -46 -19 -17 -35 -36 -35 -41 0 -15 30
-40 48 -40 9 0 32 -9 51 -21 66 -40 115 -25 161 49 34 56 79 92 115 92 15 0
55 -14 90 -31 60 -28 65 -29 87 -15 27 18 52 45 88 96 13 19 27 37 30 40 15
12 60 86 60 99 0 23 -110 121 -136 121 -7 0 -29 -15 -48 -32z"/>
<path d="M10432 8560 c-12 -12 -22 -26 -22 -32 0 -10 -102 -227 -146 -310 -22
-41 -17 -53 36 -100 64 -56 134 -156 150 -213 22 -78 10 -134 -44 -204 -26
-33 -50 -61 -54 -61 -4 0 -32 -23 -62 -51 -30 -29 -71 -63 -90 -78 -19 -14
-48 -38 -65 -54 -16 -15 -62 -53 -102 -85 -39 -31 -80 -72 -90 -89 -16 -31
-17 -34 0 -50 15 -15 22 -16 64 -4 46 12 132 49 143 62 3 3 12 8 21 11 59 22
211 174 268 268 40 68 131 259 131 277 0 10 7 28 15 41 9 12 22 52 30 89 8 38
18 86 24 108 29 112 -3 300 -67 394 -36 52 -88 101 -109 101 -5 0 -19 -9 -31
-20z"/>
<path d="M6708 8398 c-16 -25 -26 -54 -56 -163 -44 -157 -59 -221 -92 -375 -5
-25 -16 -74 -24 -110 -8 -36 -17 -83 -19 -105 -3 -22 -13 -83 -22 -135 -36
-204 -53 -534 -35 -660 26 -177 58 -253 121 -285 28 -15 34 -15 79 0 27 9 58
26 69 38 38 41 71 82 71 89 0 4 6 13 13 20 58 65 178 350 156 373 -7 7 -16 3
-27 -10 -31 -37 -80 -65 -125 -71 -37 -5 -53 -2 -84 17 -49 30 -58 41 -95 119
-38 82 -43 119 -42 310 0 151 5 224 24 325 5 28 14 84 21 125 6 41 23 131 36
200 14 69 29 150 33 180 5 30 14 70 20 88 16 43 0 64 -22 30z"/>
<path d="M6130 7535 c-14 -8 -41 -20 -60 -26 -19 -6 -42 -17 -50 -24 -8 -7
-36 -17 -61 -23 -26 -7 -96 -34 -158 -62 -61 -27 -115 -50 -121 -50 -5 0 -10
-4 -10 -9 0 -5 -12 -12 -27 -15 -16 -4 -70 -27 -121 -52 -51 -24 -97 -44 -101
-44 -4 0 -109 -51 -233 -114 -125 -62 -238 -116 -252 -120 -14 -3 -26 -10 -26
-15 0 -4 -30 -23 -67 -41 -38 -18 -113 -59 -169 -91 -55 -33 -105 -59 -111
-59 -5 0 -31 -16 -58 -35 -27 -19 -61 -37 -76 -40 -15 -3 -35 -15 -45 -26 -9
-10 -23 -19 -30 -19 -7 0 -14 -3 -16 -7 -1 -5 -32 -23 -68 -42 -36 -19 -79
-45 -96 -58 -17 -13 -34 -23 -38 -23 -12 0 -159 -90 -186 -114 -14 -12 -44
-31 -67 -42 -24 -10 -43 -22 -43 -26 0 -5 -5 -8 -10 -8 -6 0 -21 -9 -33 -21
-12 -11 -38 -29 -58 -39 -19 -10 -55 -35 -78 -54 -24 -20 -47 -36 -52 -36 -5
0 -46 -28 -92 -62 -46 -35 -96 -72 -111 -83 -16 -11 -33 -24 -40 -30 -6 -5
-49 -39 -96 -74 -47 -35 -95 -74 -106 -85 -12 -12 -45 -41 -74 -66 -29 -25
-78 -69 -109 -97 -30 -29 -58 -53 -62 -53 -7 0 -220 -244 -272 -310 -113 -146
-167 -228 -250 -380 -19 -36 -51 -95 -71 -131 -20 -37 -36 -73 -36 -82 0 -8
-12 -41 -26 -73 -50 -115 -63 -150 -88 -234 -14 -47 -28 -105 -32 -130 -3 -25
-10 -50 -16 -56 -17 -22 -30 -198 -26 -349 4 -144 6 -153 36 -215 37 -77 47
-89 91 -112 43 -24 54 -23 100 8 72 47 161 217 145 278 -6 26 -66 80 -118 106
-35 18 -118 103 -130 133 -32 82 -34 111 -14 221 10 60 25 121 33 137 8 15 15
37 15 49 0 11 11 38 25 60 14 22 25 45 25 51 0 6 16 38 35 70 19 33 35 63 35
66 0 14 78 128 131 191 31 37 60 75 66 86 40 74 303 330 523 510 58 48 116 95
129 106 13 11 31 25 41 30 10 6 24 16 32 23 20 19 157 117 164 117 5 0 79 55
121 90 7 5 17 10 23 10 6 0 13 7 16 15 4 8 11 15 17 15 6 0 49 27 97 59 48 32
107 69 131 81 24 13 72 42 106 66 35 24 65 44 67 44 8 0 200 111 206 119 3 4
21 13 40 21 19 7 54 26 77 41 22 15 52 30 65 34 12 4 30 13 38 20 33 29 237
135 258 135 7 0 15 7 18 15 4 8 11 15 17 15 10 0 169 74 237 109 8 4 71 36
140 70 69 35 141 71 160 81 19 10 60 28 90 40 30 11 78 32 105 44 57 27 154
72 237 110 31 14 59 26 62 26 3 0 49 20 102 45 53 25 100 45 105 45 20 0 68
44 80 74 7 17 16 33 19 36 21 16 100 216 100 252 0 22 -34 24 -70 3z"/>
<path d="M4182 7419 c-9 -17 -24 -39 -33 -50 -9 -10 -27 -40 -40 -66 -13 -26
-28 -52 -32 -58 -39 -50 -86 -134 -87 -152 0 -18 6 -23 25 -24 34 -2 33 -2 96
-32 31 -15 64 -27 74 -27 20 0 145 118 145 136 0 6 14 28 30 49 17 21 30 43
30 50 0 6 9 20 20 30 11 10 20 23 20 29 0 19 -92 102 -137 125 -61 30 -90 28
-111 -10z"/>
<path d="M10405 7178 c-11 -5 -36 -32 -55 -60 -85 -122 -95 -133 -126 -136
-21 -2 -41 6 -69 28 -21 17 -58 35 -82 41 -24 6 -43 15 -43 20 0 20 -40 7 -60
-18 -57 -72 -200 -285 -200 -299 0 -8 8 -17 18 -20 9 -3 50 -22 90 -40 95 -46
90 -48 234 129 17 20 39 37 50 37 24 0 125 -46 145 -65 23 -24 62 -18 91 14
84 90 172 218 172 251 0 25 -103 130 -127 129 -10 0 -27 -5 -38 -11z"/>
<path d="M9025 6863 c-36 -54 -80 -117 -96 -141 -31 -43 -33 -72 -5 -72 8 0
38 -13 68 -28 36 -19 61 -26 74 -22 52 20 191 222 179 262 -9 25 -107 98 -133
98 -15 0 -39 -26 -87 -97z"/>
<path d="M10994 6868 c-32 -51 -84 -159 -84 -175 0 -6 -4 -13 -9 -15 -10 -3
-78 -179 -92 -238 -45 -191 -50 -202 -113 -266 -23 -22 -81 -69 -131 -105 -49
-35 -91 -67 -93 -71 -2 -5 -10 -8 -18 -8 -8 0 -14 -4 -14 -10 0 -5 -4 -10 -9
-10 -5 0 -56 -26 -113 -58 -92 -52 -193 -103 -354 -178 -28 -13 -57 -24 -65
-24 -8 0 -23 -6 -34 -14 -29 -19 -223 -74 -304 -86 -38 -5 -82 -15 -97 -21
-30 -12 -98 -16 -299 -18 -177 -2 -365 22 -490 61 -73 23 -221 30 -234 11 -3
-5 -22 -15 -41 -22 -19 -6 -60 -30 -92 -51 -31 -22 -59 -40 -63 -40 -3 0 -12
-6 -20 -12 -18 -18 -89 -78 -162 -138 -35 -29 -63 -55 -63 -59 0 -4 -8 -16
-19 -27 -42 -46 -95 -122 -117 -169 -12 -27 -30 -61 -38 -75 -26 -42 -73 -152
-86 -202 -7 -27 -9 -63 -5 -85 6 -37 48 -93 69 -93 6 0 25 -7 41 -16 17 -9 58
-25 92 -35 56 -18 64 -23 71 -52 9 -34 0 -75 -21 -92 -7 -5 -35 -41 -62 -80
-28 -38 -111 -131 -186 -205 -137 -136 -149 -148 -227 -209 -24 -19 -53 -42
-65 -52 -39 -32 -105 -83 -142 -109 -20 -14 -55 -40 -78 -57 -23 -18 -47 -33
-54 -33 -6 0 -13 -4 -15 -8 -3 -7 -111 -76 -243 -155 -157 -94 -405 -216 -512
-252 -26 -9 -53 -21 -59 -26 -6 -5 -35 -18 -65 -28 -108 -38 -144 -52 -164
-61 -32 -15 -212 -71 -274 -85 -31 -7 -94 -22 -141 -33 -156 -38 -338 -71
-416 -76 -23 -2 -59 -7 -80 -12 -22 -4 -66 -9 -99 -10 -33 -1 -100 -7 -150
-12 -114 -13 -510 -13 -635 0 -52 5 -135 11 -185 12 -49 1 -101 6 -115 11 -14
5 -52 10 -85 11 -33 1 -89 7 -125 12 -36 6 -97 15 -137 21 -40 6 -102 17 -140
26 -37 9 -83 18 -103 20 -19 3 -75 16 -125 30 -49 14 -101 28 -115 31 -24 5
-126 40 -180 62 -14 6 -52 20 -85 32 -61 22 -148 60 -197 86 -114 61 -87 -87
44 -230 23 -27 70 -68 103 -92 33 -25 69 -53 80 -62 18 -17 162 -102 170 -102
4 0 85 -37 180 -81 41 -19 211 -70 255 -76 25 -3 64 -14 86 -24 23 -9 68 -20
100 -24 84 -9 203 -35 210 -46 3 -5 23 -9 44 -9 23 0 45 -7 55 -17 23 -23 139
-32 420 -32 299 0 434 10 447 32 6 12 22 17 49 17 22 0 50 6 62 14 12 8 74 21
137 30 167 23 175 24 175 26 0 2 11 5 150 39 66 16 143 35 170 43 28 9 86 25
130 37 44 12 84 26 90 30 5 5 19 11 30 14 11 3 70 23 132 45 61 22 114 38 117
35 3 -4 6 -1 6 5 0 6 10 14 23 17 25 8 56 21 139 59 31 14 60 26 65 26 5 0 25
11 45 25 20 14 41 25 47 25 16 0 179 79 186 90 3 6 15 10 26 10 10 0 19 4 19
8 0 5 28 22 62 38 49 23 193 112 263 162 6 4 47 31 92 61 45 29 93 63 107 75
13 11 43 37 67 56 23 19 47 40 53 45 6 6 27 22 46 35 29 20 104 89 259 240 35
35 138 154 161 188 14 21 50 71 81 112 30 41 71 102 90 135 19 33 39 69 46 80
29 49 70 160 82 225 5 30 14 68 20 83 18 47 13 77 -24 133 -25 37 -44 54 -64
59 -16 3 -35 13 -42 21 -6 8 -19 14 -29 14 -24 0 -67 36 -85 71 -23 44 -13 89
33 152 43 58 127 134 143 129 5 -1 9 2 9 8 0 5 13 16 29 25 16 8 35 20 43 27
18 19 137 68 179 74 51 8 69 -3 172 -104 52 -50 99 -92 104 -92 6 0 32 -10 59
-22 43 -19 73 -22 242 -27 106 -3 205 -3 220 0 15 4 65 12 112 19 127 19 271
57 405 108 59 23 209 93 215 101 3 4 23 12 45 19 23 6 50 20 60 29 11 10 38
26 60 37 22 10 59 31 83 47 24 16 49 29 56 29 7 0 30 16 52 35 21 20 59 49 84
65 25 16 65 48 90 69 25 22 67 59 94 81 26 23 71 68 100 102 28 34 63 75 79
91 15 15 27 31 27 33 0 2 20 32 45 66 25 34 45 67 45 74 0 7 4 14 9 16 4 2 31
50 59 108 49 100 104 263 122 360 5 25 21 83 35 130 39 122 40 130 21 130 -9
0 -28 -19 -42 -42z"/>
<path d="M7878 6582 c-28 -32 -105 -147 -132 -197 -35 -65 -48 -86 -63 -103
-29 -31 -14 -47 79 -86 91 -39 91 -39 124 -21 46 25 85 68 153 169 46 69 58
95 55 118 -5 46 -15 54 -128 114 -41 22 -72 25 -88 6z"/>
<path d="M9292 6522 c-20 -22 -55 -65 -77 -96 -51 -72 -80 -75 -157 -16 -66
50 -98 52 -126 8 -12 -18 -37 -55 -56 -83 -20 -27 -36 -53 -36 -58 0 -4 -20
-28 -45 -55 -57 -60 -58 -78 -3 -93 23 -6 62 -20 86 -31 l43 -21 33 24 c19 13
52 49 75 79 52 70 82 83 136 62 22 -9 42 -19 45 -23 3 -4 17 -12 31 -17 34
-13 78 6 110 48 13 17 39 48 58 68 34 38 68 107 63 130 -6 24 -55 73 -92 89
-19 9 -39 18 -43 21 -5 2 -25 -14 -45 -36z"/>
<path d="M6760 6090 c-20 -22 -55 -66 -76 -97 -22 -32 -46 -63 -54 -70 -26
-21 -60 -14 -101 21 -22 19 -59 39 -82 46 -23 6 -47 13 -53 16 -15 6 -83 -65
-90 -93 -4 -13 -10 -23 -14 -23 -8 0 -140 -187 -140 -199 0 -8 19 -18 124 -67
l58 -27 37 21 c20 11 51 42 69 69 73 106 111 125 170 85 28 -19 109 -52 129
-52 13 0 96 67 103 84 3 7 17 28 33 47 15 20 27 41 27 47 0 7 4 12 8 12 5 0
17 17 26 39 17 36 17 40 1 72 -10 18 -23 38 -29 44 -39 36 -80 65 -93 65 -8 0
-32 -18 -53 -40z"/>
<path d="M7395 5774 c-27 -29 -30 -36 -44 -116 -24 -133 -48 -154 -173 -143
l-77 6 -26 -39 c-15 -23 -31 -70 -40 -117 -9 -44 -21 -96 -27 -117 -10 -34 -8
-41 14 -75 20 -30 37 -42 80 -56 30 -9 61 -17 70 -17 28 0 55 44 62 100 10 83
29 174 38 187 6 7 49 11 127 11 151 -1 157 3 166 96 3 39 15 120 27 180 17 91
18 110 7 117 -8 5 -51 9 -97 9 -77 0 -85 -2 -107 -26z"/>
<path d="M9566 4797 c-10 -17 -27 -46 -36 -63 -10 -18 -34 -54 -54 -81 -20
-28 -36 -55 -36 -61 0 -5 -16 -33 -35 -62 -41 -61 -43 -76 -12 -85 12 -4 50
-20 85 -36 35 -16 73 -29 85 -29 38 1 112 80 191 203 54 86 56 107 12 151 -36
35 -142 96 -168 96 -7 0 -21 -15 -32 -33z"/>
<path d="M9443 3998 c-5 -7 -15 -32 -22 -55 -6 -24 -16 -43 -21 -43 -5 0 -12
-16 -16 -35 -3 -19 -12 -39 -20 -46 -8 -6 -14 -17 -14 -23 0 -24 -109 -226
-137 -254 -7 -7 -13 -18 -13 -24 0 -16 -129 -140 -186 -178 -27 -19 -51 -36
-54 -39 -3 -4 -22 -15 -43 -26 -21 -11 -46 -27 -55 -35 -9 -8 -33 -24 -54 -34
-95 -51 -188 -143 -188 -187 0 -10 15 -29 33 -43 31 -24 33 -24 97 -11 59 12
127 39 140 54 3 4 28 24 57 45 29 22 74 64 100 95 53 61 143 182 143 192 0 4
16 31 35 60 19 30 35 57 35 61 0 4 16 43 36 85 54 119 61 135 77 183 9 25 22
61 30 80 23 52 60 180 55 186 -3 2 -10 -1 -15 -8z"/>
<path d="M8697 3959 c-10 -24 -27 -60 -37 -79 -10 -19 -33 -71 -50 -115 -18
-44 -39 -87 -46 -96 -8 -8 -14 -21 -14 -27 0 -7 -4 -12 -10 -12 -5 0 -9 -3 -8
-7 11 -38 -196 -263 -291 -317 -11 -6 -42 -24 -70 -40 -28 -16 -51 -33 -51
-38 0 -4 -5 -8 -11 -8 -7 0 -48 -24 -93 -54 -62 -42 -87 -65 -105 -100 -44
-85 -3 -124 106 -102 101 22 183 73 280 176 92 97 140 162 183 246 19 38 38
71 41 74 3 3 12 23 20 45 7 22 19 47 26 56 7 8 13 21 13 28 0 6 14 38 30 71
17 33 30 64 30 70 0 6 9 31 20 54 11 24 22 63 26 87 4 24 13 57 21 72 8 16 13
35 11 44 -2 9 -11 -4 -21 -28z"/>
</g>
</svg>
