<?xml version="1.0" standalone="no"?>
<!DOCTYPE svg PUBLIC "-//W3C//DTD SVG 20010904//EN"
 "http://www.w3.org/TR/2001/REC-SVG-20010904/DTD/svg10.dtd">
<svg version="1.0" xmlns="http://www.w3.org/2000/svg"
 viewBox="0 0 1056.000000 827.000000"
 preserveAspectRatio="xMidYMid meet">

<g transform="translate(0.000000,827.000000) scale(0.100000,-0.100000)" stroke="none">
<path d="M4279 8192 c-9 -15 -81 -108 -160 -208 -79 -100 -209 -264 -289 -365
-80 -101 -190 -240 -245 -310 -55 -69 -165 -209 -245 -310 -395 -500 -984
-1245 -1185 -1498 -76 -97 -189 -239 -250 -316 -364 -464 -479 -607 -499 -616
-11 -6 -34 -24 -51 -39 -44 -40 -163 -120 -178 -120 -18 0 -35 21 -84 105
-137 235 -356 365 -619 369 -97 1 -103 0 -169 -34 -128 -65 -195 -180 -195
-334 0 -249 153 -419 449 -500 52 -14 99 -30 104 -35 7 -7 -7 -36 -40 -83 -90
-133 -123 -239 -123 -403 0 -114 13 -187 51 -293 73 -200 181 -338 379 -486
140 -105 142 -109 63 -121 -231 -34 -452 -224 -508 -436 -19 -69 -19 -128 0
-207 20 -85 48 -135 108 -200 155 -163 391 -193 622 -78 192 96 326 288 385
551 40 181 37 175 70 175 16 0 40 -4 53 -9 14 -6 58 -17 99 -25 542 -113 628
-136 807 -223 179 -87 273 -192 303 -337 10 -44 9 -59 0 -68 -9 -9 -17 -9 -26
-3 -7 6 -41 31 -75 57 -95 72 -155 92 -281 93 -99 0 -109 -2 -178 -34 -83 -39
-133 -88 -169 -168 -51 -110 -17 -265 80 -363 99 -102 217 -150 382 -157 61
-3 115 -10 122 -15 21 -17 -65 -167 -166 -288 -197 -237 -415 -397 -700 -514
-126 -52 -198 -74 -386 -116 -77 -17 -146 -38 -154 -45 -24 -23 2 -41 80 -54
96 -18 184 -15 324 9 484 83 950 421 1197 869 10 17 24 34 32 37 9 4 43 -19
88 -58 163 -142 262 -198 395 -224 100 -19 246 -18 314 2 123 36 213 124 244
239 18 64 18 70 1 133 -19 71 -42 111 -91 155 -79 71 -186 121 -331 153 -59
13 -127 18 -271 18 -114 1 -196 5 -202 11 -6 6 -6 30 0 65 12 68 3 263 -16
348 -43 185 -188 346 -410 452 -112 54 -191 79 -448 143 -98 25 -181 47 -184
50 -8 8 25 47 87 102 75 66 130 142 158 218 20 52 23 75 19 147 -5 97 -27 156
-88 237 -126 167 -324 184 -492 43 -155 -130 -237 -301 -237 -496 0 -51 -3
-99 -6 -108 -10 -25 -55 -19 -166 23 -371 139 -594 336 -691 608 -28 80 -31
99 -31 213 0 118 1 129 31 198 46 108 115 202 147 202 2 0 29 -35 59 -78 61
-87 118 -141 222 -212 171 -116 304 -161 475 -161 254 0 418 122 437 326 7 72
-16 169 -53 233 -59 100 -181 191 -309 228 -52 15 -86 16 -248 10 -165 -5
-188 -4 -194 10 -7 18 29 59 109 120 l56 44 1021 0 1021 0 0 -765 c0 -723 1
-765 18 -774 25 -13 258 -48 517 -76 479 -53 1100 -76 1515 -56 276 13 632 40
640 47 3 3 10 28 16 56 l12 51 -82 -7 c-341 -29 -492 -37 -781 -42 -340 -7
-675 4 -1030 32 -196 15 -542 55 -652 75 l-63 11 0 724 0 724 1778 2 c1696 3
1779 4 1805 21 16 10 31 26 34 35 4 9 24 38 46 64 l39 48 -30 51 -29 51 -42
-54 c-24 -29 -47 -53 -52 -53 -7 0 -135 168 -359 475 -38 52 -113 154 -167
227 -377 507 -730 987 -743 1007 -8 14 -12 27 -10 29 3 2 111 49 240 105 287
122 744 318 785 337 17 7 188 81 380 163 193 83 535 230 760 327 226 97 518
223 650 280 132 57 456 196 719 309 263 114 481 204 483 202 3 -3 -39 -60 -93
-128 -54 -68 -130 -163 -169 -213 -383 -482 -1136 -1438 -1147 -1454 -11 -19
-9 -25 23 -57 l37 -36 102 128 c56 71 106 131 111 132 5 2 9 -141 9 -328 l0
-332 48 -43 c26 -24 50 -41 55 -38 4 2 7 206 7 452 l0 448 257 324 c141 178
290 367 332 420 623 789 573 729 611 729 52 0 83 -20 97 -62 15 -46 -2 -120
-40 -175 -58 -84 -63 -157 -17 -221 29 -40 37 -73 24 -106 -7 -18 -88 -71
-124 -81 -57 -17 -100 -82 -100 -153 0 -50 42 -116 103 -162 74 -56 74 -57 22
-208 -56 -162 -79 -300 -72 -432 6 -109 13 -132 121 -385 122 -285 121 -281
121 -425 0 -121 -1 -128 -32 -190 -18 -37 -67 -104 -112 -155 -70 -78 -93
-114 -172 -270 -49 -99 -100 -189 -112 -199 -12 -11 -68 -41 -125 -68 -70 -33
-106 -56 -111 -71 -18 -48 13 -64 94 -48 28 5 53 6 57 2 4 -3 -36 -117 -90
-251 -54 -135 -129 -323 -166 -417 -37 -95 -72 -173 -77 -173 -5 0 -9 1 -9 3
0 1 -16 47 -35 102 -102 289 -84 472 62 635 26 29 44 60 49 84 l7 38 -44 -7
c-87 -13 -249 -147 -334 -275 -58 -88 -78 -154 -77 -255 1 -117 21 -179 147
-455 37 -80 76 -170 88 -201 21 -55 21 -55 1 -117 -10 -34 -23 -60 -29 -59 -5
2 -49 93 -98 203 -48 109 -122 272 -163 361 -93 204 -109 260 -94 345 19 113
29 134 92 189 62 54 154 163 181 214 31 62 57 151 57 200 0 63 -22 100 -91
155 -51 40 -245 140 -272 140 -7 0 -17 4 -22 9 -20 18 -184 62 -345 91 -91 17
-170 33 -177 35 -9 3 -7 16 7 47 25 56 25 101 -1 155 -50 103 -171 129 -267
57 -49 -38 -64 -76 -60 -152 3 -74 3 -74 -92 -87 -407 -52 -454 -65 -507 -146
-38 -58 -40 -116 -8 -250 20 -86 38 -134 72 -194 73 -126 86 -201 57 -317 -14
-56 -37 -99 -76 -140 -19 -20 -182 -209 -225 -261 -21 -25 -105 -123 -188
-218 -82 -95 -161 -187 -175 -205 -39 -50 -248 -299 -325 -388 -150 -173 -185
-247 -192 -406 -8 -181 30 -280 157 -409 116 -119 228 -199 395 -284 172 -88
210 -101 525 -191 377 -106 535 -128 935 -128 204 0 276 4 392 21 239 36 483
117 616 205 106 71 208 210 223 308 4 21 10 36 14 33 4 -2 5 6 3 18 -3 17 7
30 45 60 98 74 170 185 202 312 41 159 23 250 -93 482 -47 92 -102 197 -123
233 -100 172 -117 225 -91 295 8 22 41 101 72 175 31 74 85 205 119 290 35 85
93 225 128 310 36 85 70 170 78 188 28 70 45 82 119 82 59 0 70 -3 91 -25 20
-22 22 -31 17 -82 -6 -58 -73 -250 -104 -301 -27 -43 -55 -73 -95 -98 -21 -14
-38 -32 -38 -42 0 -20 81 -81 142 -106 88 -37 128 -16 198 104 84 144 200 422
200 480 0 44 -24 70 -101 110 -49 25 -89 55 -108 79 -39 49 -100 75 -153 66
l-39 -7 35 69 c19 37 55 95 80 128 163 213 312 522 379 790 102 403 49 779
-150 1069 -19 27 -33 56 -31 64 2 9 37 32 78 53 86 44 120 77 145 143 15 39
16 53 7 85 -19 61 -54 104 -109 134 -88 47 -158 160 -169 273 -5 54 -2 68 36
159 37 88 42 107 38 161 -5 81 -41 138 -95 153 -26 8 -956 11 -2963 11 l-2925
0 -16 -28z m5351 -80 c0 -5 -48 -29 -107 -54 -60 -25 -403 -173 -763 -328
-360 -155 -817 -352 -1015 -437 -198 -85 -515 -221 -705 -303 -190 -82 -509
-219 -710 -306 -201 -86 -416 -179 -479 -206 -63 -27 -118 -45 -122 -41 -4 5
-57 74 -116 155 -170 231 -802 1085 -1020 1379 -51 69 -93 131 -93 138 0 8
647 11 2565 11 1411 0 2565 -4 2565 -8z m-5065 -283 c110 -149 261 -353 335
-453 74 -100 182 -246 240 -325 58 -79 192 -260 298 -403 106 -144 191 -262
190 -264 -3 -3 -393 -171 -1128 -487 -212 -91 -459 -198 -550 -237 -91 -40
-190 -82 -220 -95 -30 -12 -152 -64 -270 -115 -118 -51 -249 -108 -290 -125
-41 -18 -201 -86 -355 -153 -990 -426 -1168 -502 -1171 -499 -3 3 18 30 225
292 152 192 251 317 360 455 41 52 107 136 146 185 40 50 235 297 435 550 200
253 386 489 415 525 74 93 997 1261 1064 1347 31 39 61 72 66 72 6 1 100 -121
210 -270z m1177 -1592 c20 -29 169 -230 330 -448 161 -218 372 -503 468 -634
96 -130 235 -317 308 -415 72 -98 132 -181 132 -184 0 -3 -1195 -6 -2655 -6
-1460 0 -2655 3 -2655 8 0 4 82 42 183 84 100 42 403 172 672 289 270 116 515
221 545 234 30 12 188 80 350 150 162 71 329 142 370 160 131 55 1181 508
1540 663 190 83 352 150 360 151 8 0 32 -23 52 -52z m2428 -1127 c179 -14 274
-38 497 -125 184 -72 303 -145 290 -177 -5 -14 -167 -68 -203 -68 -11 0 -49
15 -84 34 -139 74 -263 106 -561 145 -186 25 -332 27 -451 6 -85 -15 -89 -15
-129 5 -62 32 -139 90 -139 105 0 22 120 75 190 84 78 9 417 4 590 -9z m-595
-360 c158 -68 219 -83 510 -126 266 -39 503 -50 662 -30 39 5 79 6 89 2 16 -6
15 -8 -2 -28 -11 -11 -51 -45 -91 -74 -39 -30 -74 -58 -77 -63 -12 -18 -37
-229 -37 -306 0 -87 15 -134 91 -284 48 -98 230 -508 230 -521 0 -6 -11 -7
-27 -3 -16 5 -83 8 -151 8 l-122 0 5 26 c3 15 6 71 7 125 0 90 -2 105 -30 164
-50 111 -148 192 -269 226 -51 14 -75 15 -149 7 -49 -6 -92 -7 -97 -3 -14 12
38 47 106 71 37 12 72 28 77 34 5 6 21 99 35 205 21 160 23 196 12 207 -8 8
-57 17 -118 23 -57 5 -196 28 -309 50 -113 22 -213 40 -222 40 -20 0 -23 -10
-38 -125 -15 -112 -40 -236 -53 -260 -12 -24 -69 -94 -157 -195 -36 -41 -81
-94 -100 -116 -19 -23 -134 -158 -255 -300 -249 -293 -240 -283 -327 -384
-173 -203 -202 -256 -202 -379 -1 -53 3 -86 10 -88 6 -2 14 9 17 24 8 42 80
118 139 147 65 33 162 35 223 7 90 -42 165 -151 165 -241 0 -25 -7 -90 -15
-144 -8 -55 -12 -103 -8 -107 11 -11 115 -50 120 -46 2 2 13 67 24 143 30 201
21 252 -72 406 l-41 67 27 188 c38 263 73 344 168 391 136 68 298 17 368 -117
51 -96 44 -115 -79 -211 -57 -44 -102 -107 -126 -174 -8 -23 -31 -158 -51
-301 -19 -143 -40 -287 -45 -321 -18 -111 -16 -118 35 -132 87 -23 76 -51 129
326 26 185 52 351 57 367 13 43 94 132 143 157 58 30 163 30 229 -2 62 -29
122 -99 143 -165 16 -51 16 -57 -35 -410 -41 -284 -49 -360 -39 -367 7 -4 36
-8 65 -8 42 0 54 4 63 20 18 34 92 567 92 670 1 118 -21 199 -71 266 -42 56
-119 112 -191 137 -27 10 -54 26 -59 35 -16 30 25 278 54 328 28 48 90 104
144 131 49 24 153 24 202 0 96 -47 169 -149 169 -235 0 -24 -41 -328 -90 -676
-50 -347 -91 -640 -93 -651 -3 -24 18 -29 89 -20 37 4 55 11 58 23 3 9 19 116
36 237 16 121 35 252 40 290 20 130 41 280 50 350 5 39 14 82 20 96 29 63 143
85 257 51 38 -12 78 -32 90 -44 21 -23 53 -105 53 -136 0 -14 -139 -451 -165
-519 -6 -16 -28 -7 -144 59 -46 27 -86 46 -88 44 -3 -2 -13 -63 -22 -135 -20
-151 -26 -137 81 -196 38 -20 70 -41 73 -46 3 -5 -8 -52 -25 -106 -16 -53 -30
-116 -30 -139 0 -32 -4 -44 -17 -48 -57 -17 -349 -40 -508 -40 -193 1 -298 13
-632 69 -244 42 -318 62 -490 130 -373 150 -625 336 -694 512 -33 86 -32 198
4 275 29 64 43 83 274 353 89 105 252 298 364 430 111 132 218 258 238 281 37
42 155 181 230 270 l42 52 24 161 c27 179 26 186 -29 254 -61 76 -91 137 -67
137 5 0 61 -23 126 -50z m-6920 -16 c111 -26 220 -90 316 -184 102 -100 144
-159 134 -189 -8 -26 -135 -127 -196 -155 -42 -20 -55 -21 -164 -14 -282 18
-423 105 -465 286 -20 85 12 172 85 234 54 47 154 55 290 22z m982 -702 c106
-40 193 -143 177 -209 -21 -89 -75 -132 -194 -154 -85 -15 -189 5 -297 59
-115 56 -383 222 -383 237 0 26 31 36 151 50 68 9 176 22 239 29 141 18 239
14 307 -12z m7672 -839 c111 -223 171 -405 171 -523 0 -79 -7 -120 -20 -120
-4 0 -19 30 -33 68 -14 37 -45 110 -70 162 -99 209 -147 322 -147 343 0 29 41
147 52 147 4 0 25 -35 47 -77z m-7230 32 c43 -22 98 -92 117 -148 50 -151 -71
-323 -278 -393 -79 -27 -287 -60 -313 -50 -39 15 2 215 71 346 32 61 148 189
200 221 66 40 152 51 203 24z m7153 -519 c97 -214 118 -297 83 -322 -27 -20
-116 -16 -230 10 -67 15 -101 27 -103 37 -1 8 16 67 38 129 23 63 44 124 47
135 17 66 66 205 71 205 4 0 46 -87 94 -194z m-7732 -297 c0 -22 -102 -247
-145 -319 -61 -103 -152 -192 -242 -237 -69 -34 -76 -35 -155 -31 -180 10
-288 114 -259 249 40 184 186 294 446 335 103 16 355 18 355 3z m7617 -263
l102 -1 -27 -28 c-41 -44 -292 -161 -308 -144 -9 8 26 180 38 188 6 4 29 2 52
-4 22 -5 87 -10 143 -11z m-6357 -399 c124 -59 180 -113 180 -175 0 -55 -30
-169 -49 -186 -10 -9 -61 -23 -125 -32 -87 -14 -120 -15 -167 -6 -111 20 -220
86 -255 153 -29 57 -13 144 38 197 63 65 114 82 233 78 72 -2 101 -8 145 -29z
m865 -527 c116 -38 166 -61 195 -92 38 -41 18 -103 -48 -148 -32 -22 -45 -25
-126 -23 -168 3 -320 65 -449 183 -96 88 -91 100 38 111 162 14 281 5 390 -31z"/>
<path d="M8160 3529 c-9 -16 -8 -25 6 -40 22 -24 29 -24 54 1 16 16 18 25 10
40 -14 27 -56 26 -70 -1z"/>
<path d="M8340 3515 c-7 -8 -10 -25 -6 -40 8 -31 50 -35 66 -6 13 25 13 27 -6
45 -19 20 -38 20 -54 1z"/>
<path d="M7270 3340 c-26 -26 -12 -60 25 -60 43 0 53 50 14 70 -14 8 -23 6
-39 -10z"/>
<path d="M8142 3347 c13 -39 144 -62 184 -32 10 8 15 15 9 15 -11 0 -123 17
-168 25 -20 3 -27 1 -25 -8z"/>
<path d="M7421 3312 c-7 -14 -6 -25 5 -40 19 -27 36 -28 58 -3 14 15 15 24 6
40 -14 26 -56 28 -69 3z"/>
<path d="M7280 3142 c0 -21 71 -45 117 -38 93 12 74 30 -46 42 -46 4 -71 3
-71 -4z"/>
<path d="M8715 3070 c-11 -17 5 -50 24 -50 24 0 43 23 35 44 -7 18 -49 22 -59
6z"/>
<path d="M8880 3046 c-27 -33 18 -72 48 -42 13 13 14 20 6 34 -15 23 -38 26
-54 8z"/>
<path d="M7776 2904 c-31 -30 -8 -69 36 -62 30 4 38 46 12 65 -23 17 -29 16
-48 -3z"/>
<path d="M8725 2902 c11 -12 40 -26 65 -33 47 -12 120 -6 120 11 0 13 -66 30
-140 37 l-65 5 20 -20z"/>
<path d="M7952 2881 c-18 -11 -11 -51 10 -65 14 -8 22 -6 39 10 17 18 19 25
10 43 -12 22 -36 27 -59 12z"/>
<path d="M7760 2702 c0 -36 125 -66 183 -43 42 16 32 28 -35 39 -138 24 -148
24 -148 4z"/>
<path d="M6696 2674 c-9 -8 -16 -19 -16 -24 0 -13 30 -40 44 -40 33 0 50 62
20 74 -24 9 -31 8 -48 -10z"/>
<path d="M6880 2645 c-14 -17 -5 -51 16 -59 22 -8 54 11 54 32 0 38 -46 56
-70 27z"/>
<path d="M8072 6203 c-24 -8 -70 -40 -103 -70 -48 -45 -62 -65 -75 -111 -21
-71 -13 -137 23 -203 92 -169 294 -204 431 -75 53 49 75 101 80 188 4 69 2 84
-22 132 -33 68 -78 108 -151 135 -65 24 -122 26 -183 4z"/>
<path d="M8485 5698 c-140 -49 -189 -234 -92 -345 78 -89 231 -98 315 -20 63
58 90 183 54 253 -53 102 -169 150 -277 112z"/>
</g>
</svg>
